<?xml version="1.0" standalone="no"?>
<!DOCTYPE svg PUBLIC "-//W3C//DTD SVG 1.1//EN" "http://www.w3.org/Graphics/SVG/1.1/DTD/svg11.dtd" >
<svg xmlns="http://www.w3.org/2000/svg" xmlns:xlink="http://www.w3.org/1999/xlink" version="1.1">
<metadata>
Created by FontForge 20170731 at Thu Aug  4 12:46:08 2011
 By Aleksey,,,
Copyright 1999 International Typeface Corporation. All rights reserved.
</metadata>
<defs>
<font id="ITCBerrangerHandW01-Rg" horiz-adv-x="500" >
  <font-face 
    font-family="ITCBerrangerHandW01-Rg"
    font-weight="400"
    font-stretch="normal"
    units-per-em="1000"
    panose-1="2 0 5 3 4 0 0 2 0 4"
    ascent="724"
    descent="-276"
    x-height="424"
    cap-height="616"
    bbox="-296 -500 1061 1030"
    underline-thickness="153"
    underline-position="-554"
    unicode-range="U+000D-2122"
  />
<missing-glyph horiz-adv-x="0" 
 />
    <glyph glyph-name=".notdef" horiz-adv-x="0" 
 />
    <glyph glyph-name=".null" horiz-adv-x="0" 
 />
    <glyph glyph-name="uni000D" unicode="&#xd;" horiz-adv-x="260" 
 />
    <glyph glyph-name="space" unicode=" " horiz-adv-x="260" 
 />
    <glyph glyph-name="exclam" unicode="!" horiz-adv-x="387" 
d="M364 744q0 -10 -4.5 -22.5t-11 -26t-13.5 -26t-12 -22.5t-7 -21.5t-4 -23.5t-5 -23t-10 -19q-8 -30 -13 -46t-9.5 -29.5t-10 -32.5t-14.5 -55q-6 -25 -12 -42t-10.5 -30.5t-7 -27t-2.5 -31.5v-10.5t1 -12.5q-6 0 -14.5 -2.5t-17 -4.5t-15.5 -4t-9 -2q-18 0 -35.5 11.5
t-17.5 33.5q0 6 6.5 18.5t12.5 23.5q12 46 19.5 79t13 59t9 47t7 42.5t8.5 46t12 56.5q4 17 10 45.5t17 56t29 47.5t45 20q16 0 28 -6.5t20 -17t12.5 -23t4.5 -25.5zM224 68q0 -4 -2 -22.5t-9.5 -39.5t-22.5 -37.5t-40 -16.5q-28 0 -44.5 7.5t-25 21t-11 32t-2.5 39.5
q0 29 5 44q3 8 6 13q15 9 23 16t15 12t14.5 7.5t19.5 2.5q23 0 37.5 -8t22.5 -20t11 -26t3 -25z" />
    <glyph glyph-name="quotedbl" unicode="&#x22;" horiz-adv-x="389" 
d="M341 677q0 -15 -1 -34.5t-3 -38.5t-5 -35t-7 -23l-10 -17.5t-12.5 -20t-12.5 -16.5t-10 -7h-1q-4 1 -8.5 12t-8 25t-6 27.5t-2.5 21.5q0 6 -0.5 20t-0.5 30q0 19 1 37t4 27q3 8 15.5 21.5t27.5 13.5q7 0 14 -1t13 -5.5t9.5 -13t3.5 -23.5zM184 687q0 -6 -3.5 -25t-8 -41
t-9.5 -41.5t-8 -26.5t-8.5 -20t-11.5 -26t-12.5 -22.5t-12.5 -9.5t-11 8t-9.5 19.5t-7 24.5t-2.5 24v49v33t1 31.5t2 25.5t3 15q6 11 12.5 19.5t17.5 8.5q10 0 22 -5t22.5 -12.5t17 -15t6.5 -13.5z" />
    <glyph glyph-name="numbersign" unicode="#" horiz-adv-x="773" 
d="M719 428q0 -20 -10 -31t-25.5 -16.5t-34.5 -7t-38 -1.5h-30q-14 0 -24 -1t-15 -5q-14 -12 -20.5 -22.5t-10 -19t-6 -16.5t-9.5 -16v-9q8 -5 16.5 -5.5t16.5 -0.5h31q3 0 13 2.5t21 6t20.5 6t13.5 2.5q5 0 14 -1.5t17.5 -5t15 -9t6.5 -14.5q0 -10 -4.5 -22.5t-11 -23.5
t-15 -18.5t-16.5 -7.5q-6 0 -15.5 -2.5t-17.5 -2.5q-3 0 -18.5 1t-37.5 1q-20 0 -43 -1.5t-43 -5.5q-7 -14 -15 -39t-8 -44q0 -18 -2.5 -38t-9 -37t-18.5 -28t-32 -11h-2q-20 0 -31.5 7t-17 18t-6.5 24.5t-1 26.5v10q0 16 0.5 19.5t4 7.5t10 14t18.5 38q-6 0 -13.5 0.5
t-15.5 0.5q-17 0 -34.5 -1t-31.5 -3q-7 -24 -11 -50t-10 -49t-16.5 -41t-29.5 -26q-19 0 -38.5 19.5t-19.5 57.5q0 19 9 46t14 45q-12 3 -27 3q-14 0 -29 -1t-30 -1q-27 0 -48.5 9t-23.5 42v5q0 18 9.5 30t23 19t29 10t27.5 3q2 0 10 -2.5t17 -5l18 -5t12 -2.5h3
q13 0 23 1.5t18.5 8.5t16 22t15.5 43q-3 9 -11 9t-18.5 -4.5t-15.5 -4.5q-6 0 -20 3t-28.5 10t-25.5 18.5t-11 27.5q0 4 2 14t8.5 21t19 20.5t32.5 12.5q2 1 7 1q7 0 18.5 -1.5t28.5 -1.5q14 0 31 1.5t40 6.5q3 1 10 15.5t16 36t21 46t26.5 46t31.5 35.5t36 14
q17 0 33.5 -14t16.5 -37q0 -3 -5.5 -16.5t-14.5 -32t-20.5 -39.5t-23.5 -39v-10h-1q0 -1 6 -1h26q4 0 17.5 3.5t16.5 11.5q1 3 6 17t12.5 33t17.5 40.5t22 39t25 29.5t27 12q12 0 25 -2t23.5 -8.5t17.5 -17.5t7 -29q0 -17 -6.5 -31.5t-15.5 -28t-18 -26t-14 -24.5
q4 -1 14 -1q17 0 33.5 3t21.5 3q28 0 42 -19t14 -42zM336 351h-1q-11 0 -18.5 -12.5t-13 -28t-8.5 -29.5t-4 -17l63 -6h6q18 0 28 10t16 24t8.5 29.5t4.5 27.5z" />
    <glyph glyph-name="dollar" unicode="$" horiz-adv-x="536" 
d="M479 217q0 -3 -1.5 -12t-4 -19t-4.5 -18.5t-3 -10.5q-6 -13 -24 -29.5t-40 -31.5t-44.5 -25.5t-36.5 -11.5q-3 2 -9 4q11 -21 20.5 -49t9.5 -54q0 -25 -14 -42t-51 -17q-16 0 -30.5 7.5t-26 19.5t-18.5 27t-7 31q0 10 1.5 20.5t3.5 20t3.5 16.5t1.5 10q0 4 -3 4t-6.5 -2
t-4.5 -3q-9 -1 -17.5 -1.5t-17.5 -0.5q-38 0 -72.5 10t-67.5 36q-4 7 -5 14.5t-1 15.5q0 26 18 46t44 20q15 0 25.5 -7t21 -16t24 -16t35.5 -7q13 0 30 3q1 20 1.5 38.5t0.5 37.5q0 22 -0.5 44.5t-1.5 46.5q-21 12 -43.5 26.5t-42.5 31.5t-35 38.5t-20 47.5q3 4 3 10
q0 12 -9 21q9 26 23.5 50.5t33.5 47t41.5 41t45.5 32.5q3 -1 9 -1q10 0 13 8t3 22t-1.5 31.5t-1.5 35.5q0 14 2 27.5t8.5 23.5t17.5 16t29 6q22 0 36 -7.5t21.5 -20t10 -29t2.5 -33.5t-1.5 -33.5t-1.5 -30.5q22 0 41 -2t33.5 -9t22.5 -21.5t8 -40.5q0 -14 -4 -28.5
t-12.5 -26t-20.5 -19t-27 -7.5q-14 0 -23 3t-15 9t-11 14t-12 18q-6 -13 -8.5 -27t-4 -28.5t-4 -29t-7.5 -27.5q0 -10 -0.5 -18.5t-0.5 -17.5q0 -7 0.5 -13.5t1.5 -13.5q33 -16 64 -29.5t55 -31.5t38 -45t14 -69zM217 553q-22 -18 -33.5 -32.5t-11.5 -28.5q0 -25 45 -54v115
zM352 221q0 10 -6 17t-14 11.5t-18 8t-17 7.5q-3 -17 -6 -35t-3 -36q0 -14 3 -29q10 3 21 7t20 11t14.5 16.5t5.5 21.5z" />
    <glyph glyph-name="percent" unicode="%" horiz-adv-x="695" 
d="M672 227q0 -23 -10.5 -61t-32.5 -74t-54.5 -62.5t-75.5 -26.5q-6 0 -16.5 3t-21 8t-19.5 11.5t-11 13.5q0 -1 1 -1v1q0 1 0.5 2t0.5 3q0 5 -8.5 21t-8.5 42q0 6 2 16.5t6 23.5t8.5 27t9.5 27q5 10 7 31.5t12 36.5q12 16 24.5 32.5t27 30.5t32 23t39.5 9q25 0 41.5 -15.5
t27 -37t15 -45t4.5 -39.5zM272 605q0 -25 -8 -54t-21.5 -57.5t-32.5 -53.5t-41 -43q-5 -4 -15 -9.5t-20.5 -10t-20 -8t-14.5 -3.5h-27q-11 0 -20.5 12t-16.5 26.5t-11 27.5t-4 15q0 22 7 50t19 57.5t29.5 57.5t38 50.5t44 36t48.5 13.5q20 0 33 -11t20.5 -27t10 -34.5
t2.5 -34.5zM498 648q0 -11 -11.5 -40t-27 -62.5t-30.5 -66.5t-22 -52q-7 -34 -21.5 -77.5t-32.5 -89.5t-36.5 -92t-33.5 -85q7 -18 7 -36q0 -19 -7 -35t-17.5 -27.5t-23.5 -18t-25 -6.5q-13 0 -24.5 7t-20 17.5t-13.5 23.5t-5 25q0 20 11 40.5t25 42t27.5 43t19.5 42.5
q6 23 21.5 55t26.5 70q14 36 23.5 63t16.5 49t12 42t9.5 42t10 48.5t12.5 62.5q2 2 7.5 14.5t14.5 27t20 26t24 11.5q33 0 48 -20.5t15 -43.5zM597 231q0 4 -2.5 6t-4.5 6q-2 -3 -16.5 -18t-30.5 -33t-29 -36t-13 -27q0 -6 1.5 -13.5t1.5 -13.5q16 3 32.5 16.5t30 32.5
t22 40.5t8.5 39.5zM188 601q-11 -8 -21.5 -20t-18.5 -25.5t-13 -27t-5 -25.5q0 -6 1.5 -15t1.5 -15q5 5 13.5 18.5t17.5 28.5t17 29t11 22z" />
    <glyph glyph-name="ampersand" unicode="&#x26;" horiz-adv-x="558" 
d="M519 325q0 -15 -11 -37.5t-28 -47.5t-36 -50.5t-36 -46.5t-28 -35.5t-11 -17.5q0 -9 4.5 -15t11 -11.5t13.5 -10t13 -10.5q3 -6 5 -15t3 -17q2 -5 5 -13.5t6 -17.5t5 -16t2 -9q0 -15 -5.5 -29t-15.5 -25t-22.5 -18t-27.5 -7q-22 0 -35 14t-19.5 32.5t-8.5 36.5t-2 27
q-1 4 -5 19t-14 29q-11 -4 -31 -10.5t-41.5 -12.5t-41.5 -10.5t-30 -4.5h-19q-25 0 -43.5 10t-31 26t-18.5 35.5t-6 39.5q0 34 19.5 70.5t47 71.5t56.5 67t49 58q2 2 2.5 7.5t0.5 13.5q0 9 -2 19q0 7 1.5 13t1.5 13v3q-1 16 -1.5 30t-0.5 27q0 25 3 48.5t13 55.5q4 15 21 35
t38.5 38t43 30.5t36.5 12.5q23 0 44 -9.5t36.5 -25.5t25 -36.5t9.5 -42.5q0 -29 -24.5 -64.5t-54 -71.5t-54 -69t-24.5 -56q0 -48 5 -87.5t15 -60.5q9 12 19 25t18 25.5t14 23t7 18.5q21 20 30 36t15 27t13.5 16.5t25.5 5.5q8 0 16.5 -4t16 -10.5t12.5 -15.5t5 -19zM354 594
q0 3 -2 3q-24 0 -37 -12t-20 -29t-8.5 -35t-1.5 -30v-12q0 -4 3 -10q1 -4 3 -7q3 4 13.5 20.5t21.5 36.5t19.5 40t8.5 31v4zM245 128q-7 37 -14 66.5t-15 61.5q-12 -11 -27 -28.5t-28 -37t-22 -39t-9 -34.5q0 -7 3 -14t14 -7q6 0 13.5 4.5t11.5 4.5q5 0 10.5 0.5t10.5 0.5
q7 0 22.5 8t29.5 14z" />
    <glyph glyph-name="quotesingle" unicode="'" horiz-adv-x="246" 
d="M184 687q0 -6 -4.5 -26t-10.5 -43.5t-12 -44t-9 -27.5t-8.5 -20t-12 -26t-13 -23t-12.5 -10t-11 8t-9.5 19.5t-7 24.5t-2.5 24q0 10 1 35t3 51t4.5 48t5.5 28q6 11 12.5 19.5t17.5 8.5q10 0 22 -5t22.5 -12.5t17 -15t6.5 -13.5z" />
    <glyph glyph-name="parenleft" unicode="(" horiz-adv-x="441" 
d="M373 27q0 -8 -7 -15.5t-16 -13.5t-18.5 -10t-14.5 -4q-4 0 -5.5 1.5t-5.5 1.5q-6 0 -5 -1t-5 -1q-34 0 -66 17t-58.5 41.5t-45.5 53.5t-26 53q-4 9 -10.5 27.5t-12.5 42t-10 48.5t-4 48q0 35 5 81t15 94.5t26.5 95.5t39.5 84t53 59.5t67 22.5q7 0 17 -3t19.5 -8.5t16 -14
t6.5 -18.5q0 -4 -2.5 -5.5t-2.5 -6.5q-2 -16 -13.5 -29.5t-25 -26.5t-26.5 -26t-18 -28q-1 -5 -6.5 -10t-8.5 -11q-14 -29 -19.5 -61t-10.5 -60q-3 -16 -7.5 -44t-4.5 -50q-1 -5 -1 -10v-10q0 -11 0.5 -22t0.5 -21q0 -5 -2.5 -11t-2.5 -10q0 -5 2.5 -5t2.5 -2q5 -29 12 -57
t15 -53q2 -4 9.5 -16t18.5 -25t26 -23t32 -10q6 0 17.5 5t22.5 5q9 0 16 -9t11.5 -20t7 -20.5z" />
    <glyph glyph-name="parenright" unicode=")" horiz-adv-x="407" 
d="M321 326q0 -4 -4 -22.5t-9 -41t-10 -44t-7 -30.5q-26 -80 -68.5 -133.5t-86.5 -82.5q-12 0 -23 4.5t-19 11.5t-12.5 15t-4.5 15q7 16 18 30t22.5 27t22.5 26.5t19 27.5q6 11 12.5 26.5t11 32.5t7.5 34t3 32v9q2 9 3.5 20t2.5 21.5t1.5 18.5t0.5 10v22t-0.5 42t-1.5 44
t-2 28v4q0 14 -3 29t-6 29q-8 39 -17 55.5t-19 31.5q-18 27 -45 48t-53 50q4 16 16 25.5t27.5 14.5t31 6.5t26.5 1.5q7 0 19.5 -9t26.5 -22.5t27 -29.5t21 -30q7 -12 15.5 -30t16 -37.5t14 -39t9.5 -35.5q2 -11 5 -33t5.5 -45t4.5 -41t2 -20v-66z" />
    <glyph glyph-name="asterisk" unicode="*" horiz-adv-x="403" 
d="M365 705q0 -8 -3 -19t-16 -23q-17 -16 -38.5 -26.5t-44.5 -31.5q6 -5 14 -10.5t15.5 -11.5t13 -12t6.5 -13q2 -6 3 -14t1 -10q0 -9 -5.5 -16t-13 -11.5t-14.5 -6.5t-10 -2q-18 0 -25 5.5t-10 11.5t-5 11.5t-11 5.5q-6 0 -6 -3q0 -8 8 -24.5t8 -28.5q0 -24 -13.5 -32
t-27.5 -8q-13 0 -21.5 6.5t-13.5 16t-8.5 21t-6.5 20.5q-16 -11 -22 -21.5t-9.5 -19t-9 -14t-20.5 -5.5q-16 0 -24.5 9.5t-18.5 31.5q4 11 15.5 23t20.5 21q5 6 9.5 12.5t9.5 13.5q5 8 14.5 17.5t9.5 12.5t-13.5 11.5t-29.5 20t-29.5 24.5t-13.5 25q0 18 13 30.5t29 12.5
q3 0 14.5 -5.5t24 -12.5t24 -13.5t14.5 -7.5q1 18 1 35.5t2.5 31.5t9 23t20.5 9q16 0 24.5 -12t14 -26.5t9.5 -26.5t10 -12t15 9.5t20 20.5t22.5 20.5t20.5 9.5q23 0 35 -12.5t12 -30.5z" />
    <glyph glyph-name="plus" unicode="+" horiz-adv-x="591" 
d="M553 336q0 -9 -5 -16.5t-12.5 -13.5t-16.5 -10t-16 -5q-54 -5 -91.5 -16.5t-74.5 -21.5q0 -14 -2 -33t-2 -27q0 -3 4.5 -26.5t10.5 -51t10.5 -51t4.5 -26.5q0 -7 -5 -21t-13 -27.5t-19 -23.5t-24 -10q-24 0 -40.5 8.5t-26.5 23t-14.5 32.5t-4.5 36q0 1 3.5 9t7 18.5
t7 22.5t3.5 22v11q0 11 -0.5 26.5t-3 30t-7.5 24.5t-14 10q-7 0 -25 -4t-32 -6q-8 -2 -16.5 -3t-17.5 -1q-14 0 -28 2.5t-26 9.5q0 14 -4.5 25t-4.5 17q0 27 20 43t46.5 24t53.5 11t41 5q-2 14 -6 36t-9 43t-8.5 37.5t-3.5 19.5q0 5 2.5 14t2.5 19q0 6 -1 9q4 3 13 11
t19.5 16.5t21 15t18.5 6.5q22 0 35.5 -8t21.5 -21.5t11 -31t3 -35.5q0 -29 -4 -55.5t-4 -38.5q0 -6 1 -7q3 -9 9 -11t14 -2h9h14.5t22.5 0.5t22 0.5h13q8 0 8 6t7 6q6 0 5 -2t6 -2q6 0 17 7t17 7q8 0 18 -6.5t18.5 -16t14.5 -19t6 -15.5z" />
    <glyph glyph-name="comma" unicode="," horiz-adv-x="311" 
d="M274 105q0 -5 -12.5 -32.5t-32 -66t-43.5 -82t-46.5 -80t-40.5 -61t-27 -24.5q-11 0 -19.5 9t-13.5 22.5t-7.5 29t-2.5 27.5q0 6 10.5 22t23 38t23 47t10.5 49q0 9 -1 13q7 29 16 59.5t22 55t31.5 40.5t45.5 16q16 0 28 -8t20 -20.5t12 -27t4 -26.5z" />
    <glyph glyph-name="hyphen" unicode="-" horiz-adv-x="527" 
d="M462 279q0 -2 -3 -12.5t-7 -23t-8.5 -22.5t-8.5 -10t-4 2t-5 2q-6 0 -10.5 -9t-11.5 -9q-6 0 -9 2t-10 2q-3 0 -22 -4.5t-43.5 -9.5t-48.5 -9.5t-37 -4.5q-16 0 -25.5 -1t-16.5 -1.5t-13 -1.5t-15 -1q-8 0 -24 2t-33 8.5t-29.5 18.5t-12.5 32q0 49 29 66t70 17
q3 0 11.5 -1.5t18.5 -3.5t18.5 -3.5t11.5 -1.5q16 0 30.5 0.5t31.5 0.5q28 0 43.5 4t27.5 8.5t25 8.5t37 4q4 0 11.5 -6t14.5 -14t12 -16t5 -13z" />
    <glyph glyph-name="period" unicode="." horiz-adv-x="284" 
d="M227 59q0 -18 -10 -35.5t-24.5 -31t-31.5 -21.5t-32 -8q-17 0 -30.5 10.5t-22.5 25t-14 29.5t-5 24q0 48 16 63t44 18q6 0 10.5 5t10.5 5q8 0 10.5 -6t8.5 -6q4 0 5 0.5t1 1.5t1 1.5t4 0.5q13 0 23.5 -10t18.5 -22.5t12.5 -25t4.5 -18.5z" />
    <glyph glyph-name="slash" unicode="/" horiz-adv-x="451" 
d="M464 724q0 -20 -13 -45.5t-30.5 -50.5t-33.5 -46.5t-22 -32.5q-27 -52 -43 -80t-26.5 -44.5t-17.5 -28t-16.5 -31t-23 -54t-36.5 -95.5q-10 -27 -12.5 -49.5t-12.5 -42.5q-5 -8 -11 -21t-6 -27q0 -6 2 -15t2 -19v-4q-5 -23 -14 -55t-15 -54q-1 -7 -4.5 -17.5t-7.5 -21.5
q-19 -14 -29.5 -16t-24.5 -2q-15 0 -26 6.5t-18.5 16t-11 21t-3.5 20.5q0 3 2 15.5t5.5 29t7.5 34t8 30.5t11 22t14.5 18t15 19t11.5 25q21 72 34 117.5t29 78.5q20 42 30.5 69t18 50t14.5 47.5t19 60.5q28 44 42.5 85.5t28.5 74t36 52.5t66 20q6 0 16.5 -6t20 -15t17 -19.5
t7.5 -19.5z" />
    <glyph glyph-name="zero" unicode="0" horiz-adv-x="573" 
d="M508 321q0 -45 -7 -83.5t-18.5 -70.5t-25.5 -58t-28 -45q-11 -16 -36 -34t-54 -33t-57.5 -25t-46.5 -10q-32 0 -61.5 19.5t-51.5 49t-35 64t-13 64.5q0 5 0.5 9.5t1.5 9.5v2q0 10 -3.5 19.5t-8 19t-8 19.5t-3.5 22q0 14 10 24.5t24 20t28 20.5t23 27q5 9 14 17.5t18.5 16
t17 14t9.5 12.5q6 1 13 4.5t14.5 6.5t14 5.5t9.5 2.5q6 0 22.5 -2t22.5 -2q4 0 18 5.5t34 12t43.5 12t47.5 5.5q25 0 39.5 -18.5t22 -43t9 -47.5t1.5 -32zM421 347q-8 0 -14.5 2t-14.5 2q-26 0 -59.5 -18t-73.5 -42q-2 -2 -13 -16t-23 -32.5t-22 -37t-10 -28.5q0 -7 3.5 -21
t11 -28.5t18.5 -25.5t27 -11q40 0 72 28t53.5 67.5t33 83t11.5 75.5v2z" />
    <glyph glyph-name="one" unicode="1" horiz-adv-x="354" 
d="M304 552q0 -37 -11.5 -87.5t-26 -102t-26 -97.5t-11.5 -73q0 -11 6.5 -22t14 -23t14 -24t6.5 -24q0 -15 -6 -40t-17 -49t-26.5 -41.5t-34.5 -17.5q-17 0 -30.5 14t-22.5 32t-14 34.5t-5 20.5q0 23 5.5 66.5t14 94t17.5 102t16 89.5v1q0 2 -7 2q-6 0 -11 -9t-15 -19.5
t-27 -19.5t-46 -9q-26 0 -43.5 11.5t-17.5 43.5q0 7 4 16t10 16.5t12.5 12.5t12.5 5q39 16 76.5 47.5t55.5 70.5q18 9 24.5 15.5t10.5 11t10 6.5t23 2q26 0 45.5 -17t19.5 -39z" />
    <glyph glyph-name="two" unicode="2" horiz-adv-x="512" 
d="M470 68q0 -13 -5.5 -28.5t-15 -29t-23.5 -22.5t-32 -9h-34q-4 0 -20 5.5t-34.5 12t-34.5 12t-19 5.5q-26 0 -42 -8t-28.5 -18t-24 -18t-28.5 -8q-12 0 -24.5 7t-22 18t-15.5 24.5t-6 25.5q0 30 15.5 46t35.5 30t38.5 31.5t24.5 51.5q19 34 35 79t29 88.5t21.5 80
t12.5 54.5h1q0 1 -7 1q-35 0 -59 -22t-43.5 -49t-36.5 -49t-37 -22q-14 0 -27 8t-17 14q-5 8 -7 17.5t-2 18.5q0 14 3 26l5 20q30 35 68 68.5t76.5 60t73 42.5t58.5 16q18 0 31.5 -13.5t22.5 -32.5t13.5 -38t4.5 -30t-3.5 -19t-7 -17t-7 -21.5t-3.5 -34.5l-114 -277
q1 -4 12 -8t24.5 -7t26 -5t17.5 -2q3 0 12 0.5t19 1.5t19 1.5t13 0.5q11 0 23 -10t22 -23t16.5 -26t6.5 -20z" />
    <glyph glyph-name="three" unicode="3" horiz-adv-x="486" 
d="M441 -116q0 -2 -3 -11.5t-7.5 -21.5t-10 -24.5t-9.5 -19.5q-3 -4 -9 -10.5t-14 -13.5t-16.5 -14t-16.5 -12q-5 -3 -33.5 -15.5t-64 -27t-69.5 -25.5t-50 -11q-18 0 -35 6t-30 17.5t-21 27t-8 34.5q0 9 4 22t11.5 25.5t19 21.5t25.5 9q3 0 16.5 -4t29 -8.5t29.5 -8.5
t17 -4q17 0 37 6.5t37.5 19.5t29.5 31t12 41q0 15 -7 40t-19.5 49.5t-31 42t-41.5 17.5q-3 0 -14.5 -2.5t-24.5 -5t-24.5 -5t-14.5 -2.5q-17 0 -28.5 8.5t-19 21.5t-11 27.5t-3.5 25.5q0 3 1 10t3 15t6 15.5t9 10.5q16 13 39 32t44 41.5t35.5 47t14.5 48.5q-2 3 -4 4t-10 1
q-10 0 -22.5 -7t-26.5 -15.5t-29.5 -15.5t-32.5 -7q-13 0 -23.5 7.5t-18 18t-11.5 23t-4 21.5q0 23 22.5 45.5t52.5 40.5t60.5 29t46.5 11q32 0 57 -11.5t42.5 -30.5t27 -45t9.5 -54q0 -36 -11 -63.5t-24 -47t-24 -33t-11 -22.5q0 -3 10 -12.5t24 -22.5t28 -28.5t23 -30.5
q11 -19 22.5 -45t21 -55.5t15.5 -61t6 -60.5z" />
    <glyph glyph-name="four" unicode="4" horiz-adv-x="523" 
d="M484 182q0 -23 -17 -42.5t-38 -39t-38 -40t-17 -45.5q0 -13 6 -27t13 -27.5t13 -24.5t6 -18q0 -11 -8 -24t-20.5 -24.5t-26.5 -19.5t-26 -8q-26 0 -40.5 9.5t-21.5 24.5t-9 33.5t-2 36.5v30q0 12 -1 22t-4 16q-8 0 -12.5 -2t-11.5 -2q-36 0 -66.5 14.5t-53 36.5t-36 49
t-17.5 52v88q4 7 5 16t1 19q0 7 -0.5 13.5t-0.5 13.5q0 10 1 14q8 12 13 29t8 34.5t4.5 35t1.5 31.5v14t-1 10q13 25 17 53t10 51t20 38t49 15q21 0 37 -10t26 -24t15 -30t5 -29q0 -6 -5.5 -21.5t-6.5 -26.5q-9 -9 -24.5 -42.5t-30 -75.5t-25 -83t-10.5 -64q0 -12 2.5 -30
t11 -35.5t25 -29.5t44.5 -12q12 0 17 14.5t7.5 36.5t4.5 48t8.5 48t19.5 36.5t37 14.5q17 0 30 -8t22 -20t13.5 -25.5t4.5 -23.5q0 -3 -2 -10.5t-4.5 -15.5t-4.5 -16t-2 -11q0 -6 1 -8.5t7 -2.5q3 0 11 4t16 9t16 9t11 4q11 0 17 -7t6 -18z" />
    <glyph glyph-name="five" unicode="5" horiz-adv-x="529" 
d="M573 508q-5 -20 -9 -34t-12 -28q-14 -19 -36.5 -26.5t-48.5 -15.5q-17 -5 -36 -8.5t-35.5 -6t-29 -3.5t-16.5 -1q-6 0 -17 2t-18 2q-30 0 -54.5 -11.5t-42 -30.5t-27 -42.5t-9.5 -48.5q0 -30 25.5 -62t56 -69.5t56 -82t25.5 -99.5q0 -24 -3 -46.5t-7.5 -41t-9.5 -32.5
t-9 -20q-17 -26 -41 -55t-51 -54t-56 -41.5t-57 -16.5q-25 0 -46 12t-36 30t-23.5 38.5t-8.5 37.5q0 10 9 17.5t20 13t20.5 8t11.5 2.5q16 0 21 -7t8.5 -15t9 -15t22.5 -7q21 0 42.5 17.5t39 41t28.5 47t11 34.5q0 41 -13.5 72.5t-33 59t-43 53t-43 54.5t-33 64t-13.5 81
q0 36 10.5 63.5t24 52t25.5 49t15 53.5q8 8 21 14.5t19 6.5l232 -7h5q22 0 38.5 5.5t30.5 11.5t26 11.5t24 5.5q7 0 11.5 -3t8.5 -8t8.5 -11t12.5 -11z" />
    <glyph glyph-name="six" unicode="6" horiz-adv-x="459" 
d="M403 582q0 -4 -4.5 -19t-11.5 -31t-15.5 -28.5t-17.5 -12.5h-4q-1 0 -1 1t0.5 1t0.5 1t-4 1q-10 0 -23 -14t-26.5 -35.5t-27 -46t-24 -46.5t-17 -37.5t-7.5 -17.5q3 -3 3.5 -4t7.5 -1q6 0 21 7t29 7q32 0 53.5 -12t34 -31.5t18 -45.5t5.5 -53t-15 -60.5t-37.5 -63
t-49.5 -49.5t-51 -20h-24q-16 0 -32 10.5t-29 25t-22 29t-12 22.5q-14 2 -29.5 5.5t-28.5 10.5t-21.5 19t-8.5 31q0 25 12.5 41.5t27 30.5t27 28.5t12.5 35.5l67 211q16 25 34 55.5t39.5 57t46.5 44.5t55 18q13 0 22 -9t15 -20t9 -22t3 -14zM279 202q-2 0 -6 2q-2 1 -3 2h-6
q-29 0 -43.5 -21.5t-14.5 -49.5q0 -7 3 -15.5t6.5 -15.5t8 -12t7.5 -5q9 0 18 6t17 15t13 20.5t5 23.5v6z" />
    <glyph glyph-name="seven" unicode="7" horiz-adv-x="467" 
d="M447 173q0 -20 -4.5 -30.5t-12 -15.5t-17 -7.5t-18.5 -5.5q-3 -1 -14 -2.5t-25 -2.5t-27.5 -2t-20.5 -1q-11 -7 -17 -19q-3 -19 -4 -47t-1 -57q0 -32 0.5 -56.5t0.5 -28.5q0 -3 -0.5 -11t-0.5 -19t1 -20.5t6 -12.5q-6 -10 -9 -26t-5.5 -35.5t-6 -39t-11.5 -35.5
t-22.5 -26t-38.5 -10q-18 0 -30 17.5t-20 39t-11.5 41t-3.5 23.5q0 21 11 43t24.5 50t24.5 63.5t11 84.5v12q0 13 -2 29.5t-9 16.5q-3 0 -11.5 -1t-18.5 -2.5t-19 -2.5t-12 -1q-34 0 -45 7t-12 26v5q0 33 17.5 51.5t48.5 18.5q6 0 16.5 -3.5t17.5 -3.5q6 0 21.5 3t26.5 9
q3 14 6 33.5t5 37.5t3 32t1 17q0 2 -0.5 19t-3.5 36.5t-9 35.5t-16 16q-4 0 -24 -12.5t-44.5 -27.5t-47.5 -27.5t-32 -12.5q-32 0 -45 23.5t-13 52.5q0 15 13.5 33.5t25.5 24.5q11 6 34 19.5t48.5 27.5t49 25t34.5 11q33 0 58.5 -12.5t43 -32.5t26.5 -46.5t9 -53.5
q0 -9 -2.5 -35t-7 -57t-10 -60t-11.5 -45q6 -3 11.5 -6.5t11.5 -3.5h24q8 0 8 2t-1 3.5t-1 3.5t7.5 4.5t34.5 2.5q13 0 20 -5t10.5 -11.5t4.5 -14t1 -13.5z" />
    <glyph glyph-name="eight" unicode="8" horiz-adv-x="503" 
d="M448 143q0 -14 -4.5 -29.5t-10.5 -30t-13 -27t-13 -19.5q-8 -11 -23.5 -25.5t-31.5 -21.5q-14 -6 -33.5 -13.5t-38 -14t-32.5 -11t-17 -4.5h-36q-21 0 -38 9t-28 23t-17 31.5t-6 34.5q0 33 9 63t21.5 58.5t24.5 55.5t18 53q6 3 12 9t6 12q0 9 -24 24t-53 39.5t-53 58.5
t-24 81q0 26 20.5 56.5t51.5 60t69 56.5t73 47.5t62.5 33t37.5 12.5h2q8 0 17.5 -1t18.5 -5.5t18 -15t15 -28.5q1 -6 1 -12v-12q0 -41 -12.5 -85.5t-29.5 -88t-35 -84t-29 -73.5q11 -7 32 -34t41.5 -60.5t36 -67.5t15.5 -55zM342 639q-19 -11 -45.5 -22.5t-52.5 -25.5
t-49 -32.5t-36 -44.5q15 -11 29.5 -25.5t26.5 -25.5q6 -4 14.5 -9.5t16.5 -13.5q20 21 34.5 46t26.5 51t23.5 52t25.5 50h-14zM331 143q0 12 -7 26.5t-16.5 27t-18.5 21.5t-12 9q-2 -3 -11 -24.5t-19 -47.5t-18 -50.5t-8 -33.5q0 -8 5 -11.5t13 -3.5q14 0 30.5 8t30 20.5
t22.5 28t9 30.5z" />
    <glyph glyph-name="nine" unicode="9" horiz-adv-x="587" 
d="M514 64q-3 -37 -6.5 -73.5t-12 -71.5t-24.5 -69.5t-44 -68.5q-6 -16 -20.5 -31t-33.5 -29t-39 -26.5t-37 -22.5q-15 -7 -35.5 -14.5t-40 -14t-34 -10.5t-18.5 -4q-3 0 -21 -1t-38.5 -2.5t-38 -2.5t-20.5 -1t-19 3.5t-33.5 13.5t-32 28.5t-14.5 48.5q0 21 5.5 35.5
t13.5 23.5t17 13t16 5l12 -3q24 -39 55.5 -54.5t53.5 -15.5q35 0 71.5 12.5t69 33t59 46.5t40.5 53q10 20 19 50t15 60t9.5 56t3.5 37q0 17 -2.5 44.5t-7.5 56t-12 52t-16 32.5q-4 -6 -17 -21t-32 -34t-42.5 -40t-48 -38.5t-48.5 -28.5t-45 -11h-17q-23 0 -40.5 14.5
t-28.5 34t-16.5 39t-5.5 28.5q0 24 14 53t36 59t49 59t53 53t49 41.5t36 23.5q9 5 17.5 15t16.5 10q2 0 2.5 -0.5t1.5 -0.5h1q0 -2 4 -2q3 0 8.5 2.5t12 5.5t12 5.5t8.5 2.5t11 -3t17 -7t17 -7t12 -3q3 0 3 1t-0.5 1t-0.5 1t3 1q6 0 17 -6.5t19 -9.5q22 -11 27 -28.5
t5 -40.5v-25v-16.5t2 -17.5q9 -10 12 -31t4 -46.5t3 -53t9 -50.5v-118zM339 385q0 6 -5.5 8t-8.5 2q-22 0 -49 -20.5t-51.5 -49t-43 -58t-24.5 -47.5v-23h2q11 0 28.5 11t37.5 28t40.5 38.5t36.5 42.5t26.5 39t10.5 29z" />
    <glyph glyph-name="colon" unicode=":" horiz-adv-x="285" 
d="M217 355q0 -16 -5 -34.5t-15.5 -34.5t-26 -26.5t-36.5 -10.5q-35 0 -56 23.5t-21 52.5q0 23 9 47.5t29 37.5q7 5 20 14t19 9q14 0 28.5 -7t26.5 -18t20 -25t8 -28zM229 102q0 -16 -6.5 -35.5t-18.5 -37t-29 -29t-39 -11.5q-14 0 -28 6.5t-25 16t-18 20t-7 17.5q0 3 3 13
t7.5 23t9 27t7.5 24q14 8 27.5 13t13.5 16q1 -1 17.5 -6.5t35.5 -13.5t34.5 -19t15.5 -24z" />
    <glyph glyph-name="semicolon" unicode=";" horiz-adv-x="339" 
d="M279 325q0 -10 -9.5 -22.5t-22.5 -23.5t-26.5 -18.5t-20.5 -7.5q-18 0 -36 8t-31.5 20.5t-22 29t-8.5 33.5q0 6 4 12t6 12q1 11 1.5 23.5t7.5 20.5q9 3 20 6.5t22 6.5t20 5t13 2q23 0 39 -11t25.5 -27.5t14 -35t4.5 -33.5zM253 42q0 -5 -10.5 -28.5t-27 -55.5t-37 -68.5
t-40 -67.5t-35.5 -51t-25 -20q-16 0 -27.5 7.5t-19.5 18.5t-12 24.5t-4 25.5q0 6 11.5 21.5t25 36t25 45t11.5 48.5q0 8 -1 12q9 18 15.5 41t17 44t26 35t42.5 14q16 0 28 -8t20 -20.5t12.5 -27t4.5 -26.5z" />
    <glyph glyph-name="less" unicode="&#x3c;" horiz-adv-x="591" 
d="M85 239v128l421 175v-133l-272 -107v-2l272 -106v-132z" />
    <glyph glyph-name="equal" unicode="=" horiz-adv-x="652" 
d="M546 387q0 -19 -10.5 -29t-26.5 -15t-35.5 -6.5t-37 -3.5t-30.5 -6.5t-17 -15.5q-45 -3 -89.5 -11.5t-94.5 -22.5q-9 -2 -22.5 -7t-19.5 -5q-34 0 -57.5 16t-23.5 59q0 13 9 26t22 23.5t25.5 17t20.5 6.5q4 0 19.5 -1t33.5 -1.5t34 -1.5t19 -1q6 0 21 2t32 2q8 0 16 4.5
t15 4.5q6 0 12.5 -2t13.5 -2q22 0 39 5.5t30 12.5t22.5 12.5t17.5 5.5q15 0 26.5 -7.5t19.5 -18t12 -21.5t4 -19zM601 134q0 -3 -0.5 -9.5t-2.5 -13.5t-5 -13.5t-9 -9.5q-9 -4 -35.5 -11.5t-63 -17.5t-80 -20.5t-85 -19t-78 -14t-60.5 -5.5h-11q-9 0 -21 1t-22.5 5.5t-18 13
t-7.5 23.5q0 11 6 27t15.5 30.5t22.5 24.5t28 10q6 0 8 -2.5t10 -2.5q6 0 18 2t32 2h8q4 -1 14 -1q14 0 30 1.5t32 3.5q36 3 76.5 4t78.5 8q7 1 17.5 6.5t20.5 11.5t18 11t11 5q6 0 15 -4.5t17.5 -11.5t14.5 -16t6 -18z" />
    <glyph glyph-name="greater" unicode="&#x3e;" horiz-adv-x="591" 
d="M85 62v133l272 106v2l-272 107v132l421 -175v-128z" />
    <glyph glyph-name="question" unicode="?" horiz-adv-x="459" 
d="M427 552q-3 -27 -16 -53t-31.5 -50.5t-39.5 -46.5t-39 -42t-30.5 -37t-13.5 -31v-1q0 -4 5 -4q3 0 5.5 1t4.5 1q11 0 16.5 3t10 6.5t10.5 6.5t18 3q23 0 32 -11t9 -27v-7q-2 -20 -20.5 -37t-41.5 -30t-45 -20t-31 -7q-26 0 -44.5 8.5t-30 21.5t-16.5 29.5t-5 32.5
q0 3 0.5 6t0.5 6q4 36 31 68.5t59 66t59.5 71t32.5 84.5q0 2 0.5 5t0.5 6q0 14 -6 30t-23 16q-21 0 -35 -11t-24.5 -27.5t-19 -35.5t-17 -35.5t-19.5 -27.5t-26 -11q-23 0 -42.5 14t-19.5 41v6q3 32 25.5 69t55 68.5t70.5 52.5t74 21q32 0 54 -19t36 -47t20.5 -58.5
t6.5 -53.5q0 -4 -0.5 -7.5t-0.5 -6.5zM283 69q0 -3 -6.5 -18t-16 -31.5t-21.5 -30t-24 -13.5h-14q-9 0 -21 4t-23 12.5t-18.5 20t-7.5 26.5v6q1 13 8.5 28.5t19.5 29t28 22.5t36 9q18 0 30 -6.5t18.5 -15.5t9 -19.5t2.5 -18.5v-5z" />
    <glyph glyph-name="at" unicode="@" horiz-adv-x="1119" 
d="M1061 619q0 -95 -10 -185t-41.5 -159.5t-90 -111.5t-156.5 -42q-21 0 -39 6t-34.5 19t-33 34.5t-35.5 52.5q-15 -14 -40 -35.5t-53.5 -41t-57.5 -33.5t-52 -14q-29 0 -49.5 11.5t-34.5 29.5t-20.5 39.5t-6.5 41.5q0 5 8 21t21 37t28.5 44.5t30 44.5t26 36.5t16.5 20.5
q11 10 25.5 22.5t30.5 26.5l12.5 6.5t32 16.5t43 21.5t45.5 21t39.5 16t25.5 6.5q13 0 27.5 -5t27 -14.5t20.5 -23t8 -29.5q0 -17 -2.5 -23.5t-5.5 -9.5t-6.5 -5t-4.5 -9q-3 -17 -6 -40t-5 -44.5t-3 -37.5t-1 -20q0 -44 16.5 -62t36.5 -18q26 0 59.5 12.5t55.5 38.5
q23 27 36 58.5t19 66t7 71.5t1 74q0 67 -22.5 109.5t-57 67t-74.5 33.5t-76 9q-31 0 -60.5 -5t-54.5 -11.5t-44.5 -12.5t-30.5 -8q-29 -6 -49.5 -12.5t-37 -13.5t-31 -14.5t-29.5 -16.5q-51 -29 -92 -67.5t-72 -80.5t-50.5 -84.5t-27.5 -78.5q-3 -32 -6.5 -65t-3.5 -62
q0 -10 0.5 -19t1.5 -17q9 -61 21 -102.5t32.5 -66.5t52.5 -36t80 -11q41 0 76.5 7t68 18.5t63 26t62.5 29.5q5 -3 8 -10t3 -14q0 -15 -22 -34.5t-50.5 -38.5t-55.5 -33.5t-37 -18.5q-5 -2 -19.5 -5.5t-33.5 -6.5t-39.5 -5.5t-37.5 -2.5h-32q-54 0 -96 26.5t-71 67t-44 88.5
t-15 90q0 86 2.5 139t12.5 82q5 14 12 32.5t17 37.5q35 68 68 117.5t75 88t99.5 70.5t140.5 64q71 28 149.5 34.5t175.5 6.5q27 0 63.5 -11t70 -32.5t59.5 -54.5t34 -78q1 -3 3.5 -9.5t4.5 -14t4 -14t2 -10.5zM639 453q-26 0 -60.5 -21.5t-65.5 -53.5t-52 -68t-21 -66v-9
t2 -8q10 6 22.5 11t27 14t32 24t39.5 40q38 43 58 69t20 52q0 4 -0.5 7.5t-1.5 8.5z" />
    <glyph glyph-name="A" unicode="A" horiz-adv-x="633" 
d="M579 11q-1 -8 -8 -27.5t-18.5 -40t-25 -36.5t-28.5 -16q-20 0 -32.5 13.5t-20 34t-10 45t-3.5 46t-1 36.5t-1 17q-2 15 -3 26.5t-2 24.5t-3 28.5t-7 38.5q-27 -8 -57.5 -12t-61.5 -8.5t-59.5 -12t-51.5 -21.5q-13 -8 -21 -25t-15.5 -38t-15 -44t-18.5 -42t-26 -31
t-38 -12q-14 0 -26.5 8t-22.5 20t-15.5 25t-5.5 23v2q2 30 17.5 52.5t35.5 45t40 48.5t31 64q5 11 18 23t23 26q5 7 9.5 18.5t9 24t9.5 25.5t11 23q12 20 31.5 53t42 70.5t47 75.5t47 68.5t41 49.5t29.5 19q25 0 39.5 -9.5t22 -26t9 -40.5t1.5 -52q0 -25 -0.5 -44t-0.5 -38
q0 -25 2 -56t7 -82q0 -7 4 -10t10 -4t12.5 -2t11.5 -4q13 -10 17 -28t4 -28v-3q-1 -18 -8.5 -26t-16.5 -14t-17 -13.5t-9 -23.5q0 -3 2 -12t4.5 -21t6 -25t6.5 -24q2 -10 14 -21t18 -22q4 -9 7 -21t5 -23.5t3 -21t1 -13.5zM419 423q-5 40 -8.5 69t-10.5 59
q-12 -14 -23 -30.5t-22 -32.5q-4 -6 -13 -20.5t-21 -34t-24.5 -41t-23 -41t-17 -34t-6.5 -19.5q0 -8 6.5 -10t14.5 -2h10q3 0 5 1q9 1 29 7.5t41 14t37.5 13.5t18.5 8z" />
    <glyph glyph-name="B" unicode="B" horiz-adv-x="613" 
d="M564 193q-3 -45 -33 -86.5t-70.5 -73.5t-85 -51t-77.5 -19q-8 0 -6.5 2t-6.5 2q-6 0 -15.5 -5.5t-15.5 -5.5q-3 0 -18.5 6.5t-33 14t-32.5 14t-18 6.5q-6 0 -16 -8t-16 -8q-21 0 -36 7.5t-24.5 20t-14 29t-4.5 33.5v12q1 21 7 36.5t13 26.5t12.5 19.5t6.5 15.5l14 137
q0 3 0.5 6.5t0.5 8.5q0 15 -1.5 34t-3.5 38.5t-3.5 37.5t-1.5 30q0 4 0.5 7t0.5 5v6q0 14 -5.5 26.5t-5.5 19.5v1q2 27 11 38t22.5 18.5t28.5 16.5t29 32q15 24 43 40.5t60.5 27t65 15.5t56.5 5q35 0 60 -13.5t41 -34.5t23.5 -47t7.5 -51v-10q-2 -26 -10 -45t-19 -37
t-23.5 -37.5t-22.5 -46.5q34 -11 57 -34t36 -51.5t18.5 -58t5.5 -53.5q0 -5 -0.5 -9.5t-0.5 -9.5zM406 538q1 2 1 6v9q0 8 -1.5 18t-5 18.5t-10 14.5t-16.5 6q-47 0 -78.5 -13t-51 -34.5t-29 -48t-10.5 -53.5v-14q0 -15 2 -33t8 -24q7 3 16.5 7t19.5 7.5t18 6t12 2.5h2
q5 -2 8.5 -2h8.5q21 0 39.5 12t32.5 31t23 41t11 43zM450 219q0 29 -23 50.5t-74 21.5q-21 0 -38 -5.5t-30.5 -12t-23.5 -12t-18 -5.5h-24q-8 0 -15.5 7t-13.5 12q-6 -29 -7.5 -43t-1.5 -22v-9q0 -3 -1.5 -11.5t-1.5 -18.5q0 -11 3.5 -19t15.5 -8q4 0 5 -1.5t2 -4t2 -4
t5 -1.5q10 0 17 -9t14.5 -20t17 -20t23.5 -9q33 0 62 10.5t51.5 29t37 43t16.5 53.5v8z" />
    <glyph glyph-name="C" unicode="C" horiz-adv-x="515" 
d="M496 158q0 -3 -7 -10t-15.5 -15t-16 -15.5t-10.5 -11.5q-21 -30 -48 -54.5t-56 -42t-58 -27t-54 -9.5q-21 0 -45.5 4.5t-47.5 15t-43 27.5t-32 41q-4 8 -7.5 20t-6 24t-4 22t-1.5 13q2 30 8 67.5t15 77.5t20.5 79t23.5 72.5t24.5 58.5t22.5 36q19 20 40 42t45 40.5
t51 30.5t58 12q15 0 38 -8.5t44.5 -22.5t37.5 -33.5t16 -41.5v-4q-1 -18 -12 -34t-25.5 -28t-30.5 -18.5t-27 -6.5q-16 0 -27.5 6t-20 12.5t-14.5 12.5t-10 6q-28 0 -51 -19.5t-41 -49.5t-31 -66t-22 -69t-13.5 -58t-4.5 -34v-9q0 -45 21 -77t67 -32q30 0 52.5 9.5
t40.5 23.5t33 30t28.5 30t27.5 23.5t31 9.5q7 0 13.5 -7.5t11.5 -17t8.5 -17.5z" />
    <glyph glyph-name="D" unicode="D" horiz-adv-x="541" 
d="M516 419q0 -3 -2.5 -17t-6.5 -32.5t-7.5 -38.5t-6.5 -35q-10 -56 -47.5 -101.5t-86.5 -82t-101 -63.5t-91 -45q-3 0 -6.5 -3.5t-7.5 -8t-8 -8.5t-8 -5q-11 -2 -27 -5t-23 -3q-6 0 -13.5 5t-15.5 6q-17 6 -32 12.5t-26 15t-17.5 20.5t-6.5 30v7q2 9 8 20.5t6 22.5
q0 4 -2 10q5 1 11.5 6.5l13 11t12 10t9.5 4.5q6 0 10 -4t11 -4q14 0 22.5 15.5t13.5 35t6.5 37.5t1.5 22l-7 218q3 37 24.5 77t54.5 72.5t73 53.5t80 21q56 0 93 -29t59 -70t31 -86t9 -78v-14zM402 382q0 10 -1.5 28.5t-4 37t-6 34.5t-7.5 22t-11 13t-14.5 13.5t-14 11
t-9.5 4.5q-4 0 -4 -2t-4 -2q-8 0 -15.5 7.5t-14.5 7.5q-18 0 -31 -13.5t-22 -33.5t-15 -43.5t-9 -44.5t-4 -35.5t-1 -15.5q-2 -14 -7 -45.5t-10.5 -65t-10 -60.5t-4.5 -33q0 -3 3 -10.5t7.5 -14.5t9 -12.5t7.5 -5.5q30 0 62.5 24t59.5 57t45 66.5t18 51.5v3q-1 3 -1 9
q0 12 3.5 25t5.5 18v4z" />
    <glyph glyph-name="E" unicode="E" horiz-adv-x="527" 
d="M514 669q-1 -6 -3.5 -15t-5.5 -18t-7.5 -15.5t-9.5 -7.5q-41 -10 -67.5 -15.5t-44.5 -8.5t-31 -3.5t-27 -0.5h-23q-6 0 -20 -0.5t-25 -0.5q-3 -14 -2 -33t-5 -36q-3 -9 -7 -16.5t-8 -17.5t-7.5 -23.5t-5.5 -33.5v-3q0 -11 8.5 -14t10.5 -3q7 0 14 -2t14 -2q31 0 52 5.5
t35.5 14t25 18.5t20 18.5t20.5 14t27 5.5q13 0 24 -10t18.5 -23t11.5 -25.5t4 -17.5q-2 -13 -9 -25.5t-16 -23t-18 -17.5t-15 -9q-14 -5 -36 -7.5t-39 -8.5q-5 -2 -17 -8.5t-26.5 -13.5t-29.5 -12.5t-26 -5.5q-4 0 -5 0.5t-1 1t-1 1t-4 0.5q-6 0 -11.5 -4.5t-11.5 -6.5h-18
q-8 0 -16.5 -1t-17.5 -6q-5 -3 -8 -13t-4.5 -21t-2 -22t-0.5 -17q0 -4 -0.5 -10t-0.5 -13q0 -10 1.5 -21t6 -20.5t13 -15.5t22.5 -6q40 0 73 7t60.5 15.5t49.5 15.5t40 7q30 0 43 -10.5t13 -33.5q0 -4 1 -7.5t1 -8.5q0 -8 -6 -17.5t-29 -23.5q-26 -16 -54.5 -22t-57 -9.5
t-55.5 -8.5t-50 -20q-9 -2 -20.5 -3.5t-22 -3t-18.5 -2t-11 -0.5q-29 0 -52 13t-39 33.5t-24.5 46t-8.5 50.5v8q1 4 4 23.5t6 43t6 44.5t5 28q9 47 13.5 75.5t7.5 49.5t4 39t2 45q2 48 11.5 75t21 40.5t20.5 18.5t9 11v1q0 8 -6.5 15.5t-6.5 20.5v3q2 20 12 33t24.5 21
t31 11.5t31.5 3.5q3 0 17 -2t30 -5t30 -5t17 -2q26 0 39 1t23.5 2t23.5 2t39 1q23 0 40 -7.5t17 -36.5v-2z" />
    <glyph glyph-name="F" unicode="F" horiz-adv-x="552" 
d="M630 653q0 -20 -7 -32t-18 -18t-24 -7.5t-26 -1.5h-103q-10 0 -33.5 -6.5t-50 -14t-51.5 -14t-38 -6.5q-6 0 -6.5 1.5t-8.5 1.5t-15.5 -3.5t-14.5 -4.5q10 -16 10 -45q0 -30 -7 -61.5t-9 -49.5q8 -4 19.5 -8.5t19.5 -4.5q6 0 9 2t10 2q8 0 24 -5t24 -5q3 0 17.5 3.5
t31 7.5t31 7.5t18.5 3.5q13 0 23 -6.5t17.5 -15t11.5 -16.5t4 -12v-1q-1 -17 -9 -32.5t-20 -26.5t-26.5 -17.5t-28.5 -6.5q-3 0 -25.5 -0.5t-53.5 -1.5t-65 -2.5t-59 -2.5q-5 -9 -10 -22t-8.5 -25.5t-6 -22.5t-2.5 -13q0 -4 6 -13.5t12.5 -24t12.5 -34t6 -43.5v-12
q-1 -17 -14.5 -32.5t-31.5 -28t-36 -20t-27 -7.5q-17 0 -28.5 7.5t-18.5 19t-10.5 25.5t-3.5 26v6q0 5 6.5 27.5t14.5 57t16 79t12 94.5l7 100q3 38 4 64.5t6.5 46t18.5 34.5t40 29q-3 10 -5.5 21.5t-2.5 19.5v3q1 11 9.5 20t24.5 26q21 4 51.5 10t64.5 13t69 14.5t65 13
t52 9t30 3.5t18.5 -2.5t18.5 -5.5q23 -7 37 -10.5t21 -9t9 -15t2 -29.5z" />
    <glyph glyph-name="G" unicode="G" horiz-adv-x="584" 
d="M643 381q0 -6 -4.5 -23.5t-9.5 -29.5q-3 -7 -10.5 -11.5t-16.5 -7t-17.5 -4.5t-12.5 -3q-3 0 -8 -7t-12 -7q-3 0 -10 1t-14.5 2.5t-14 3t-9.5 1.5q-6 0 -19.5 -6.5t-23.5 -12.5q-2 -43 -22.5 -94.5t-54.5 -96.5t-78.5 -75t-94.5 -30q-36 0 -70.5 18.5t-61.5 48t-43.5 66
t-16.5 71.5v7q1 3 3.5 13t5 23t5 27t4.5 24q1 3 4.5 11.5t7 18.5t7.5 19.5t7 15.5q12 21 36 57t50 74t51 73.5t39 56.5q4 6 20.5 20.5t36 30.5t36 28t19.5 12q15 0 30 -5t27 -15t19.5 -24t7.5 -32v-6q-1 -7 -11.5 -20.5t-27 -31t-36 -36t-36.5 -35.5t-29.5 -30.5
t-15.5 -20.5q-11 -4 -26 -19.5t-18 -27.5q5 -1 10.5 -1.5t10.5 -0.5q12 0 23 1t16 1q3 0 13 2.5t21.5 5.5t21.5 5.5t13 2.5q4 0 13.5 -1t20.5 -1.5t21 -1.5t13 -1q27 0 48.5 7t38.5 16t29 16t19 7q9 0 22 -5.5t25 -15t20.5 -21.5t8.5 -24v-3zM340 238q0 13 -13 19t-32.5 9
t-42 7t-41.5 14q-11 6 -21 15t-17 11q-4 -4 -10.5 -15t-13.5 -24.5t-13 -28.5t-7 -26v-2q0 -14 6.5 -33t17.5 -35.5t27 -28t35 -11.5q16 0 37 13.5t40 33t32.5 41t15.5 38.5v3z" />
    <glyph glyph-name="H" unicode="H" horiz-adv-x="644" 
d="M605 379q-2 -25 -9 -35.5t-17.5 -15t-22 -6t-21.5 -8t-17.5 -22t-9.5 -47.5q0 -5 -0.5 -10t-0.5 -10q0 -30 6 -51t13 -38t13 -33t6 -35v-7q-1 -13 -11.5 -28.5t-25.5 -28.5t-31 -22t-27 -9q-15 0 -29 6.5t-24.5 17t-16.5 25t-6 29.5v6q0 4 3 19.5t6.5 33t7 33t3.5 19.5
q1 13 2 30t1 35q0 20 -1.5 37t-4.5 28q-46 -6 -103 -15.5t-111 -27.5q0 -5 -1.5 -17t-3.5 -24.5t-3.5 -23t-1.5 -13.5t4.5 -12t10.5 -19.5t10.5 -20t4.5 -13.5q0 -7 -4 -23.5t-13 -33.5t-24.5 -30t-39.5 -13q-32 0 -53.5 23t-21.5 53v5q1 21 6.5 50t10.5 60.5t9.5 63.5
t4.5 60q0 26 1 57t4 63t8.5 63t15.5 56q6 16 15 38.5t22 43.5t31 35.5t43 14.5q12 0 24 -5.5t21.5 -15t15.5 -21.5t6 -24v-1q-1 -4 -12.5 -32t-25 -62.5t-24.5 -68.5t-12 -50q0 -4 0.5 -6t0.5 -4q0 -3 -1 -4h10q19 0 41.5 1t43 2t34.5 2t17 1q6 0 20.5 3.5t22.5 9.5
q4 7 6 29.5t4.5 52t7.5 62t14.5 59.5t25.5 44.5t40 17.5q32 0 45.5 -14.5t13.5 -38.5q0 -2 -0.5 -5t-0.5 -6t-4 -25.5t-9.5 -49.5t-9.5 -50t-4 -27v-8q0 -11 6 -11t8 4t9 4q5 0 19 -7t25 -12q5 -2 8 -8t4.5 -13.5t2 -15t0.5 -13.5v-7z" />
    <glyph glyph-name="I" unicode="I" horiz-adv-x="299" 
d="M253 527q0 -3 -6 -32.5t-14 -69t-16 -81t-12 -67.5q-7 -49 -9.5 -74.5t-2.5 -31.5v-2q0 -20 9.5 -45.5t9.5 -54.5v-10q-1 -12 -11 -27t-24 -27.5t-28.5 -21t-24.5 -8.5q-3 0 -11 3.5t-17 8.5t-18 12t-14 15q-3 4 -6.5 16t-6 27t-4.5 29.5t-2 23.5q2 6 11.5 17.5
t11.5 19.5q14 97 21 169.5t10 118.5l7 106q1 12 9 25t20.5 24.5t26.5 18.5t27 7q19 0 31 -10t19.5 -24t10.5 -28.5t3 -23.5v-3z" />
    <glyph glyph-name="J" unicode="J" horiz-adv-x="504" 
d="M527 625q4 -13 4 -28q0 -29 -18.5 -44.5t-45 -24.5t-54.5 -14t-47 -11q20 -60 32 -115.5t30 -91.5l-9 -127q-3 -36 -31 -75.5t-67 -72t-82.5 -53.5t-76.5 -21q-14 0 -26.5 3.5t-26.5 8.5t-30.5 12t-38.5 14q-5 13 -9 21.5t-7 15t-4.5 12t-1.5 14.5v4q1 16 4 24t8 14
t10.5 13t11.5 21h10q21 0 35 -6.5t24.5 -15t17.5 -17.5t15 -14q5 -1 9 -1.5t8 -0.5q25 0 48.5 12t41.5 31t29.5 41.5t12.5 43.5q0 6 -1 22t-3 30q-8 8 -9.5 17.5t-2.5 13.5q-4 11 -12.5 30.5t-17.5 40t-16.5 38l-10.5 24.5q-5 14 -12.5 30t-14.5 31q-3 3 -12 3h-9
q-7 0 -23.5 -1.5t-23.5 -1.5q-29 0 -44.5 19t-15.5 41v7q0 5 -1 8t-1 7q0 8 10 19t45 31q4 3 18.5 5t32.5 4t37 4.5t33 5.5q3 1 9 1q8 0 16.5 -1t18.5 -1h15q11 0 24.5 -0.5t27.5 -0.5q9 0 18.5 0.5t19.5 1.5q3 1 9.5 5.5t16 9t22 8t26.5 3.5q7 0 25 -9t30 -17z" />
    <glyph glyph-name="K" unicode="K" horiz-adv-x="647" 
d="M609 472q-1 -11 -6.5 -22.5t-14 -20.5t-20 -15t-23.5 -6q-6 0 -13.5 2t-14.5 2q-11 0 -35 -11t-49 -25t-45.5 -28t-25.5 -20q6 -12 30.5 -38t59 -55t73 -56t73.5 -43q2 -16 2.5 -25t0.5 -15q0 -5 -0.5 -9t-0.5 -9q-1 -18 -10.5 -32t-22.5 -23.5t-27.5 -14.5t-26.5 -5
q-8 0 -24 3.5t-24 11.5q-7 7 -12 23t-12 27q-5 9 -18 21t-29 24.5t-33 24.5t-30 20q-6 3 -19.5 12.5t-28 19.5t-26 18t-13.5 8q-4 0 -14 -3.5t-21 -8.5t-20 -11t-9 -12v-12q0 -30 8 -44.5t8 -21.5v-2q0 -17 -2.5 -37.5t-12 -39t-27.5 -31t-50 -12.5q-21 0 -34.5 9.5
t-21 23.5t-10.5 29.5t-3 27.5q0 3 0.5 6t0.5 5t6.5 19.5t15 40t15.5 44.5t8 33q3 30 7 60t11.5 74.5t19.5 110.5t32 168q19 24 34.5 34.5t35.5 10.5q32 0 47 -15.5t15 -41.5q0 -2 -0.5 -4.5t-0.5 -5.5q0 -2 -4 -17t-9.5 -36t-12.5 -45.5t-12.5 -45.5t-9.5 -36t-4 -17l-1 -24
q-1 0 -1 -1t1 -1h5q4 0 26.5 12t54.5 29.5t69.5 38t71 38t59.5 29.5t34 12q28 0 44 -20.5t16 -48.5v-5z" />
    <glyph glyph-name="L" unicode="L" horiz-adv-x="488" 
d="M456 114q-1 -15 -10 -28.5t-21 -24t-26 -17t-25 -6.5q-6 0 -16 2t-18 2q-13 0 -36 -5.5t-51 -14t-57.5 -18.5t-55.5 -18.5t-47 -14t-30 -5.5t-17.5 12t-15.5 26.5t-11.5 28t-4.5 16.5q2 6 8.5 25t10.5 35q11 4 21 22.5t18.5 45.5t15.5 59t12.5 63.5t9.5 58.5t5 44
q8 17 8.5 41t2.5 42q4 32 17.5 67.5t25.5 72.5q7 1 16 4l18 6l16.5 5.5t10.5 2.5q18 0 30.5 -7t19.5 -18.5t10 -25t3 -25.5v-7q-1 -11 -6 -20.5t-11 -18t-11.5 -17.5t-8.5 -19q-4 -16 -12.5 -45t-18 -64.5t-20 -72t-18.5 -67t-13.5 -50.5t-5.5 -21q0 -2 -0.5 -3t-0.5 -3
q0 -5 1 -9.5t1 -9.5q3 -3 2.5 -4t7.5 -1q14 0 45.5 8.5t64 18.5t59.5 18.5t32 8.5q17 0 31 -7t24 -17.5t15.5 -23.5t5.5 -24v-3z" />
    <glyph glyph-name="M" unicode="M" horiz-adv-x="885" 
d="M821 465q0 -1 -3 -10.5t-6 -21t-6 -22t-3 -13.5q0 -2 -2.5 -22t-5 -48.5t-5 -61t-2.5 -59.5q0 -29 3 -45q1 -5 5.5 -18t9.5 -28t9 -30t4 -24v-1q0 -6 -9 -23t-21.5 -34.5t-28 -31.5t-29.5 -14t-30 10.5t-29.5 26.5t-22.5 34.5t-9 34.5v4q0 2 4 14.5t9.5 27t9.5 27t4 15.5
q0 6 -2 15t-3 15l5 55t6.5 67.5t6.5 67.5l5 55l-7 5q-24 -26 -50 -58t-52.5 -65t-54 -64.5t-53.5 -55.5t-51 -39t-47 -15q-13 0 -24 17t-19.5 38t-13.5 40t-6 23q-3 6 -6.5 23.5t-7 38.5t-7 41t-7.5 31q-25 -22 -44 -59t-35 -79.5t-31 -86t-32.5 -79t-40 -58t-52.5 -22.5
q-15 0 -26.5 9.5t-19.5 22.5t-12.5 27t-4.5 23v1q0 10 9.5 25.5t21 31.5t22.5 30.5t15 23.5q24 23 44.5 61.5t38.5 80t33 78.5t27 57q22 24 35.5 48t26.5 43.5t28 31.5t39 12q16 0 27.5 -7.5t19 -19t11.5 -26.5t4 -30q0 -18 -4 -31q3 -6 7.5 -33.5t11 -58.5t15 -56t18.5 -25
q8 0 21 12.5t28 31.5t31 41.5t30.5 43.5t25.5 36t17 20q21 17 36.5 36.5t31 37.5t33 32.5t43.5 21.5q10 3 27 3q7 0 13 -0.5t9 -0.5q9 0 18 -9t16.5 -20.5t12.5 -23.5t5 -18v-1z" />
    <glyph glyph-name="N" unicode="N" horiz-adv-x="771" 
d="M776 537q-1 -21 -11.5 -33.5t-23 -20.5t-23.5 -13.5t-13 -12.5q-8 -17 -14.5 -49.5t-12 -69.5t-10.5 -73t-9 -60q-4 -20 -4 -45t-4 -48q-6 -20 -15 -41.5t-23 -41.5q-6 -9 -19.5 -24t-27.5 -28.5t-26 -23.5t-15 -10h-51q-30 0 -52 8.5t-38.5 25t-29.5 40t-26 54.5
q-2 6 -6 19t-7.5 28t-7 29.5t-5.5 23.5q-3 14 -5.5 40.5t-7 54.5t-12 53t-19.5 37q-15 -31 -28 -71.5t-26.5 -80t-27 -73t-28.5 -51.5q0 -11 -6 -27t-17 -31t-28 -26t-40 -11h-17q-7 0 -15.5 10t-16.5 22.5t-13.5 23t-5.5 12.5q1 21 13.5 42.5t27.5 41.5t28.5 37.5
t17.5 30.5q13 16 27.5 46t29 67t28.5 77t26.5 75.5t22.5 62.5t17 39q3 4 11.5 9t19 9.5t21 7.5t15.5 3q20 0 33.5 -10.5t22 -27t13 -36.5t7 -38.5t4 -33t4.5 -20.5q2 -5 7 -32.5t12 -65.5t16 -81t19.5 -79t23 -60t25.5 -24q15 0 29.5 27.5t27.5 69t24 90t18.5 91t12 71.5
t4.5 32v1q0 4 -1.5 13.5t-3.5 21t-3.5 22.5t-1.5 18v2q1 12 7 28.5t18 31t29.5 25t40.5 10.5q13 0 29.5 -13t31 -30.5t24 -36t9.5 -29.5v-1z" />
    <glyph glyph-name="O" unicode="O" horiz-adv-x="566" 
d="M536 533q-2 -29 -9 -69t-17 -84.5t-21.5 -90t-23 -84.5t-22 -68t-17.5 -40q-8 -14 -25 -36t-61 -51q-12 -8 -27.5 -14t-32 -10.5t-32.5 -6.5t-29 -2q-31 0 -53.5 13t-38 33.5t-25 45t-15.5 47t-10 40.5t-8 25q3 6 5.5 9.5t2.5 9.5v2q0 5 -3 12t-3 13q3 7 3 15
q0 2 -0.5 3.5t-0.5 3.5q-3 4 -3 17q0 14 3 36t8 46.5t10.5 49.5t11.5 46t10.5 35t6.5 16q10 10 29 26.5t28 38.5q11 26 28 42t31 16q3 0 11 1t17.5 2t17.5 2t11 1q12 0 24 3.5t29 8t40.5 8.5t58.5 4q21 0 37.5 -11.5t28.5 -28t18.5 -35.5t6.5 -35v-5zM421 498q-5 7 -13.5 14
t-17.5 11.5t-17 7.5t-12 3q-49 0 -82 -30.5t-53 -76.5t-28.5 -100.5t-8.5 -102.5q0 -4 2.5 -22.5t8.5 -39t16.5 -37t27.5 -16.5q25 0 48 22t42.5 57.5t35.5 79t27.5 87t17.5 81.5t6 62z" />
    <glyph glyph-name="P" unicode="P" horiz-adv-x="580" 
d="M546 538q-4 -47 -31.5 -82t-67 -62.5t-85 -51t-85 -46.5t-66 -48.5t-29.5 -58.5v-4q0 -14 6 -24t13.5 -20t13.5 -23t6 -33v-7q0 -8 -10 -24.5t-24 -33t-30.5 -29t-31.5 -12.5t-29 7.5t-25 20t-18 28t-7 32.5v5q0 3 2.5 9.5t5.5 14.5t5.5 16t2.5 14q0 9 -5 10l16 245
q7 12 11 27.5t9.5 31t12.5 28.5t20 20q5 2 17.5 3t20.5 12q3 21 16.5 41t17.5 42q36 21 63 40.5t51.5 34.5t50 23.5t58.5 8.5q31 0 54.5 -16t39 -39t23.5 -48.5t8 -44.5v-7zM406 527q0 11 -8.5 22t-22.5 11q-8 0 -25 -11.5t-39 -27.5t-45.5 -33t-44.5 -27l-1 -19q7 -6 7 -17
q0 -8 -3 -16t-7 -16h23q2 1 15.5 8.5t31.5 18.5t38.5 24.5t38 28t29.5 28t13 24.5v2z" />
    <glyph glyph-name="Q" unicode="Q" horiz-adv-x="637" 
d="M625 44q0 -34 -25 -59t-71 -25q-55 0 -89 4t-59.5 8.5t-50.5 8.5t-62 4q-8 0 -21.5 -2t-19.5 -2t-13 5.5t-13 5.5q-3 0 -19 -1.5t-34 -4t-33.5 -4t-19.5 -1.5q-14 0 -28 7t-24.5 18.5t-17 26.5t-6.5 32v2q1 6 8 13t16 13.5t17.5 11.5t12.5 7q-3 28 -3 54q0 46 7 85.5
t17 72.5t21.5 59.5t20.5 47.5q19 43 50 87.5t70.5 81t85 59.5t93.5 23q16 0 30 -7t24.5 -17.5t17 -22.5t8.5 -21q0 -4 2.5 -14l4.5 -18q5 -32 8.5 -54t5 -40t2 -35t0.5 -39q0 -46 -8.5 -89t-23 -82t-33 -73.5t-38.5 -63.5v-10q10 -3 23 -4.5t27 -1.5q23 0 54 8.5t52 16.5
q12 -11 23 -28t11 -43zM433 438q0 5 -1 23.5t-4.5 39t-10.5 36.5t-18 16q-56 0 -95 -45t-72 -119q-3 -7 -9 -23.5t-12.5 -34.5t-12 -34.5t-6.5 -23.5q-8 -31 -11 -56t-3 -31q0 -21 8.5 -34t23.5 -20t35 -9.5t43 -2.5q25 0 45.5 18t36.5 46.5t28 64t19.5 71t11.5 67t4 51.5z
" />
    <glyph glyph-name="R" unicode="R" horiz-adv-x="673" 
d="M654 83q-1 -20 -9.5 -38.5t-22 -32.5t-31 -22.5t-35.5 -8.5q-7 0 -31 13.5t-57 33.5t-70.5 43.5t-71.5 43.5t-61 33.5t-39 13.5h-25q-3 -3 -2.5 -5.5t-1.5 -8.5q0 -3 2.5 -12.5t5 -21t5 -22.5t2.5 -17v-3q0 -3 -7 -14t-18 -26t-23.5 -31.5t-24.5 -29.5q-3 -4 -17 -6
t-21 -2q-15 0 -27 8.5t-21 21.5t-14 26.5t-5 24.5v1q2 5 7 21t8 27q1 2 1 7q0 4 -0.5 8t-0.5 9q0 9 4 16q13 27 17.5 44t6 31.5t1.5 28.5t5 35q6 27 11.5 68.5t15 84t24.5 79t39 53.5h2q9 0 27.5 11.5t42.5 29.5t52.5 38t57.5 38t57.5 29.5t52.5 11.5q28 0 48.5 -13
t33 -32.5t18.5 -43.5t6 -45v-10q-3 -41 -28 -82.5t-60 -80.5t-74 -74t-69 -62q5 -4 12 -10t14.5 -11.5t14 -9.5t9.5 -4q4 0 4 2t4 2q8 0 10 -7t5 -10q8 -6 17.5 -7.5t15.5 -4.5q3 -4 8 -12t11 -11q7 -5 17 -10.5t20 -10t18.5 -7.5t12.5 -3t13 3.5t17 3.5q16 0 32 -6.5
t29 -17.5t21.5 -25t8.5 -30v-3zM447 554q0 9 -4.5 21t-19.5 12q-11 0 -25.5 -10.5t-28 -23.5t-23.5 -23.5t-12 -10.5h-3q-18 0 -39 -24t-39 -55t-30 -61t-12 -43v-15h43q21 15 53.5 42.5t63 60.5t53 66t23.5 59v5z" />
    <glyph glyph-name="S" unicode="S" horiz-adv-x="440" 
d="M423 639q0 -10 -6.5 -21t-17.5 -13q-18 -3 -39 -7t-47 -21q-17 -11 -34 -25t-31 -30.5t-23 -35t-9 -38.5q0 -23 12.5 -45t31.5 -44t40.5 -45t40.5 -48t31.5 -51.5t12.5 -55.5q0 -47 -22 -80.5t-58 -56t-82.5 -34.5t-94.5 -17q-5 0 -12.5 -6.5t-13.5 -6.5t-11 5.5t-9 7.5
q-18 6 -29 15t-17 20t-7.5 23t-1.5 23q0 9 5.5 19t14 18.5t18 14t17.5 5.5q22 0 29 -3.5t10.5 -7.5t8.5 -7.5t22 -3.5q18 0 37 5t35 14t26.5 22.5t10.5 30.5q0 20 -17.5 44t-40 47.5t-44 42.5t-30.5 29q-5 6 -9.5 10.5t-8.5 11t-8.5 16.5t-10.5 25q-2 6 -3 15t-1.5 18
t-0.5 16v9q0 34 24 80t61.5 87.5t84.5 70.5t93 29q32 0 52.5 -20.5t20.5 -50.5z" />
    <glyph glyph-name="T" unicode="T" horiz-adv-x="571" 
d="M591 611q-3 -20 -22 -36t-43 -26.5t-48 -16t-38 -5.5q-3 0 -9.5 0.5t-14 1.5t-14.5 1.5t-11 0.5q-11 0 -30 -5t-26 -23q-3 -11 -4 -24.5t-6 -28.5q-1 -8 -8.5 -19.5t-7.5 -18.5q-2 -6 -4 -32.5t-5.5 -61.5t-8.5 -72.5t-12 -64.5q3 -6 5.5 -21.5t4.5 -34.5t3.5 -37.5
t1.5 -30.5q0 -10 -1 -12q-2 -10 -10.5 -22.5t-19.5 -23t-23 -17.5t-19 -7q-19 0 -33.5 8.5t-25 22t-16 29.5t-5.5 32q0 10 1 15q0 6 4 12.5t8.5 16t9 23t6.5 33.5l25 327q-3 1 -6 1.5t-8 0.5q-13 0 -29.5 -4t-32.5 -8.5t-27.5 -8t-14.5 -3.5q-6 0 -12.5 -8t-12.5 -8
q-8 0 -20.5 5t-24.5 14t-20.5 21t-8.5 27v5q1 13 21.5 25.5t50 24.5t64 22t64 17.5t49.5 11.5t21 4q27 3 57.5 6t61.5 6.5t60 7.5t55 10q7 0 11 4t10 8t14.5 7.5t24.5 3.5q26 0 38.5 -14t12.5 -40q0 -5 -0.5 -10.5t-1.5 -10.5z" />
    <glyph glyph-name="U" unicode="U" horiz-adv-x="553" 
d="M542 561q0 -7 -3.5 -23t-9 -36t-11 -42t-11 -40.5t-9 -31t-3.5 -13.5q1 -3 1 -11q0 -21 -8 -57.5t-23 -79.5t-37.5 -87t-51 -80t-63.5 -58.5t-76 -22.5q-56 0 -89.5 27t-51.5 68t-24.5 89t-7.5 90q1 1 3.5 26.5t5.5 64t5.5 85t4.5 90.5q3 18 10 37.5t19 35.5t29 26.5
t40 10.5q7 0 17 -4.5t19 -12.5t15.5 -18.5t6.5 -22.5v-3q0 -1 -3.5 -21t-8.5 -51.5t-11.5 -69t-12 -73t-9.5 -65.5t-5 -45q0 -3 -0.5 -7t-0.5 -9q0 -16 2 -36.5t7.5 -38.5t15 -30.5t24.5 -12.5q34 0 61 32t45 74t28 82.5t12 58.5q0 4 0.5 9t0.5 11q0 17 -1 41.5t-2 49.5
t-2 47t-1 36v10q1 17 7.5 39.5t18 42.5t27 34t35.5 14q22 0 34.5 -13t18.5 -29.5t7 -32t1 -20.5v-3q0 -8 7.5 -16t7.5 -13v-2z" />
    <glyph glyph-name="V" unicode="V" horiz-adv-x="584" 
d="M610 546q-2 -30 -9.5 -43t-21.5 -21.5t-35.5 -19t-52.5 -35.5q-2 -2 -8 -25t-13.5 -51.5t-14 -53.5t-9.5 -29q-5 -8 -15.5 -23t-21.5 -29q-1 -1 -1 -6v-7q0 -4 -3 -7q-18 -23 -31 -43t-23.5 -39.5t-21.5 -39t-26 -41.5q-5 -9 -14 -21.5t-21 -23.5t-26 -18.5t-30 -7.5
q-15 0 -30.5 23t-31 60.5t-30.5 86t-28.5 100t-25 101.5t-19.5 91.5t-12.5 70t-4.5 35.5v1q1 24 12 39.5t27 25t34.5 13.5t35.5 4q14 0 22.5 -14t13 -33.5t5.5 -41.5t1 -37v-21q3 -21 5 -60t7 -82.5t14.5 -85.5t27.5 -69q7 8 23.5 34t37 61t42 76t40.5 79t33 68.5t17 46.5
q2 8 11 24.5t21.5 33t27 28.5t26.5 12q6 0 24.5 -2.5t33.5 -5.5q8 -20 15 -29t12 -14.5t8 -10.5t3 -16v-8z" />
    <glyph glyph-name="W" unicode="W" horiz-adv-x="773" 
d="M808 601q0 -3 0.5 -6t0.5 -6q0 -39 -27 -94q-4 -8 -14 -14t-13 -16q-11 -28 -25.5 -70t-29.5 -85.5t-29 -83t-23 -61.5q-16 -38 -32.5 -72.5t-36.5 -60t-46.5 -40.5t-62.5 -15q-21 0 -43 15t-40 37t-31.5 47t-18.5 45q-1 11 -2 35t-2 51t-3.5 51.5t-6.5 35.5
q-5 -6 -15.5 -28.5t-22.5 -48t-22.5 -47.5t-14.5 -27l7 -8q-11 -15 -21.5 -36.5t-25 -41t-34 -33t-48.5 -13.5q-22 0 -35.5 19.5t-20.5 45.5t-9.5 51t-2.5 36v4l25 366q1 9 6.5 24t15 30t23.5 26t32 11q9 0 19.5 -5t19.5 -12.5t15.5 -15.5t6.5 -15v-11q0 -27 -3.5 -60
t-7.5 -67t-7.5 -66.5t-3.5 -56.5q0 -8 0.5 -15t1.5 -13q5 3 18.5 29.5t28.5 58.5t29 61.5t20 39.5q5 9 13 20t17.5 21.5t20 17.5t21.5 7q19 0 39 -6.5t35 -27.5q6 -8 7.5 -19t1.5 -22v-21q5 -5 7 -18.5t2 -31.5q0 -21 -2 -47t-5 -49.5t-5.5 -42.5t-3.5 -27q4 -11 4 -22.5
t1 -23t7 -23t22 -21.5q15 12 24.5 24t17 25t14.5 27t16 30q1 1 8 15.5t17 36.5t22 49t22 52.5t16.5 46t7.5 30.5q0 3 -3 15t-6.5 25.5t-6.5 25.5t-3 15q0 6 4 19.5t4 24.5v2q16 15 27.5 24.5t21.5 14.5t20 7t23 2q11 0 22.5 -6t22 -14t20 -16.5t18.5 -13.5z" />
    <glyph glyph-name="X" unicode="X" horiz-adv-x="644" 
d="M637 100q0 -32 -23 -54t-53 -22q-21 0 -46 21t-51 52t-51.5 68t-47.5 68t-39.5 52t-26.5 21q-12 0 -29 -16.5t-35 -42t-36 -56.5t-32 -59t-22.5 -50t-8.5 -30q0 -26 10 -44.5t21 -37.5q-11 -28 -41.5 -45t-59.5 -17q-7 0 -16 5.5t-16.5 14.5t-12.5 19.5t-5 20.5
q0 34 14.5 77t36 87.5t46.5 87t47.5 76.5t38 56t17.5 26q-21 15 -47.5 46t-49.5 67.5t-39 74t-16 66.5v5q0 5 8 14.5t18 18.5t19 15.5t12 6.5q25 0 39.5 -13t24.5 -32.5t17.5 -44t19 -47.5t29 -42t46.5 -28q22 24 40.5 54.5t37 58t37.5 46t43 18.5q20 0 36.5 -10.5
t16.5 -34.5v-3q-1 -11 -10.5 -29.5t-24 -41t-31 -45t-30 -41.5t-23 -31t-9.5 -13q0 -2 9 -18t23 -39.5t31 -51t34 -52t31 -42.5t23 -23q14 -8 32 -12t34.5 -11.5t28 -21.5t11.5 -42z" />
    <glyph glyph-name="Y" unicode="Y" horiz-adv-x="529" 
d="M548 613q-3 -24 -10.5 -37t-18 -23.5t-24 -23.5t-29.5 -38q-2 -3 -7.5 -8.5l-12.5 -12.5t-14.5 -15t-12.5 -15q-21 -26 -29.5 -44t-10.5 -33t-1.5 -28t-3.5 -28q-5 -10 -11.5 -20.5t-17.5 -18.5q-32 -33 -47.5 -62.5t-23.5 -59.5t-12 -62.5t-13 -69.5q-5 -8 -17.5 -16.5
t-16.5 -11.5q-20 -13 -27 -16t-15 -3h-15q-26 0 -45 14t-19 38q0 2 0.5 4t0.5 4q4 31 22.5 66.5t40 73.5t39 76.5t19.5 74.5q-14 12 -30.5 31.5t-34 39t-36.5 36.5t-39 25q-6 2 -13.5 9t-15.5 16.5t-16.5 20t-15.5 19.5q0 14 -3.5 30.5t-3.5 22.5q1 7 6 17.5t12.5 20
t18 16.5t23.5 7q3 0 10.5 -0.5t15.5 -2.5t16 -5t11 -8q13 -20 31.5 -38.5t40.5 -38t46.5 -40.5t48.5 -45q1 1 13 19t30 43.5t40 55t44 54.5t42 41.5t34 16.5q30 0 44.5 -11.5t14.5 -37.5q0 -5 -0.5 -9.5t-1.5 -9.5z" />
    <glyph glyph-name="Z" unicode="Z" horiz-adv-x="754" 
d="M739 117q0 -48 -31.5 -73t-74.5 -25q-15 0 -35 7t-44 15.5t-52.5 15.5t-59.5 7q-68 0 -124.5 -17t-100.5 -37t-75 -37t-47 -17q-17 0 -29 10.5t-20 25t-12 30t-4 26.5q0 15 7.5 25t17.5 18.5t20 16.5t15 17q5 10 21 39.5t36.5 69.5t43 84.5t41.5 85t31 71.5t12 43
q0 11 -6.5 20.5t-23.5 9.5q-9 0 -33.5 -10t-51.5 -21.5t-49 -21.5t-25 -10q-17 0 -27 10.5t-15 25t-7 28.5t-2 21q0 17 20 32.5t50.5 29t67.5 24.5t71.5 18.5t61.5 11.5t38 4q38 0 64.5 -24t26.5 -67q0 -25 -12.5 -60.5t-32.5 -76.5t-44.5 -85t-48.5 -84.5t-44.5 -75.5
t-32.5 -59q3 -3 5.5 -6.5t9.5 -3.5q6 0 26.5 6t36.5 9q38 8 77 11.5t75 3.5q22 0 43.5 -2t43.5 -2q18 0 38 3q7 0 18 2t21.5 4t19.5 4t13 2q17 0 33.5 -7t29.5 -17.5t21 -23.5t8 -24z" />
    <glyph glyph-name="bracketleft" unicode="[" horiz-adv-x="455" 
d="M418 49q0 -18 -9.5 -28t-34.5 -27q-32 -22 -68 -31.5t-87 -9.5q-35 0 -58.5 12.5t-39.5 32t-25 43.5t-14.5 48t-9.5 45.5t-9 34.5v80q0 10 2 29t4 40t4 41t2 33q0 20 -0.5 50.5t-1 60t-1 51.5t-0.5 25q0 16 4 33.5t5 34.5q2 2 2 7q0 6 -2 7q21 21 32.5 41.5t22 36.5
t24.5 25.5t41 9.5q3 0 11.5 -0.5t17.5 -1t17.5 -1t11.5 -0.5q10 0 16.5 5.5t15.5 11.5t22 11.5t37 5.5q12 0 23 -11.5t19.5 -26t14 -27.5t5.5 -17q-5 -3 -12.5 -12.5t-17 -19.5t-20.5 -17.5t-23 -7.5q-6 0 -7 1.5t-7 1.5q-4 0 -12 1t-18 1q-6 0 -12 -1t-11 -3
q-11 -4 -28 -18t-25 -29q-6 -13 -8 -29.5t-3 -34t-2.5 -35t-5.5 -31.5q-6 -47 -10.5 -86t-12.5 -88v-18t-1 -14t-2 -22.5t-2 -42.5q9 -27 11.5 -57t10 -55t24.5 -41.5t54 -16.5q26 0 37.5 8.5t18 19t11.5 19t18 8.5q10 0 21 -5t20 -13.5t14.5 -18t5.5 -18.5z" />
    <glyph glyph-name="backslash" unicode="\" horiz-adv-x="402" 
d="M433 90q8 -17 13 -35t5 -35q0 -26 -12.5 -47.5t-40.5 -35.5q-6 -3 -12 -3q-15 0 -31 13t-29 29t-22 30.5t-11 17.5q-15 33 -38 102t-50.5 152.5t-57.5 168.5t-59 150q-2 3 -15 21.5t-28 40t-27.5 39t-13.5 19.5q-7 17 -7 30q0 27 16 52t39 36q14 7 27 7q14 0 26 -7
t21 -17.5t15.5 -22.5t11.5 -21q22 -48 38.5 -105.5t31.5 -117t32 -118.5t41 -111q2 -11 7 -30.5t10.5 -39.5t10.5 -36.5t6 -19.5q7 -14 21 -22t29 -15.5t29 -17t22 -25.5q2 -4 1.5 -13t0.5 -13z" />
    <glyph glyph-name="bracketright" unicode="]" horiz-adv-x="451" 
d="M396 64q-4 -22 -20.5 -42t-29.5 -30q-4 -3 -20.5 -6t-39 -6t-49 -5.5t-51 -5t-44 -3.5t-28.5 -1h-12q-8 0 -16 0.5t-15 2.5q-6 2 -12 12.5t-10.5 23.5t-7 24t-2.5 14q2 11 9 20.5t16.5 17t21 11.5t21.5 4q3 0 11.5 -2t18 -4.5t18 -4.5t11.5 -2q51 0 71 16t25 46l-5 234
q3 21 3 56q0 31 -2.5 66.5t-7 66t-10 51t-12.5 20.5q-9 -1 -22 -4.5t-26 -7.5t-23.5 -7t-13.5 -3q-26 0 -46 16.5t-20 39.5q0 2 0.5 4t0.5 4q2 11 16 24.5t34.5 27t44.5 27t46.5 23.5t40.5 16.5t26 6.5q10 0 26 -11.5t30.5 -28.5t25 -36t10.5 -35q0 -9 -5 -17q3 -13 6 -34.5
t3 -44.5q0 -14 -1.5 -27t-5.5 -23q1 -3 1 -11q0 -11 -1.5 -25.5t-3.5 -27.5q-2 -21 -3 -42.5t-1 -59.5q0 -27 0.5 -65t0.5 -95q0 -13 1.5 -27t1.5 -29v-9q0 -12 4 -22.5t9 -20t9 -19t4 -21.5q0 -6 -1 -10z" />
    <glyph glyph-name="asciicircum" unicode="^" horiz-adv-x="591" 
d="M411 298l-118 271h-3l-111 -271h-161l209 414h128l217 -414h-161z" />
    <glyph glyph-name="underscore" unicode="_" 
d="M500 -152v-84h-500v84h500z" />
    <glyph glyph-name="grave" unicode="`" 
d="M319 521q4 -5 4 -11q0 -16 -25 -16q-15 0 -34.5 7.5t-54.5 36.5q0 10 -9 14t-15 11q-20 23 -34.5 37.5t-23.5 28t-13.5 30.5t-4.5 45v10q20 6 35.5 15t31.5 9q15 0 26.5 -10.5t21 -25.5t17.5 -32t15 -30q23 -41 36 -69.5t27 -49.5z" />
    <glyph glyph-name="a" unicode="a" horiz-adv-x="676" 
d="M728 110q0 -13 -12 -26.5t-31 -26.5t-41 -24.5t-42 -20t-34.5 -13.5t-18.5 -5h-35q-7 0 -20.5 7t-27.5 16.5t-26 21t-17 20.5q-14 25 -22 41.5t-13.5 29t-9.5 22.5t-8 22q-27 -36 -60 -76t-67.5 -73.5t-69 -55.5t-63.5 -22q-13 0 -30 3.5t-32.5 12t-26 22.5t-10.5 36
q0 8 6.5 25.5t17 38.5t23 43.5t24 42t21 33.5t12.5 17q60 61 105 108t81.5 79t67.5 49t63 17q17 0 34 -8t30.5 -21t22 -30.5t8.5 -35.5q0 -8 -6 -32l-13 -52l-13 -52t-6 -31q0 -43 21 -74.5t69 -31.5q20 0 35.5 4.5t28 11.5t22.5 14t20 12q7 4 14 4q8 0 13.5 -5t9 -12t5 -14
t1.5 -11zM350 311q-12 0 -30 -12t-38 -31t-40 -43t-36.5 -48.5t-28 -47t-14.5 -38.5q10 6 20 11.5t22 15.5t27.5 25t37.5 40q41 47 60.5 76.5t19.5 46.5v5z" />
    <glyph glyph-name="b" unicode="b" horiz-adv-x="474" 
d="M437 322v-29t-1.5 -17.5t-4.5 -15t-9 -21.5q-17 -40 -50 -76t-71 -67t-75 -57t-62 -47q-4 -3 -12.5 -6.5t-18 -6t-18 -4.5t-11.5 -2q-15 0 -29.5 6t-25.5 15.5t-18 22t-7 25.5q0 2 2.5 14.5t6.5 29.5t8 36.5t8 36t6.5 28.5t2.5 14q0 3 -4.5 10.5l-10.5 17.5t-10.5 22.5
t-4.5 25.5q0 14 9 28.5t20.5 28t22.5 26t16 23.5t10.5 40.5t11 68t11 82t9.5 82.5t6.5 69.5t2.5 43.5v87q0 13 5.5 25.5t14.5 22.5t21.5 16.5t27.5 6.5q26 0 41 -19.5t15 -37.5q0 -1 -2 -12.5t-5 -26t-6 -28.5t-5 -20q-15 -45 -26 -99t-22 -109q-2 -11 -7 -29l-10 -36
t-8.5 -32t-3.5 -17v-14l1 -2h1q1 0 1.5 0.5t2.5 0.5l10.5 3.5l24 8t27 8.5t19.5 4q27 0 57 -10t56 -29t43 -46.5t17 -62.5zM325 294q0 18 -7.5 34.5t-35.5 16.5q-26 0 -53.5 -17t-51 -42.5t-38.5 -54.5t-15 -53l2.5 -9.5t7.5 -20t12.5 -19.5t18.5 -9q15 0 42 21.5t53 50.5
t45.5 58t19.5 44z" />
    <glyph glyph-name="c" unicode="c" horiz-adv-x="392" 
d="M448 124q0 -19 -13.5 -37.5t-51.5 -44.5q-30 -20 -63.5 -35.5t-66.5 -26t-63.5 -16.5t-53.5 -6q-27 0 -46.5 9.5t-33 26t-20 37.5t-6.5 44q0 20 3 44t8 49.5t11.5 51t13.5 48.5q4 12 16.5 28.5t17.5 33.5q6 24 25 53t43.5 54t51.5 41.5t50 16.5q11 0 24 -4t24.5 -12.5
t19 -21t7.5 -30.5q0 -17 -15.5 -32.5t-39 -33t-51 -39.5t-51 -51t-39 -68t-15.5 -91q0 -20 9 -35.5t33 -15.5q57 0 122.5 24.5t134.5 62.5q2 1 4 1q4 0 6 -4t3 -8.5t1.5 -8.5z" />
    <glyph glyph-name="d" unicode="d" horiz-adv-x="589" 
d="M710 826q0 -10 -17.5 -49t-44 -96.5t-57.5 -126t-57.5 -137t-44 -130.5t-17.5 -105q0 -22 7.5 -35t16 -22.5t16 -18.5t7.5 -23q0 -13 -7 -32t-18 -37t-25.5 -30.5t-30.5 -12.5q-20 0 -34 15t-23 34t-13 37.5t-4 25.5q0 1 4 16l10 37.5t12.5 48.5t12.5 48.5l10 37.5t4 16
v22q-12 -6 -22 -7t-14 -8q-13 -18 -35 -46.5t-49.5 -60.5t-58.5 -65t-62 -59t-60 -42.5t-52 -16.5h-30q-10 0 -19.5 10.5t-16.5 23t-11.5 23.5l-4.5 11q0 14 9 29.5t20 27.5q25 27 47 60.5t45 66t50 61t63 46.5q24 12 38.5 25.5t29 25t33 19t51.5 7.5q6 0 21.5 -7t26.5 -9
q6 -7 10 -16t10 -19q22 52 43 110t41 116.5t39 116t37 109.5q2 7 9 14.5t15.5 13.5t16.5 10t12 4q7 0 17.5 -4t20.5 -11.5t16.5 -18t6.5 -23.5z" />
    <glyph glyph-name="e" unicode="e" horiz-adv-x="432" 
d="M416 398q0 -20 -13 -44.5t-33.5 -49t-46.5 -48t-51.5 -42.5t-49 -31.5t-38.5 -15.5q-3 0 -8 -7.5t-10 -17t-8.5 -20t-3.5 -17.5q0 -14 7 -24t17 -10q18 0 37.5 11.5t38 25t35 25t29.5 11.5q6 0 12.5 -5.5t12 -13t9 -15t3.5 -11.5q0 -14 -13 -30.5t-33.5 -34t-45 -34
t-47 -29t-39.5 -20.5t-23 -8q-31 0 -52 16.5t-34 40t-18.5 48.5t-5.5 42q0 14 2.5 25t6 20t6 18.5t2.5 20.5q0 8 -4.5 15t-9.5 14.5t-9.5 17.5t-4.5 24q0 28 8 41t21 18t29 6.5t31 6.5t27.5 16.5t19.5 36.5l9.5 8.5t24 20.5t32 26.5t34 26.5t30 20t19.5 8q39 0 68.5 -21.5
t29.5 -60.5z" />
    <glyph glyph-name="f" unicode="f" horiz-adv-x="457" 
d="M557 827q0 -11 -4 -24.5t-12 -25.5t-20 -21t-28 -11q-4 5 -8.5 12.5t-12.5 14.5q-43 -17 -75.5 -45t-52.5 -73q-12 -27 -25.5 -57.5t-24 -59.5t-17.5 -54t-7 -41q0 -5 3 -8t7 -4.5t7.5 -2l3.5 -0.5q4 0 11 2t15 4.5t15 4.5t10 2q5 0 7.5 -1t10.5 -1q3 0 13 2.5t21.5 6
t21.5 6t13 2.5q18 0 30.5 -9.5t20 -22.5t11 -26.5t3.5 -22.5t-5.5 -19t-13.5 -19t-17.5 -15t-16.5 -6h-23q-4 0 -6 3.5t-7.5 8t-16 8.5t-31.5 4q-19 0 -38 -0.5t-35.5 -3.5t-29.5 -9.5t-20 -17.5q-8 -12 -16 -46t-17 -82t-18 -106t-18 -119.5t-18.5 -122.5t-17.5 -114
q-3 -18 -10.5 -43.5t-21 -49t-33 -40.5t-46.5 -17q-6 0 -12 7.5t-16 12.5q-4 2 -9 3.5t-11 3.5q-3 6 -7.5 14t-8.5 16t-7 15t-3 11q0 15 7.5 33t18.5 32q11 10 22.5 17.5t28.5 18.5q5 20 16 63.5t24.5 98.5t28.5 115t27 113t19.5 93t7.5 54v15q-19 7 -29 7q-3 0 -12 -1
t-19 -2.5t-19 -2.5t-13 -1q-13 0 -26 2.5t-23.5 8.5t-17 17t-6.5 28q0 18 9.5 29t22.5 16t26 6.5t20 1.5q6 0 20.5 -2t21.5 -2q5 0 18 2t26.5 4.5t24 6t11.5 6.5q10 35 15.5 62l11 54t13.5 58t24 75q18 48 41.5 90t53.5 73t66.5 49t80.5 18q17 0 30.5 -8t22.5 -20t14 -26
t5 -26z" />
    <glyph glyph-name="g" unicode="g" horiz-adv-x="566" 
d="M515 345q0 -3 -1.5 -14t-3.5 -24.5t-4 -29t-2 -27.5q-2 -42 -1.5 -110.5t-7 -147.5t-26.5 -159t-59 -145t-105 -106t-165 -41q-21 0 -49 3t-58.5 9t-60.5 15.5t-53.5 22t-38 28t-14.5 34.5q0 8 1.5 21t6.5 27t13.5 27.5t22.5 22.5l6 -2q2 -2 5 -3.5t7 -5.5q7 -10 14 -23
t15 -20q46 -38 99.5 -57t110.5 -19q42 0 75.5 17.5t59.5 45.5t44.5 64t30.5 73.5t18 73.5t7 63v122q-3 14 -4.5 29.5t-3.5 30.5t-5.5 29t-10.5 24q-2 -2 -17 -15t-36.5 -30.5t-47.5 -37.5t-50.5 -37t-44.5 -28t-29 -11q-4 0 -4 2t-5 2q-2 0 -10.5 -2.5t-18.5 -6t-19.5 -6
t-12.5 -2.5q-14 0 -29 9.5t-27 23t-20 29t-8 26.5q0 64 20 112.5t51 83.5t67.5 58.5t70 38.5t58.5 23t32 12q20 12 46.5 18t50.5 6q11 0 26 -9.5t34 -16.5q21 -8 33 -17t18 -19t7.5 -20t1.5 -20v-14zM373 336q-5 0 -8.5 0.5t-8.5 0.5q-50 0 -92.5 -17t-74 -44t-50.5 -60
t-20 -64q1 -3 8.5 -4t16.5 -1q8 0 15 0.5t9 0.5q22 9 53 32t61 51t55 56.5t36 48.5z" />
    <glyph glyph-name="h" unicode="h" horiz-adv-x="575" 
d="M639 99q0 -18 -20.5 -37.5t-47 -36.5t-52 -28t-35.5 -11q-28 0 -49.5 17t-38.5 44t-30 59.5t-22.5 63t-17 55.5t-13.5 36h-11q-17 -13 -32 -33t-27.5 -40.5t-21.5 -37t-14 -22.5q-4 -5 -14 -18t-24 -30t-29.5 -36t-30.5 -35t-28 -26t-20 -10q-14 0 -26 11t-20.5 25.5
t-13 28t-4.5 19.5q0 3 3 13.5t7 23.5t8.5 26.5l7.5 22.5q22 61 45.5 120.5t45.5 113t41 100.5t33 84q2 5 8.5 21.5t16 38.5t20.5 46t23 44t24 33t22 13q37 0 60 -21t23 -58q0 -3 -17 -31t-43 -69t-55.5 -90.5t-55.5 -95.5t-43 -83t-17 -55q0 -2 0.5 -3t0.5 -2
q24 18 45.5 42.5t43.5 47t44.5 38.5t48.5 16q38 0 59 -21t33 -52t18 -67.5t13 -67.5t20 -52t38 -21q3 0 15 4t26 9.5t27.5 9.5t18.5 4q14 0 24 -11.5t10 -28.5z" />
    <glyph glyph-name="i" unicode="i" horiz-adv-x="374" 
d="M348 739q0 -10 -4.5 -22t-12 -22t-16.5 -17t-18 -7q-6 0 -24.5 2.5t-28.5 8.5q-8 3 -14.5 16.5t-14.5 24.5t-15.5 18.5t-14.5 15t-11 17t-4 26.5q0 29 21.5 52.5t58.5 23.5q21 0 30 -4.5t14.5 -14.5t12.5 -24.5t25 -34.5q3 -3 5.5 -11.5t5 -18t4 -18t1.5 -11.5zM440 178
q0 -18 -20 -43.5t-45.5 -50.5t-49.5 -44.5t-31 -25.5q-2 -2 -15 -10t-29.5 -17t-32.5 -16.5t-24 -7.5q-3 0 -10.5 0.5t-16.5 1t-16.5 1t-10.5 0.5q-4 0 -14 10.5t-20.5 24t-18.5 24.5t-8 13q-11 26 -13.5 54.5t-3.5 50.5v7q0 19 2.5 48.5t8 63t15 67t22.5 60.5t30 44t39 17
q8 0 17 -9t17 -20.5t13.5 -22.5t5.5 -15q0 -3 -7.5 -28.5t-17 -60t-17 -70.5t-7.5 -59q0 -7 2 -18.5t4 -23.5t4.5 -21.5t4.5 -10.5h7q19 0 40.5 7t41.5 18t38 24t31 25q4 4 13 10.5t19 12.5t18 10.5t11 4.5q8 0 16 -8.5t8 -16.5z" />
    <glyph glyph-name="j" unicode="j" horiz-adv-x="313" 
d="M227 753q0 -13 -3 -29.5t-10.5 -31.5t-21.5 -25.5t-35 -10.5q-16 0 -31 4t-27 13t-19 22.5t-7 32.5q0 6 5.5 22t14.5 33t21.5 30t26.5 13q6 0 6 -3.5t6 -3.5q4 0 5 0.5t1 1t1 1t4 0.5q11 0 22.5 -9.5t20.5 -21.5t14.5 -23.5t5.5 -14.5zM241 105q0 -56 -14 -124.5
t-45.5 -133.5t-81.5 -120.5t-123 -85.5q-6 -2 -14 -5t-16 -5t-15 -3.5t-10 -1.5t-11 -1t-17 -2.5t-16.5 -2.5t-10.5 -1q-28 0 -55 8.5t-48 26t-35 43.5t-16 62q-1 6 -5 9.5t-4 9.5q0 4 2 13t6.5 18t11.5 15.5t16 6.5q16 0 23.5 -8.5t12 -22t9 -28.5t13 -28.5t25 -22
t44.5 -8.5h23q49 0 89 26t70 66t49 87t26 89q0 3 3.5 8.5l7 11t6.5 10.5t3 8q0 83 -15.5 143.5t-34.5 102.5t-34.5 69t-15.5 44q0 11 4.5 26t14 28.5t24 23t34.5 9.5h7q9 0 24 -6t36 -32q9 -11 10.5 -22.5t1.5 -23.5v-6q0 -13 3 -23q7 -23 14 -53t12.5 -63t8.5 -67t3 -64z
" />
    <glyph glyph-name="k" unicode="k" horiz-adv-x="603" 
d="M705 45q0 -11 -6.5 -22t-16.5 -19.5t-22 -13.5t-23 -5q-25 0 -60 12t-74.5 29.5t-81.5 38t-81 38t-72 29.5t-56 12q-6 0 -9 -6t-5 -13q-2 -9 -2 -19q0 -13 3 -24.5t7 -20.5q4 -11 10 -19q0 -103 -73 -103q-13 0 -24.5 8t-20.5 19t-14.5 21.5t-5.5 16.5q0 27 3.5 38.5
t9.5 23.5t14.5 31.5t17.5 60.5q-11 4 -26 5.5t-29 6t-24 15t-10 31.5q0 19 14 39t44 20q6 0 16.5 -3.5t16.5 -3.5h6l14 107q-14 -7 -29 -7q-23 0 -39 13t-16 24t7.5 31t33.5 34q7 4 18 4.5t22.5 1.5t21.5 5t14 14q3 10 5 30.5t5 45t7.5 51.5t12.5 51q3 10 6.5 35t11 50
t22 44.5t40.5 19.5q14 0 26.5 -9t21.5 -21.5t14 -27t5 -25.5q0 -1 -6 -17t-15 -39.5t-19.5 -51.5t-19.5 -54.5t-15 -47.5t-6 -31q5 0 19 -4.5t32.5 -12.5t39 -20t37 -27.5t27.5 -34.5t11 -40q0 -27 -15 -48.5t-36.5 -37t-46.5 -26.5t-45 -18q7 -4 30.5 -15.5t56 -26.5
t69.5 -32t70 -31t58 -23t35 -9q20 0 33.5 4t21.5 10q14 -11 24 -29t10 -32zM338 349q0 7 -6 15t-16 15t-23.5 11.5t-28.5 4.5q-10 0 -15 -1l-25 -115q10 2 29 11t38 20t33 21t14 15v3z" />
    <glyph glyph-name="l" unicode="l" horiz-adv-x="397" 
d="M462 148q-24 -29 -59.5 -61t-75.5 -58.5t-81 -44t-75 -17.5t-59 14t-41 36.5t-24 50.5t-8 57q0 1 7.5 29t19 71t25 95t25 102t19 92.5t7.5 65.5q0 10 -1 14q4 10 7.5 34t11 48.5t21.5 43t40 18.5q21 0 37 -8.5t27 -21t16.5 -27t5.5 -27.5q0 -29 -14.5 -53.5t-25.5 -48.5
q-2 -28 -21.5 -79t-42 -111.5t-41 -123t-18.5 -113.5q0 -10 7.5 -18t16.5 -13.5t17 -8.5t10 -3h17q33 0 69 16t68.5 35.5t57 36t34.5 16.5q6 0 12 -3.5t9 -8.5v-26z" />
    <glyph glyph-name="m" unicode="m" horiz-adv-x="917" 
d="M978 133q-11 -14 -35 -38.5t-52.5 -48t-57.5 -40.5t-50 -17q-20 0 -35.5 13t-28 34.5t-21.5 48t-15 52.5t-9 50t-3 39v9l-5 8q-17 -16 -43.5 -49t-56.5 -66.5t-59.5 -58.5t-51.5 -25q-26 0 -41 15.5t-22.5 36.5t-10 42.5t-2.5 32.5q0 17 7.5 43t7.5 46q0 13 -13 13
q-14 0 -34.5 -23.5t-45.5 -58.5t-53 -75.5t-58.5 -75.5t-61.5 -58.5t-61 -23.5q-15 0 -28.5 7t-23 18t-15.5 24.5t-6 26.5t11 41.5t23.5 58.5t23.5 56t11 35v2q9 15 18 38t16.5 46.5t12 45.5t4.5 36v7q4 6 9.5 19.5t14.5 27t22 24t33 10.5q18 0 31 -11t21 -25.5t12 -29
t4 -21.5q0 -6 -10.5 -18t-13.5 -21q-4 -12 -13.5 -35t-21.5 -48.5t-23.5 -48.5t-20.5 -35q0 -6 5 -11q13 14 33.5 37.5t44.5 49.5t50.5 52.5t52 47.5t48.5 34.5t40 13.5q36 0 52 -16.5t21.5 -41t5.5 -54t3 -55.5q36 29 60.5 53.5t42 43.5t30 33.5t25.5 24t28.5 14.5t38.5 5
q2 0 11 -8t12 -11q18 -20 24 -38t6 -36q0 -19 -3.5 -38.5t-3.5 -42.5q0 -14 3 -29q3 -13 7 -24q3 -9 5 -17t3 -10q6 -14 18.5 -20.5t28.5 -6.5t34 5t34 13t29.5 17.5t20.5 17.5q1 0 5.5 -1t9.5 -3.5t9.5 -7.5t4.5 -12q0 -6 -4 -14.5t-15 -19.5z" />
    <glyph glyph-name="n" unicode="n" horiz-adv-x="692" 
d="M755 101q-9 -12 -27 -30t-38.5 -36t-40.5 -33t-33 -21q-2 -1 -9 -4t-16.5 -6.5t-19.5 -6t-19 -2.5q-44 0 -76.5 23t-64.5 68q-5 19 -12.5 52.5t-14.5 65.5t-13.5 55.5t-9.5 23.5q-2 0 -17 -19.5t-39 -48t-53.5 -62.5t-60.5 -62.5t-59.5 -48t-50.5 -19.5q-16 0 -29.5 10.5
t-23 25.5t-15 30.5t-5.5 25.5q0 6 11.5 38.5t25 73t25 77.5t11.5 52v3q9 23 13 44.5t11.5 38.5t22.5 27.5t45 10.5q17 0 28.5 -7.5t19 -19.5t10.5 -26.5t3 -27.5q0 -14 -9.5 -37.5t-21.5 -48t-21.5 -46t-9.5 -31.5q0 -8 1 -9t4 -2q13 17 34 42t44.5 52.5t45 55.5t34.5 51
q10 17 25 21.5t32 4.5q33 0 51.5 -24.5t28.5 -60.5t16 -79t14.5 -79t22.5 -60.5t42 -24.5q32 0 56 8.5t43 20t34 23.5t30 19q3 1 5.5 1.5t5.5 0.5q12 0 20.5 -8t8.5 -21q0 -8 -3.5 -16.5t-11.5 -17.5z" />
    <glyph glyph-name="o" unicode="o" horiz-adv-x="479" 
d="M455 345q0 -32 -7.5 -69.5t-21.5 -73t-34.5 -66.5t-46.5 -49q-14 -10 -27 -26t-29 -28q-9 -7 -24 -15t-32.5 -15t-35.5 -12t-34 -5q-20 0 -44.5 7.5t-47 22t-37.5 34.5t-15 45q0 34 7.5 55.5t17.5 40.5t18.5 41.5t10.5 58.5q45 42 77.5 72.5t62.5 50.5t63 29.5t80 9.5
q20 0 38 -11t31.5 -27.5t21.5 -35t8 -34.5zM371 325q-1 6 -4 11q-2 4 -5.5 7.5t-7.5 3.5q-12 0 -21.5 -3t-20 -9l-24.5 -14t-34 -17q-9 -4 -20.5 -13t-22 -20t-18.5 -22t-9 -18q-2 -6 -4 -12.5t-3 -8.5q-9 -13 -16 -20.5t-11.5 -14.5t-7 -16.5t-2.5 -27.5q0 -8 2.5 -14
t5.5 -12h30q10 0 26.5 7.5t33 16.5t29.5 17.5t17 11.5q10 7 24.5 28t28.5 46.5t24 50.5t10 42z" />
    <glyph glyph-name="p" unicode="p" horiz-adv-x="477" 
d="M457 352q0 -11 -2.5 -27.5t-5.5 -31.5t-6.5 -26.5t-4.5 -13.5q-2 -23 -16.5 -55t-38.5 -66.5t-54 -68.5t-61.5 -60.5t-62 -43t-55.5 -16.5q-6 0 -20 6.5t-21 6.5q-5 0 -9.5 -10t-10 -25.5t-10.5 -36t-9 -41.5q-11 -49 -21 -112q0 -8 9.5 -18.5t20.5 -22.5t20.5 -26
t9.5 -28q0 -8 -7 -30t-20 -45.5t-30 -42t-37 -18.5q-11 0 -21.5 9t-18.5 19.5t-12.5 20l-4.5 9.5q0 71 3.5 122t10.5 94t16.5 82.5t21.5 88t27 110.5t31 150q11 21 15 37t7 30.5t7 29t15 31.5q3 5 10.5 9.5t17 10t20.5 11.5t21 14q7 6 18.5 15t23.5 20t22.5 23.5t14.5 24.5
q21 7 27 12.5t9.5 8.5t11 4.5t32.5 1.5q30 0 52.5 -13t36.5 -33.5t21 -44.5t7 -45zM356 326q-1 12 -5 22q-3 8 -7.5 15t-11.5 7q-17 0 -38 -19.5t-43 -49t-43 -65t-37 -68t-26 -57t-10 -31.5q0 -6 2.5 -9.5t5.5 -6.5q8 0 18 -1.5t16 -1.5q18 0 45 22.5t53 53t44.5 62.5
t18.5 50q0 2 -0.5 2.5t-0.5 2.5q0 1 3 10.5t6.5 21t6.5 23t3 17.5z" />
    <glyph glyph-name="q" unicode="q" horiz-adv-x="580" 
d="M558 336q0 -14 -2 -22t-6.5 -15.5t-12 -17.5t-18.5 -28q-16 -45 -33 -92t-34 -89q-3 -21 -13.5 -50.5t-16.5 -54.5q-3 -13 -10 -49.5t-14 -77.5t-12.5 -76.5t-5.5 -45.5q0 -3 2.5 -11.5t6 -19t8 -21.5t7.5 -20q3 -6 7 -15t7 -14q-7 -14 -13 -31t-15 -31.5t-22 -24
t-32 -9.5q-20 0 -33.5 11t-21 26t-10.5 31.5t-3 27.5q0 6 3 13t3 15q0 4 -2 10q11 3 16 15.5t7 30.5t3 39.5t4 42.5q6 43 11.5 75.5t11.5 61.5t11 57t9 63q3 23 11.5 47.5t16.5 52.5l-3 15q-14 -9 -34 -25t-44 -35t-50.5 -38.5t-52 -35t-48 -25.5t-39.5 -10h-15
q-15 0 -28.5 9t-23.5 22.5t-16 28.5t-6 26q0 14 13.5 40t37.5 58.5t57 68t72 69.5q75 65 128.5 99.5t77.5 45.5q2 1 7 5t12 4q35 0 51 -7.5t27 -20.5t23 -31t39 -39v-28zM394 331l-4 2q-6 2 -10 2q-6 0 -12 -3q-12 -8 -27 -20t-31.5 -26t-33.5 -29.5t-32 -30.5
q-42 -40 -67.5 -67t-36.5 -47q23 0 53 22t82 67q53 45 86 79.5t33 48.5v2z" />
    <glyph glyph-name="r" unicode="r" horiz-adv-x="436" 
d="M483 351q0 -10 -6 -20t-15 -17.5t-20 -12.5t-20 -5q-6 0 -14 1.5t-14 1.5q-8 0 -19.5 9t-17.5 9q-15 0 -33 -15.5t-34.5 -36t-29.5 -39.5t-17 -26q-6 -10 -12 -24.5t-12.5 -31t-13.5 -33t-14 -28.5v-4q0 -10 -5 -27.5t-14.5 -34.5t-23 -29.5t-31.5 -12.5q-21 0 -35 14.5
t-21.5 33t-10.5 37t-3 26.5q0 6 5.5 19t9.5 39q3 23 5.5 53.5t2.5 55.5v11.5t-1 10.5q7 22 8.5 55.5t6 65t16.5 54t41 22.5q15 0 29 -6t25.5 -15.5t18 -21.5t6.5 -25q0 -6 -8 -23.5t-14 -31.5l4 -27q2 2 10.5 11.5t20 22t24.5 26.5t26 26t24.5 19.5t18.5 7.5q14 0 40.5 -3.5
t52.5 -13t45 -26t19 -41.5z" />
    <glyph glyph-name="s" unicode="s" horiz-adv-x="350" 
d="M385 537q0 -16 -3.5 -34.5t-10.5 -30.5q-19 -3 -40.5 -7t-41 -13t-34.5 -25.5t-21 -45.5q-6 -30 -10 -64.5t-4 -69.5v-23.5t2 -22.5q-3 -14 -6.5 -35t-3.5 -38q0 -31 -4.5 -64.5t-15 -67.5t-29.5 -67.5t-49 -64.5q-13 -7 -29.5 -19.5l-33 -25t-31.5 -21.5t-24 -9
q-36 0 -59.5 18t-23.5 50q0 18 8.5 34.5t15.5 22.5q8 -1 16.5 -2t18.5 -1q22 0 45.5 9.5t43.5 41.5q28 43 37 91.5t14 94.5q1 5 1 10.5v11.5q0 23 -2 54.5t-2 66.5q0 32 3.5 65.5t14 66.5t29 63.5t49.5 56.5q4 5 8.5 12t11.5 13q4 3 16 7t25.5 7.5t26 5.5t16.5 2
q12 0 25.5 -3t25 -9t18.5 -16t7 -25z" />
    <glyph glyph-name="t" unicode="t" horiz-adv-x="409" 
d="M514 575q0 -9 -4 -20.5t-11.5 -22t-18 -18t-23.5 -7.5q-6 0 -19 1.5t-21 1.5q-9 0 -33 -5t-51 -12t-50.5 -14.5t-32.5 -13.5q-4 -4 -10.5 -22t-14 -43.5t-15.5 -56.5t-14.5 -59.5t-11.5 -52t-7 -34.5q-2 -8 -3.5 -24.5t-1.5 -35.5q0 -15 1.5 -30t6 -27t12.5 -19.5
t20 -7.5h31q23 0 52.5 13t57 29.5t48.5 33t26 23.5q5 9 20.5 11t20.5 2h2q3 0 5.5 -4t5 -9t3.5 -10t1 -6q0 -16 -3.5 -26t-10.5 -18t-17 -15.5t-23 -17.5q-25 -20 -51.5 -40t-54.5 -36t-58.5 -26t-63.5 -10q-41 0 -69 21t-44.5 52t-23.5 64.5t-7 59.5q0 17 4.5 43t11.5 55.5
t16 60t17 57t15 45.5t10 26q-9 7 -21.5 13t-24 14t-20 20t-8.5 30q0 43 28 57.5t80 14.5q25 53 42.5 95t39.5 89q14 4 15.5 15t4.5 19q13 10 20.5 16.5t12 9.5t8 4t10.5 1h16q14 0 23.5 -10t15 -23.5t8 -26.5t2.5 -19q0 -9 -13.5 -31t-30 -45.5t-30.5 -42.5t-15 -21v-11
q1 -1 1 -3v-1q0 -1 5 -1q6 0 11.5 2.5t12.5 2.5q6 0 9 -2t9 -2q13 0 31.5 4t36.5 8.5t33 8.5t20 4q24 0 36.5 -15t12.5 -30z" />
    <glyph glyph-name="u" unicode="u" horiz-adv-x="565" 
d="M536 -34q0 -20 -10 -32.5t-23.5 -19.5t-27.5 -10t-23 -3q-19 0 -33 15.5t-23.5 39t-15.5 51t-9.5 52t-4.5 42t-1 20.5q0 8 -4.5 21.5t-6.5 28.5q-3 0 -4.5 2t-4.5 5q-9 -11 -26 -28.5t-38 -37.5t-44.5 -40.5t-46.5 -37t-44 -27t-36 -10.5q-39 0 -64.5 26t-25.5 63
q0 23 5.5 54.5t14 66t18.5 68t19 61t15.5 45t7.5 19.5q4 6 12 10.5t16 7.5t15.5 4.5t11.5 1.5q10 0 20.5 -4.5t18.5 -12.5t13.5 -18.5t5.5 -22.5q0 -11 -10.5 -40t-23.5 -61t-23.5 -59t-10.5 -33v-10l4 -5q72 47 125.5 92t82.5 91q3 6 11 10.5t17.5 7.5t19 5t16.5 2
q22 0 34.5 -9t18.5 -23.5t7 -32.5t1 -36v-14v-13t1 -12q2 -25 2 -55.5v-60.5q1 -1 3.5 -5.5t4.5 -7.5q0 -10 -2 -19t-2 -19q0 -12 7 -25q6 -11 13 -18t13 -14t10 -15t4 -21z" />
    <glyph glyph-name="v" unicode="v" horiz-adv-x="489" 
d="M538 421q0 -26 -14.5 -45.5t-34.5 -39t-41 -41t-35 -49.5q-15 -32 -42 -63.5t-49 -61.5q-6 -8 -12.5 -18t-13.5 -20t-13.5 -19t-10.5 -15q-8 -9 -22 -23.5t-28.5 -27.5t-26 -22.5t-14.5 -9.5h-27q-16 0 -36 8.5t-28 33.5q-5 16 -8 37t-5 44.5t-4 47.5t-6 45q-5 23 -13 53
t-15.5 57.5t-13.5 47.5t-6 23q0 14 6.5 28t17.5 25t25 17.5t29 6.5q6 0 16 -7t20 -16t18 -17.5t8 -12.5q4 -17 6.5 -26.5t3.5 -17.5t2.5 -18t3.5 -27.5t6 -46.5t12 -74q2 -3 1.5 -3.5t5.5 -0.5t30.5 24t54 56t55.5 64t35 49q5 8 8.5 25.5t5.5 29.5q4 18 16 28.5t26.5 15.5
t28 6t21.5 1q22 0 39.5 -14.5t17.5 -36.5z" />
    <glyph glyph-name="w" unicode="w" horiz-adv-x="819" 
d="M805 438q0 -8 -8.5 -18.5t-14.5 -30.5q-16 -53 -25.5 -86.5t-16 -55t-10.5 -34t-8 -22.5t-8.5 -21t-12.5 -30q-12 -30 -36 -59t-53.5 -51.5t-61.5 -36.5t-60 -14q-43 0 -70.5 22t-45.5 54t-28.5 69.5t-19.5 68.5q-25 -26 -52.5 -65.5t-56.5 -77.5t-58.5 -65t-58.5 -27
q-17 0 -28.5 13t-19 30.5t-10.5 33.5t-3 22q0 23 3.5 55t8 66.5t8.5 68t4 60.5v11t-1 10v3q0 10 4.5 24t9.5 26q6 12 15 18t18 9t16 3.5t9 0.5q34 0 51 -21t17 -47q0 -4 -2.5 -20t-5.5 -34t-5.5 -34t-2.5 -19v-15q47 34 73.5 67.5t45.5 60t36.5 43t45.5 16.5q31 0 45 -21.5
t18.5 -54t4.5 -70.5t3 -70.5t13.5 -54t37.5 -21.5q19 0 39.5 16.5t40 41.5t36.5 56t29.5 60t20 53t7.5 35q0 2 -6 12t-13 23.5t-13 30t-6 32.5q0 20 9 34t22.5 23t29 13.5t28.5 4.5q23 0 37 -12t22 -29.5t10.5 -37t2.5 -35.5z" />
    <glyph glyph-name="x" unicode="x" 
d="M520 438q0 -26 -13.5 -49t-34 -42.5t-44 -37t-44 -33t-34 -29.5t-13.5 -28q0 -18 16 -35.5t35.5 -35.5t36 -37.5t16.5 -42.5q0 -14 -6.5 -26.5t-17 -21.5t-23.5 -14.5t-26 -5.5q-36 0 -54 20t-29 44.5t-20 44.5t-25 20q-15 0 -34 -13.5t-39 -35.5t-39 -50.5t-33 -59.5
q-5 -11 -15 -41t-16 -72q-14 -8 -29 -15t-25 -7q-9 0 -19.5 4t-19.5 10.5t-14.5 15.5t-5.5 19q0 3 0.5 11t1.5 17t3 17.5t6 12.5q51 57 74.5 88.5t34.5 45.5q15 18 32.5 37.5t31.5 37.5t23.5 32.5t9.5 21.5q0 2 -12 12t-26 25.5t-26 36t-12 43.5q0 16 8.5 27.5t20.5 18.5
t25.5 10t24.5 3q13 0 25 -11.5t22.5 -26t19.5 -26t17 -11.5q14 0 29.5 13.5t32.5 34t35 44t37 44t38 34t39 13.5q26 0 40 -15.5t14 -35.5z" />
    <glyph glyph-name="y" unicode="y" horiz-adv-x="556" 
d="M536 379q0 -3 -4.5 -29t-11 -61t-13.5 -73.5t-13 -65.5q-6 -32 -12 -68.5t-12.5 -73.5t-15.5 -73.5t-21 -69.5q-24 -65 -62 -127t-91 -111.5t-122 -79.5t-155 -30q-11 0 -35.5 3t-49 13t-43 27.5t-18.5 46.5q0 41 20 65t41 34l13 -7q9 -12 21.5 -26.5t26.5 -27
t29.5 -20.5t29.5 -8q38 0 69 9t59 29t55 51t58 75q10 15 21.5 35t21.5 43.5t16 49t6 50.5q0 5 -0.5 11t-1.5 11q8 14 14 38.5t10.5 54t7 60.5t2.5 58q0 4 0.5 8t0.5 9q0 7 -2 11q-22 -22 -51 -45.5t-62 -43t-68.5 -32.5t-70.5 -13q-17 0 -36 7t-34.5 19.5t-26 29.5t-10.5 36
q0 13 5.5 34.5t14 46.5t18.5 51t20 47.5t18.5 36.5t13.5 18q9 5 27 8.5t26 3.5q15 0 26.5 -7t19.5 -17.5t12 -22.5t4 -22q0 -11 -6 -25t-15 -29.5t-19 -31.5t-17 -30v-8q2 -3 5.5 -6t9.5 -3q10 0 27.5 11t39 28t44 38.5t42 42t34 38.5t18.5 29q5 14 22 25.5t31 20.5
q3 2 10 4t15 2q17 0 30.5 -7.5t23.5 -19.5t15 -26.5t5 -28.5z" />
    <glyph glyph-name="z" unicode="z" horiz-adv-x="561" 
d="M662 75q0 -19 -16.5 -35.5t-45.5 -29.5q-17 -8 -38.5 -12.5t-41 -7t-35 -3.5t-21.5 -1t-17.5 1.5t-19.5 1.5q-36 0 -79.5 -12t-86.5 -33.5t-82 -51.5t-64 -66q-2 -2 -9 -4.5t-15.5 -4.5t-17 -3.5t-11.5 -1.5q-13 0 -24 11t-18.5 25t-12 27.5t-4.5 19.5q0 22 9.5 35.5
t24.5 27t34 31.5t38 49q5 9 23.5 39.5t39 71.5t36.5 86t16 83q0 14 -8 25t-24 17q-16 0 -36 -5t-39.5 -12.5t-37.5 -15l-30 -12.5q-29 16 -35 31.5t-6 32.5v9q0 11 17.5 23.5t44.5 24.5t59.5 22.5t61.5 18.5t51 13t28 5q21 0 35.5 -15t23 -34.5t12 -38.5t3.5 -28
q0 -48 -14.5 -92.5t-34 -86.5t-40 -81t-33.5 -77q32 11 54 17.5t41.5 12t40.5 10t51 11.5q21 4 55 10t63 14q26 8 50.5 21t41.5 27q8 -6 15.5 -16t13.5 -22t10 -25.5t4 -26.5z" />
    <glyph glyph-name="braceleft" unicode="{" horiz-adv-x="437" 
d="M393 27q0 -17 -19 -31t-43.5 -23.5t-48.5 -15t-34 -5.5q-2 0 -10.5 0.5t-18.5 1t-20 2t-15 4.5q-13 7 -28.5 23.5t-30 36.5t-24.5 39.5t-13 31.5q-9 40 -9 72q0 26 7 45q2 5 4 14t3.5 18.5t2.5 17t1 9.5q0 18 -11.5 29t-25 20t-24.5 20t-11 29q0 16 8 27t20 20t25 18.5
t23 21.5q2 3 7 9l10 12t8.5 11t3.5 7q0 3 -6 12.5t-12.5 20t-12.5 21t-6 15.5v2q-18 11 -21 27t-3 32q0 31 6 50.5t22.5 34t46.5 27.5t78 31l15 5l18 6t16.5 5t11.5 2q23 0 42 -13.5t19 -30.5v-11q0 -8 -5 -18.5t-27 -27.5q-6 -5 -23.5 -5.5t-29.5 -3.5q-48 -11 -67.5 -25.5
t-19.5 -43.5q0 -15 6 -24t13 -20.5t13 -30t6 -52.5q0 -25 -6.5 -39t-14 -23.5t-13.5 -19.5t-6 -26q0 -3 6.5 -10.5t14 -17t14 -19t6.5 -16.5v-1l-4 -64q-1 -15 -6 -26t-10.5 -22t-10 -24.5t-4.5 -34.5q0 -8 6 -24.5t18 -33t30.5 -29.5t44.5 -13q22 0 35 1.5t21.5 3.5t14 3.5
t13.5 1.5q11 0 22.5 -5t11.5 -11z" />
    <glyph glyph-name="bar" unicode="|" horiz-adv-x="402" 
d="M307 841q0 -53 -9.5 -111.5t-21.5 -119.5t-21.5 -121.5t-9.5 -117.5q-3 -11 -6.5 -30.5t-7 -40t-5.5 -37t-2 -20.5q0 -16 8.5 -29t19 -26.5t19.5 -27.5t9 -32q0 -5 -4 -13t-4 -13q0 -24 -6 -46t-18 -39.5t-30.5 -27.5t-43.5 -10q-18 0 -29 17.5t-17 39t-8.5 41.5t-2.5 25
q0 24 4 65t10.5 92.5t13.5 110.5t13.5 118.5t10.5 116.5t4 104q0 4 -4 26t-8.5 47.5t-8.5 47t-4 23.5q0 18 8.5 33.5t21.5 27.5t29.5 18.5t33.5 6.5q22 0 35 -10.5t20 -25.5t9 -32t2 -30z" />
    <glyph glyph-name="braceright" unicode="}" horiz-adv-x="424" 
d="M399 351q0 -9 -8 -20t-18.5 -22t-21 -20.5t-14.5 -16.5q-8 -11 -9.5 -26t-4.5 -27l41 -133q-4 -27 -10 -45.5t-13.5 -31t-15 -21.5t-14.5 -18q-4 -7 -19.5 -20t-29.5 -19q-3 -2 -20 -5.5t-37 -8t-38.5 -7.5t-25.5 -3q-23 0 -40.5 7t-29 17.5t-17.5 23.5t-6 25
q0 11 14.5 16t24.5 5q8 0 10.5 -1t5.5 -2.5t8.5 -2.5t20.5 -1h35q13 0 25.5 1.5t22.5 8t18 19t13 34.5q2 4 10 12.5t8 13.5q0 4 -3 14t-3 20q-17 21 -27 43.5t-15 41.5t-6.5 31.5t-1.5 14.5q0 16 5 26t11 17.5t11 13t5 13.5l-7.5 11.5t-17 26.5t-17 31t-7.5 25q0 21 5.5 41
t14 37.5t18.5 31t19 22.5q1 1 2.5 9.5t2.5 19.5t1.5 22.5t0.5 20.5v7q-1 5 -7.5 16.5t-16 23.5t-21.5 21t-24 9q-18 0 -26.5 -4t-15 -8.5t-15.5 -8t-27 -3.5q-16 0 -27 5.5t-18 13.5t-10 17t-3 16q0 18 18.5 31t44 21t51 12t40.5 4q6 0 17.5 -1t24.5 -3t23.5 -4.5t13.5 -4.5
q15 -11 30 -27t28 -34.5t21 -37.5t8 -37q0 -23 -5 -39t-12.5 -29t-16.5 -25.5t-17 -27.5t-13.5 -35t-6.5 -49q3 -2 5 -7l4 -10t4 -9.5t5 -4.5q7 0 12.5 1.5t11.5 1.5q33 0 48.5 -18t15.5 -38z" />
    <glyph glyph-name="asciitilde" unicode="~" horiz-adv-x="591" 
d="M560 298q-34 -49 -70 -73.5t-89 -24.5q-25 0 -54.5 6.5t-58.5 24.5q-23 14 -45.5 23t-47.5 9q-17 0 -29.5 -7.5t-22 -18.5t-16.5 -22.5t-12 -19.5l-85 100q15 21 31 38.5t34.5 31t41 21t51.5 7.5q32 0 59.5 -8t53.5 -22q29 -17 50.5 -25t44.5 -8q15 0 27 7t21.5 17t17 22
t13.5 22z" />
    <glyph glyph-name="uni00A0" unicode="&#xa0;" horiz-adv-x="260" 
 />
    <glyph glyph-name="exclamdown" unicode="&#xa1;" horiz-adv-x="356" 
d="M313 469q0 -16 -2 -26.5t-4 -17.5q-3 -8 -5 -13q-15 -9 -23.5 -16t-15 -12t-14 -7.5t-19.5 -2.5q-23 0 -37.5 8t-22.5 20t-10.5 25.5t-2.5 24.5q0 4 2 22.5t9 39.5t21.5 37.5t40.5 16.5q28 0 44.5 -7.5t25 -21t11 -31.5t2.5 -39zM270 245q0 -6 -6.5 -18.5t-12.5 -23.5
q-18 -69 -26.5 -110.5t-14.5 -74t-11.5 -64.5t-16.5 -80q-4 -17 -10 -45.5t-17.5 -56.5t-29 -48t-44.5 -20q-16 0 -28 6.5t-20.5 17t-12.5 23t-4 25.5q0 10 4.5 23t11 26t13.5 26t12 23q4 10 6.5 21.5t4.5 23.5t5 23t10 19q7 30 12.5 46t10 29.5t10 32.5t14.5 55q6 25 12 42
t10.5 31t7.5 27.5t3 31.5v10.5t-1 11.5q6 0 14.5 2.5t16.5 4.5t15 4t9 2q18 0 35.5 -12t17.5 -34z" />
    <glyph glyph-name="cent" unicode="&#xa2;" horiz-adv-x="534" 
d="M531 542q0 -17 -11.5 -26t-27 -13.5t-30.5 -5.5t-22 -1h-2q-6 0 -13.5 2t-13.5 2q-3 0 -6 0.5t-6 0.5q-5 0 -10.5 -3.5t-10.5 -17.5q-5 -13 -13 -46t-16.5 -73.5t-14.5 -81.5t-6 -68v-25q0 -16 2.5 -32.5t11.5 -32.5h11q25 0 56.5 5.5t56.5 9.5q6 -9 6 -23
q0 -18 -10.5 -37.5t-24.5 -27.5q-11 -7 -28 -9.5t-32.5 -4t-26.5 -3.5t-11 -8q0 -30 4.5 -51.5t10.5 -38.5t10.5 -32t4.5 -32t-3 -32t-10.5 -26.5t-20.5 -18.5t-33 -7q-18 0 -32.5 10t-25 26t-16.5 35.5t-7 37.5q2 6 5.5 11.5t6.5 14t5.5 20.5t2.5 30q0 6 -2 25.5t-2 31.5
q-42 14 -73.5 30.5t-52.5 38t-31.5 50.5t-10.5 69q0 112 47 198.5t156 154.5q4 3 4 9q0 5 -1 11t-1 13v5q3 19 4 33.5t1 25.5q0 18 -1.5 29t-1.5 19t3 14t12 14q14 11 31.5 17.5t31.5 6.5q10 0 20.5 -8t18.5 -18.5t13.5 -21t5.5 -16.5q0 -7 -4.5 -33.5t-10.5 -68.5
q6 -5 20.5 -7t32.5 -2q12 0 23.5 0.5t22.5 0.5q13 0 18 -1q6 -6 11.5 -20t5.5 -28zM267 390q0 9 -2 25.5t-5 25.5q-39 -30 -63.5 -82t-24.5 -120q0 -7 5 -28t14 -38q10 -17 23.5 -28t19.5 -11h14l19 251v5z" />
    <glyph glyph-name="sterling" unicode="&#xa3;" horiz-adv-x="917" 
d="M921 78q0 -27 -22 -48.5t-52 -36.5t-59.5 -23t-44.5 -8q-3 0 -15.5 0.5t-27 1.5t-27 1.5t-15.5 0.5q-6 0 -13 6t-13 8q-10 3 -23.5 6.5t-27 6.5t-24 5t-13.5 2q-6 0 -8.5 -0.5t-8.5 -0.5q-3 0 -28 6t-54 13t-54 13t-28 6q-5 0 -17 -20t-29 -44.5t-39 -44.5t-47 -20h-53
q-4 0 -21 11t-36 26.5t-36 31.5t-21 26q-3 8 -16 27t-19 36q-4 13 -6.5 29.5t-3.5 31.5t-1 26.5v14.5q0 15 8 28t20 23t25 16t22 6q37 0 61 -3.5t45.5 -10t45.5 -15.5t62 -20q1 1 9 18t17 38.5t16 42.5t7 31q0 8 -9.5 11.5t-10.5 3.5q-5 0 -5 -2t-5 -2q-14 0 -28.5 6.5
t-26 18t-19 27.5t-7.5 34q0 20 10 32.5t24.5 19t30 8.5t26.5 2h9.5t14 -0.5t14 -0.5h9.5q16 0 21.5 27.5t9 68.5t9 89t21 89t45 68.5t81.5 27.5q3 0 8 -4t11 -8.5t12 -8t10 -3.5q17 0 25 -13t14 -35.5t12 -51.5t19 -60q3 -8 7.5 -19.5t4.5 -19.5q0 -2 -0.5 -2.5t-0.5 -1.5
v-1q0 -5 2 -18.5t2 -30.5q0 -23 -8 -42t-34 -19q-13 0 -25 8.5t-23 22t-20.5 28.5t-15.5 29q-3 6 -6.5 17.5t-5.5 22.5q-3 13 -5 28l-10 -16q-14 -22 -24 -49t-17 -52t-10.5 -44t-3.5 -26q0 -6 1.5 -11t9.5 -5q3 0 20 -3t36.5 -6t36.5 -6t21 -3q3 0 11.5 4t18.5 8.5t19 8.5
t13 4q10 0 21.5 -4.5t21.5 -12t16.5 -17t6.5 -19.5q0 -9 -6 -20t-15 -20.5t-19.5 -16.5t-19.5 -7q-6 0 -9 2t-10 2q-3 0 -27 -1t-56 -3t-67.5 -5.5t-60.5 -9.5q-6 -1 -9.5 -7.5t-6 -15.5t-4.5 -18.5t-4 -15.5q-5 -16 -7 -24t-3.5 -13l-3 -10t-5.5 -15q-5 -11 -10 -26.5
t-8 -29.5q17 -11 61 -25t97 -27.5t107 -22.5t90 -9q10 0 17.5 4.5t14 10.5t12.5 12.5t13 11.5q12 14 31.5 19t34.5 11q22 -21 37.5 -35.5t15.5 -36.5zM250 62q0 5 -3 8q-1 1 -2 1q-11 4 -25.5 9t-28 9.5l-24 8t-13.5 3.5h-18v-1q0 -13 6.5 -27t17.5 -25.5t25.5 -19
t29.5 -7.5q3 0 9 5t11.5 11.5t10 13.5t4.5 11z" />
    <glyph glyph-name="currency" unicode="&#xa4;" horiz-adv-x="629" 
d="M556 175q-14 -14 -28.5 -29t-28.5 -30q-17 17 -34.5 34t-34.5 34q-26 -18 -55.5 -26.5t-59.5 -8.5q-26 0 -56.5 7.5t-59.5 27.5l-68 -68q-15 15 -29.5 30t-28.5 29l69 66q-18 29 -26.5 58t-8.5 55t8 56t27 57q-17 17 -34.5 33.5t-34.5 33.5q14 14 28.5 29t29.5 30l68 -68
q29 20 59.5 27.5t56.5 7.5q27 0 57.5 -8t56.5 -27q18 17 35.5 34t34.5 34q14 -15 28.5 -30t28.5 -29q-17 -17 -34.5 -33.5t-34.5 -33.5q20 -29 28 -58.5t8 -54.5q0 -26 -8.5 -55t-27.5 -58zM440 355q0 27 -10.5 49.5t-28 39t-40 25.5t-46.5 9q-27 0 -50 -10t-40 -26.5
t-26.5 -39t-9.5 -47.5q0 -26 10 -48.5t27 -39.5t40 -27t49 -10t48.5 10t39.5 27t27 39.5t10 48.5z" />
    <glyph glyph-name="yen" unicode="&#xa5;" horiz-adv-x="735" 
d="M738 745q0 -15 -11.5 -28.5t-28 -25.5t-34.5 -23t-31 -20q-36 -26 -63 -47.5t-48.5 -39.5t-38.5 -33.5t-31 -29.5q-2 -3 -8 -10.5t-12 -16.5t-11 -19t-5 -18v-3q5 -5 19 -6.5t22 -1.5h5q3 0 12.5 2.5t20 6t20 6t12.5 2.5q28 0 41.5 -17.5t13.5 -39.5q0 -2 -2 -10.5
t-4.5 -18.5t-5.5 -18t-5 -8q-12 0 -28 1t-33 1q-20 0 -40.5 -2.5t-37 -11t-27.5 -24.5t-12 -42q8 -1 19 -3t23 -3.5t22.5 -2.5t18.5 -1q3 0 14 3t23.5 6t24 6t14.5 3q16 0 29.5 -2t23.5 -9.5t15.5 -21t5.5 -36.5q0 -29 -15.5 -44.5t-44.5 -15.5q-3 0 -11 1t-17 2.5t-17 2.5
t-11 1q-6 0 -12 -3.5t-12 -3.5q-8 0 -12.5 2t-12.5 2q-3 0 -15 -0.5t-25 -3.5t-23.5 -8.5t-10.5 -14.5q0 -3 2.5 -12t6 -19t6 -19t2.5 -12q0 -32 -22 -51.5t-50 -19.5q-37 0 -48 16t-11 37q0 16 2.5 32t2.5 30t-5 22.5t-22 8.5q-8 0 -22.5 -4t-20.5 -4q-13 0 -28 4
t-27.5 11.5t-21 17.5t-8.5 23q0 17 12 29.5t28 21t31.5 13t23.5 4.5q6 0 21 -0.5t23 -0.5q7 0 11 5t6.5 11t3 12.5t0.5 9.5q0 6 -5 19t-11 13q-3 0 -16 -1.5t-28 -4t-28 -4t-16 -1.5q-18 0 -37 4t-34 11.5t-24.5 18.5t-9.5 25q0 9 6 19.5t15 18.5t19 13.5t17 5.5h11
t21.5 -0.5t37.5 -1.5t59 -2q5 0 12.5 1.5t14 3.5t11 5.5t4.5 6.5t-3.5 11.5t-9 19t-12 21t-13.5 16.5q-14 12 -41 26t-60.5 27.5t-68.5 27.5t-63 26q-4 2 -13 11.5t-18 21.5t-16 23.5t-7 17.5q0 15 8.5 28t21 22t26.5 14.5t25 5.5q16 0 27 -4.5t20 -11t17 -13.5t17 -11
q45 -20 85 -46.5t72 -50.5t52.5 -41t26.5 -17q7 0 26.5 20.5t46 51t57 66.5t60 66.5t56 51t44.5 20.5q17 0 31.5 -8t25 -20t16.5 -25.5t6 -23.5z" />
    <glyph glyph-name="brokenbar" unicode="&#xa6;" horiz-adv-x="239" 
d="M54 318v447h130v-447h-130zM54 -235v461h130v-461h-130z" />
    <glyph glyph-name="section" unicode="&#xa7;" horiz-adv-x="493" 
d="M475 318q0 -36 -12.5 -63.5t-34.5 -48.5t-50.5 -35.5t-61.5 -23.5q15 -20 26.5 -42t11.5 -46q0 -47 -20 -80.5t-53 -56t-77 -34.5t-92 -17q-7 0 -15.5 -1t-16.5 -1q-7 0 -13 2q-38 14 -49.5 36t-13.5 45v2q0 9 5 18.5t12.5 18t16 13.5t16.5 5q23 -8 38.5 -15t33.5 -7
t37 5t34.5 14t26 22t10.5 30q0 20 -19.5 45t-45.5 48.5t-51 42.5t-35 28q-14 11 -24 27t-16.5 33t-9.5 33.5t-3 28.5q0 23 9.5 52.5t26 59.5t40 59t51.5 51q-5 11 -8.5 22.5t-3.5 22.5q0 34 21 72t56 70.5t79 54t91 21.5q16 0 30 -6t24.5 -16.5t17 -24t6.5 -28.5
q0 -10 -4.5 -21t-15.5 -13q-4 -1 -14 -1q-9 0 -19.5 0.5t-21.5 0.5q-10 0 -20 -1t-21 -4q-35 -11 -57.5 -38t-22.5 -67q0 -23 15 -45t37 -44.5t48.5 -46t48.5 -48.5t37 -52t15 -56zM351 321q0 16 -13.5 35t-33 38.5t-41 37t-37.5 30.5q-26 -21 -46.5 -51t-20.5 -62
q0 -26 20.5 -52.5t46.5 -52.5h12q22 0 42 6t36 16.5t25.5 24.5t9.5 30z" />
    <glyph glyph-name="dieresis" unicode="&#xa8;" 
d="M404 602q0 -9 -1.5 -22.5t-8 -25.5t-18.5 -21t-33 -9q-15 0 -28.5 12.5t-24 29.5t-16.5 33.5t-6 25.5q0 10 7.5 19t17.5 16t20 11.5t15 4.5q13 0 26.5 -8.5t24.5 -20t18 -24t7 -21.5zM233 576q0 -8 -6 -19.5t-15 -22t-19.5 -18t-20.5 -7.5q-8 0 -19.5 6t-22.5 13
t-19 13.5t-9 6.5q-1 9 -2.5 20.5t-1.5 16.5q0 11 0.5 15.5t3.5 9t9 12.5t17 25q2 0 6 -1.5t9 -1.5t13 5t13 5q15 0 27 -9t20 -21t12.5 -25.5t4.5 -22.5z" />
    <glyph glyph-name="copyright" unicode="&#xa9;" horiz-adv-x="666" 
d="M608 299q0 -39 -11.5 -87.5t-36.5 -95t-65 -84.5t-97 -55q-9 -2 -14.5 -5.5t-9.5 -5.5l-6 -3q-4 -2 -5 -2h-1l-3.5 3.5t-5.5 1.5q-5 0 -9 -1.5t-8 -2.5q-2 0 -2 -0.5t-1 -0.5q-64 0 -115.5 26.5t-87.5 69.5t-55 96t-19 106q0 15 3.5 32.5t11 35t18.5 32.5t26 25
q11 7 16 20.5t13 23.5q8 11 16.5 25t19.5 28t24.5 28t30.5 25q8 5 15 11t15 11t14 10t13 8q4 1 17.5 4.5t28.5 7t27 6t14 2.5q1 0 3.5 -0.5t3.5 -1.5q2 -1 5 -2t6 -1t7 2t5 2q4 0 11.5 -2t14.5 -5t13 -5.5t8 -3.5q42 -14 71 -46t47 -72t26 -82.5t8 -77.5zM538 310
q0 20 -6.5 56t-22.5 70.5t-43 60t-68 25.5q-4 0 -9 -1.5t-9 -3.5q-12 -1 -18.5 -2.5t-11.5 -3.5l-5 -2.5t-6 -1.5q-2 2 -5 2q-5 0 -7 -1.5t-5 -4.5q-5 -9 -14 -10.5t-18 -3.5q-3 -1 -6.5 -1.5t-5.5 -2.5q-12 -8 -24.5 -18t-18.5 -18q-13 -16 -30.5 -38.5t-33 -48.5
t-26.5 -52.5t-11 -49.5q0 -5 1.5 -10t3.5 -10q1 -2 1 -4q0 -6 -2.5 -13.5t-4.5 -12.5q-2 -4 -2 -7q0 -4 1.5 -6.5t3.5 -5.5q1 -1 1 -3q10 -33 29 -59.5t43 -44.5t52 -28t57 -10q56 0 97.5 26t68.5 65.5t40.5 86t13.5 86.5zM439 193q0 -15 -10 -29t-24 -24.5t-28.5 -17
t-23.5 -6.5h-34q-11 0 -27.5 7t-31.5 19t-26 28t-11 33q0 9 5 30t14 47t22 54.5t29 51.5t34 38t38 15q3 0 10.5 -3.5t15 -9t13 -12.5t5.5 -14q0 -4 -14 -23q-10 -13 -24 -30t-26.5 -36t-21.5 -38t-9 -35q0 -3 3.5 -8.5t9 -12t11 -12.5t8.5 -9q10 6 18 13.5t16 15.5
q18 18 20 18q13 0 20.5 -5t11.5 -12.5t5.5 -16.5t1.5 -16z" />
    <glyph glyph-name="ordfeminine" unicode="&#xaa;" horiz-adv-x="504" 
d="M474 513q0 -12 -16.5 -25.5t-36.5 -25t-38.5 -18.5t-21.5 -7h-21q-5 0 -14 4.5t-18 11t-17 14t-11 13.5q-14 24 -19.5 35.5t-9.5 21.5q-17 -21 -36.5 -44t-40 -42t-40.5 -31t-37 -12q-9 0 -20 2.5t-21 8.5t-17 16t-7 25q0 8 8.5 27.5t20 40t21.5 37.5t13 20
q37 37 65 65.5t50.5 48t41.5 29.5t39 10q23 0 43 -19t20 -44q0 -5 -3.5 -20t-8 -32t-8 -31.5t-3.5 -18.5q0 -23 11 -39.5t37 -16.5q23 0 35.5 10t25.5 15q6 2 8 2q12 0 19 -12t7 -19zM246 642q-10 -4 -29 -22.5t-39.5 -41.5t-37.5 -47t-23 -38q4 3 13 9.5t19.5 15.5
t21.5 19.5t20 20.5q21 24 37 49t18 35z" />
    <glyph glyph-name="guillemotleft" unicode="&#xab;" horiz-adv-x="644" 
d="M572 139q0 -9 -7 -14.5t-18.5 -7.5t-25 -2.5t-26.5 -0.5q-12 0 -23 4t-23.5 11t-27 15.5t-34.5 17.5q-40 18 -60.5 48t-20.5 55q0 8 4 14t11.5 12t17 14.5t20.5 20.5q10 12 22.5 29.5t25.5 33t26.5 27t26.5 11.5q10 0 20.5 -8t19 -19.5t14 -22.5t5.5 -17q0 -12 -14 -30
t-33 -24q-10 -3 -16 -15t-6 -26q0 -12 4.5 -22.5t14.5 -17.5q3 -2 19.5 -10t35 -20t33.5 -26.5t15 -29.5zM321 157q0 -9 -6 -20t-15.5 -20.5t-21.5 -15.5t-25 -6q-25 0 -51.5 17.5t-65.5 35.5q-40 18 -66.5 41t-26.5 47q0 12 6 23.5t15.5 22t20.5 21.5t22 23
q10 12 18.5 24.5t16.5 24t17.5 21t21.5 15.5q10 7 27 7q12 0 25 -3.5t24.5 -8t18.5 -10t7 -9.5q0 -6 -6 -18.5t-15.5 -25t-20 -23.5t-19.5 -14q-11 -4 -22.5 -21.5t-11.5 -34.5q0 -11 7 -18t24 -7q3 0 19.5 -5t34.5 -14t33 -21.5t15 -27.5z" />
    <glyph glyph-name="logicalnot" unicode="&#xac;" horiz-adv-x="591" 
d="M390 109v163h-319v130h449v-293h-130z" />
    <glyph glyph-name="uni00AD" unicode="&#xad;" horiz-adv-x="527" 
d="M462 279q0 -2 -3 -12.5t-7 -23t-8.5 -22.5t-8.5 -10t-4 2t-5 2q-6 0 -10.5 -9t-11.5 -9q-6 0 -9 2t-10 2q-3 0 -22 -4.5t-43.5 -9.5t-48.5 -9.5t-37 -4.5q-16 0 -25.5 -1t-16.5 -1.5t-13 -1.5t-15 -1q-8 0 -24 2t-33 8.5t-29.5 18.5t-12.5 32q0 49 29 66t70 17
q3 0 11.5 -1.5t18.5 -3.5t18.5 -3.5t11.5 -1.5q16 0 30.5 0.5t31.5 0.5q28 0 43.5 4t27.5 8.5t25 8.5t37 4q4 0 11.5 -6t14.5 -14t12 -16t5 -13z" />
    <glyph glyph-name="registered" unicode="&#xae;" horiz-adv-x="424" 
d="M394 464q0 -21 -11.5 -49.5t-32 -54t-47.5 -43.5t-57 -18h-20q-17 0 -38.5 7.5t-41 20t-34 29t-17.5 34.5q0 1 -5 4q-5 2 -8 6q-4 6 -6 10.5t-2 12.5q0 2 1.5 12.5t3.5 23.5t5 24.5t5 15.5q10 17 17.5 30.5t15.5 26.5q15 26 40 45q4 3 9.5 6t11.5 6t13 6t12 5
q24 11 49.5 14.5t50.5 3.5q2 0 13 -3t19 -5q7 -2 18 -10.5t16 -19.5q2 -4 5.5 -17t6.5 -27.5t5.5 -28t2.5 -19.5v-48zM363 516q0 8 -2.5 23t-8 30t-15 26t-24.5 11q-23 0 -53.5 -3t-56.5 -20q-6 -4 -11.5 -9.5l-11.5 -11.5l-12 -12t-13 -11q-3 -2 -7 -9l-3 -4l-1 -2l-1 -1
l-1 1q-1 0 -4 -3q-1 -2 -2 -3q-2 -5 -5 -11t-6 -13q-6 -14 -10.5 -28.5t-4.5 -20.5v-1q0 -1 1 -2l2 -5q4 -8 4 -12q3 -23 15.5 -40.5t29.5 -30t36.5 -19t37.5 -6.5q9 0 19.5 3.5t20.5 8.5t17.5 10t11.5 8q16 13 27.5 32.5t18 41t9.5 43.5t3 40zM320 430q0 -6 -7.5 -16.5
t-16.5 -10.5q-4 0 -11 2.5t-15 5.5q-2 1 -11 4.5t-11 3.5h-7l-9 5q2 -7 3.5 -17.5t1.5 -16.5q0 -7 -4 -17t-16 -10q-4 0 -8.5 3.5t-8.5 8.5t-7 9t-3 6q-1 2 -1 7q0 4 2 10t2 9v2q-1 8 -3 23t-2 23q0 17 2.5 36t16.5 30q2 2 8 9q2 3 5 5.5t5 4.5q9 9 21.5 13.5t21.5 4.5
q23 0 29.5 -14t6.5 -29q0 -8 -4 -16.5t-10 -17.5q-6 -8 -13.5 -17.5t-15.5 -18.5h23q1 0 1 -0.5t1 -0.5l1 -1q1 -1 2 -1q11 0 21 -7.5t10 -13.5zM271 518q-5 12 -14 12h-2q-4 -2 -9.5 -7t-11 -11t-9.5 -12t-4 -9q0 -19 11 -19q3 0 8 3q8 5 19 20t12 23z" />
    <glyph glyph-name="macron" unicode="&#xaf;" 
d="M420 605q0 -33 -17 -44.5t-48 -11.5q-2 0 -18.5 -0.5t-37 -1l-41 -1t-31.5 -0.5q-26 0 -36 -2.5t-24 -2.5h-8q-9 0 -22 1t-25 5t-20.5 12.5t-8.5 23.5q0 21 6.5 33t18 18t27 7.5t32.5 1.5q2 0 9.5 0.5t16.5 0.5t16.5 0.5t9.5 0.5q14 0 26 0.5t26 0.5h37t23 0.5t21.5 0.5
h31.5q4 0 10 -5t12 -12t10 -14t4 -11z" />
    <glyph glyph-name="degree" unicode="&#xb0;" horiz-adv-x="358" 
d="M328 562q0 -26 -4 -41t-10 -26q-1 -3 -16.5 -15.5t-35 -26t-39.5 -24t-30 -10.5q-4 0 -11 -1t-11 -1q-13 0 -36.5 9t-47 23t-40.5 30t-17 30q0 15 8.5 48.5t26.5 68t46 60.5t67 26q24 0 50 -19t48.5 -44t37 -50t14.5 -37zM251 538q0 9 -8.5 24t-20 30t-23.5 27t-20 15
q-15 -8 -26 -22.5t-18.5 -30t-11 -29t-3.5 -18.5q0 -4 4.5 -10.5t12 -12.5t17 -10.5t19.5 -4.5q4 0 17 3.5t26.5 9.5t24 13.5t10.5 15.5z" />
    <glyph glyph-name="plusminus" unicode="&#xb1;" horiz-adv-x="591" 
d="M71 0v130h448v-130h-448zM359 367v-186h-130v186h-158v130h158v187h130v-187h160v-130h-160z" />
    <glyph glyph-name="uni00B2" unicode="&#xb2;" horiz-adv-x="324" 
d="M298 332q0 -9 -3.5 -19.5t-10 -20t-16.5 -16t-22 -6.5h-21q-3 0 -10.5 2.5t-17 5.5t-18 6t-12.5 5q-9 3 -11 3q-18 0 -27 -5.5t-21 -15.5q-14 -11 -28 -11q-9 0 -17.5 5t-15.5 12.5t-11 16.5t-4 18q0 21 10 31.5t22.5 19.5t24 20t15.5 32q21 39 35 90t25 96
q-20 -1 -34.5 -15t-26 -30.5t-22.5 -30.5t-25 -14q-10 0 -20 5.5t-12 10.5q-7 11 -7 25q0 8 2 16l4 16q19 22 43 44t49 39t47.5 27.5t38.5 10.5q13 0 22.5 -9.5t15.5 -22.5t9 -25.5t3 -19.5q0 -8 -2.5 -12.5t-4.5 -11.5q-3 -5 -5 -13t-2 -22l-70 -175q2 -2 8.5 -3.5t13.5 -3
t13 -2.5t9 -1q1 0 6.5 0.5t12 1t12.5 1t9 0.5q8 0 16.5 -7t15 -16t11 -18t4.5 -14z" />
    <glyph glyph-name="uni00B3" unicode="&#xb3;" horiz-adv-x="309" 
d="M285 363q0 -2 -2 -7.5t-5 -13t-6.5 -15t-6.5 -11.5q-4 -5 -15 -14.5t-22 -14.5q-3 -2 -21 -9.5t-40.5 -15.5t-44.5 -15t-32 -7q-24 0 -43.5 14.5t-19.5 39.5q0 5 2.5 13.5t8 16.5t13 14t18.5 6q3 0 14.5 -3.5t15.5 -4.5q11 -3 18 -5t9 -2q10 0 22 4t22.5 11t17 16.5
t6.5 20.5q0 9 -4 19.5t-11.5 19.5t-17.5 15t-23 6q-2 0 -9 -1t-15 -3l-12.5 -2.5t-12.5 -1.5q-12 0 -20.5 5.5t-14 13.5t-7.5 17t-2 16q0 3 3 15.5t11 17.5q10 7 23.5 17.5t26 22.5t21.5 25t10 26h-4q-6 0 -13.5 -4t-16.5 -9t-19 -9t-21 -4q-19 0 -29.5 17t-10.5 29
q0 15 15 29t35 24.5t39.5 16.5t29.5 6q42 0 66 -25t24 -60q0 -22 -7.5 -38.5t-15.5 -28.5q-5 -6 -9 -10.5t-7 -8.5q-5 -7 -5 -10l4 -3q13 -11 26.5 -22.5t22.5 -25.5q14 -23 27.5 -49t13.5 -61z" />
    <glyph glyph-name="acute" unicode="&#xb4;" 
d="M415 711q0 -9 -6 -22t-15.5 -27t-21 -29t-22.5 -30q-9 -12 -26.5 -30.5t-38 -36.5t-43 -30.5t-41.5 -12.5q-8 0 -14.5 7.5t-6.5 12.5q0 6 1.5 9t5 6.5t8 8.5t10.5 13q13 19 20.5 30.5t11.5 19.5t7 13.5t8 13.5q10 16 16 26.5t9 20.5t4 22.5t1 34.5q0 10 10 20t24.5 18.5
t30 14t26.5 5.5q15 0 23.5 -10.5t12.5 -24t5 -26t1 -17.5z" />
    <glyph glyph-name="mu" unicode="&#xb5;" horiz-adv-x="590" 
d="M212 528l-61 -310q-6 -29 -6 -51q0 -96 89 -96q63 0 96.5 45t52.5 141l53 271h110l-71 -361q-9 -47 -9 -65q0 -17 7.5 -24.5t25.5 -7.5h8t9 1l-16 -78q-17 -5 -35 -6.5t-38 -1.5q-73 0 -73 61v7q-20 -33 -53 -51t-71 -18t-66 12t-49 41l-48 -247h-112l145 738h112z" />
    <glyph glyph-name="paragraph" unicode="&#xb6;" horiz-adv-x="675" 
d="M633 57q0 -13 -4.5 -27.5t-12.5 -26.5t-20 -20t-28 -8q-6 0 -14.5 2.5t-16.5 5.5t-15 6t-8 5q-11 14 -14.5 26.5t-3.5 24.5q0 15 3.5 29t4.5 28v14q0 17 -1.5 36t-2.5 36q-2 52 -6 97t-8 92t-7 102t-3 127q-4 -10 -9.5 -24.5t-11 -28.5t-9 -25t-3.5 -14q0 -2 9 -12t9 -30
q0 -11 -2 -17t-7 -12t-13 -14.5t-20 -23.5q-1 -1 -3 -14t-4.5 -32.5t-4.5 -43.5t-4 -47t-3.5 -42t-1.5 -30v-20q0 -11 0.5 -24t3.5 -24q4 -17 14.5 -32.5t10.5 -23.5q0 -13 -5 -25t-13.5 -21t-19 -14.5t-21.5 -5.5q-15 0 -27 8.5t-20.5 20.5t-13.5 26t-5 25v220l-6 5
q-2 0 -11 -3t-23 -6t-32 -5.5t-37 -2.5q-25 0 -52 14t-50 35.5t-38 47.5t-15 49q0 51 19.5 93.5t51.5 76t73 58t84.5 41t85.5 24.5t76 8q8 0 18 -7t19 -17t16.5 -19.5t9.5 -15.5h9q3 0 6 4t9 9.5t15.5 9.5t25.5 4q39 0 52 -18.5t13 -44.5v-9t-1 -9q-9 -64 -15 -126
q-5 -54 -9.5 -114.5t-4.5 -110.5q0 -6 3 -22.5t3 -30.5q1 -24 1 -53t8 -55q4 -14 9 -20.5t9 -11t6.5 -10t2.5 -17.5zM328 572q-3 3 -11 5l-8 2q-4 -2 -26 -9t-47.5 -20.5t-46 -33t-20.5 -46.5q0 -26 17.5 -38.5t43.5 -12.5q43 0 60 11.5t22.5 32t6 48.5t9.5 61z" />
    <glyph glyph-name="periodcentered" unicode="&#xb7;" horiz-adv-x="296" 
d="M229 272q0 -18 -10 -34.5t-24.5 -30t-31.5 -21.5t-32 -8q-17 0 -30 10.5t-22 24.5t-13.5 28.5t-4.5 23.5q0 24 4.5 38.5t12 23t18.5 12t24 5.5q6 0 10 5t10 5q8 0 10.5 -6t8.5 -6q8 0 6.5 2t5.5 2q12 0 23 -9.5t18.5 -22t12 -24.5t4.5 -18z" />
    <glyph glyph-name="cedilla" unicode="&#xb8;" 
d="M306 -113q0 -26 -14.5 -51.5t-36.5 -49t-48.5 -42.5t-50.5 -31q-6 -3 -14.5 -8.5t-17 -11.5t-15 -10t-8.5 -4q-8 0 -16 12.5t-8 18.5q0 4 4.5 15.5t8.5 20.5q20 3 38 19t31.5 38.5t21 48t7.5 47.5v7q0 8 11 18t16 12q3 2 13 4.5t21 2.5q9 0 17 -3t15 -10t12.5 -15.5
t9 -16t3.5 -11.5z" />
    <glyph glyph-name="uni00B9" unicode="&#xb9;" horiz-adv-x="274" 
d="M217 678q0 -24 -7.5 -57t-16.5 -65q-3 -10 -6.5 -24.5t-7.5 -29.5t-6.5 -29t-2.5 -24q0 -6 4 -13t9 -14.5t9 -15.5t4 -16q0 -9 -4 -25.5t-11 -33t-18 -28.5t-24 -12q-12 0 -21 9.5t-15.5 22t-10 23.5t-3.5 14q0 14 4 42.5t9 60.5q5 29 9.5 59.5t9.5 56.5q0 -1 -1 -2
l-4 -6q-10 -14 -23.5 -20t-31.5 -6q-17 0 -29.5 8.5t-12.5 31.5q0 10 9 22.5t19 13.5q23 10 45.5 29.5t33.5 44.5q5 3 9.5 5.5t8.5 7.5l3 4q3 5 8 5.5t16 0.5q18 0 32 -11.5t14 -28.5z" />
    <glyph glyph-name="ordmasculine" unicode="&#xba;" horiz-adv-x="451" 
d="M366 658q0 -20 -5 -44t-14.5 -46.5t-23 -41.5t-29.5 -31q-8 -6 -14.5 -15.5t-16.5 -17.5q-6 -5 -15.5 -10t-20.5 -9.5t-23.5 -7.5t-22.5 -3q-13 0 -29.5 5.5t-31 16t-24.5 24t-10 30.5q0 20 4.5 33t10.5 25t11 27t7 39q29 26 49.5 44.5t39.5 30.5t39.5 18t49.5 6
q14 0 26.5 -7.5t22 -18.5t15 -24t5.5 -23zM297 644v1q0 1 0.5 1t0.5 1q0 2 -2 2q-7 0 -12.5 -1t-11.5 -3t-13.5 -5t-19.5 -8q-10 -5 -22 -19.5t-14 -22.5q-1 -4 -2.5 -9.5t-3.5 -7.5q-5 -8 -9 -12t-6.5 -8t-3.5 -9.5t-1 -14.5q0 -3 1 -6l13 -8q1 -1 4 -1q6 0 14.5 5.5
t16.5 12t14 13t8 8.5q5 4 13.5 15t16.5 25t13.5 28t5.5 23z" />
    <glyph glyph-name="guillemotright" unicode="&#xbb;" horiz-adv-x="644" 
d="M604 236q0 -24 -27 -47t-67 -41q-20 -9 -45 -21t-50.5 -23.5t-47.5 -19t-34 -7.5q-6 12 -6 25q0 14 5.5 27t14.5 24t18.5 18t20.5 12.5t23 11t27 13.5q19 11 28.5 24t9.5 24q0 12 -12 18q-26 11 -45.5 30.5t-33 39.5t-20.5 36.5t-7 22.5q0 5 10 7.5t25 2.5q20 0 42 -4.5
t33 -13.5q25 -12 38.5 -28.5t34.5 -40.5q10 -12 21.5 -23t21.5 -21.5t16 -22t6 -23.5zM313 250q0 -7 -1 -18t-6 -23.5t-15.5 -25t-30.5 -21.5t-43.5 -20.5t-46 -22t-42.5 -17.5t-32 -7q-11 0 -15.5 6.5t-4.5 16.5q0 14 5.5 29t10.5 25q6 10 16 15.5t21.5 8.5t23.5 4.5
t23 5.5q8 3 18 9t20 13q11 7 23 16q-7 6 -15.5 15.5t-17 19.5t-16.5 17.5t-14 9.5q-9 3 -19.5 13.5t-19 23.5t-14.5 26t-6 20v3q3 10 15 13t26 3q10 0 19 -0.5t17 -0.5q13 0 26 -8t25 -20.5t23 -26.5t22 -26q17 -20 21 -34.5t4 -27.5v-14z" />
    <glyph glyph-name="onequarter" unicode="&#xbc;" horiz-adv-x="741" 
d="M723 128q0 -15 -12 -30q-6 -9 -16 -17.5t-19 -18t-15.5 -19.5t-6.5 -21q0 -8 3.5 -16.5t8 -17t8.5 -16t4 -12.5q0 -8 -5.5 -17t-14 -17t-18.5 -13.5t-18 -5.5q-18 0 -28.5 7t-15.5 17.5t-6 24t-1 27.5v11q0 17 -1 22q-8 -2 -12 -2q-24 0 -44 9.5t-34.5 24t-23.5 32.5
t-12 35v58q4 8 4 23v13.5t1 12.5q9 15 13 39.5t4 41.5q0 12 -1 16q8 17 10 33.5t7 33.5q4 16 14 26.5t34 10.5q15 0 25.5 -7t17.5 -16.5t10 -20.5t3 -20q0 -3 -1 -7t-2 -7q-2 -5 -2.5 -9.5t-1.5 -9.5q-6 -5 -15.5 -26.5t-18.5 -47.5t-15.5 -52t-6.5 -40q0 -8 1.5 -19
t6.5 -21t14 -17t25 -7q5 0 5.5 4.5t2.5 11.5q2 12 3.5 31t5.5 37t13.5 30.5t28.5 12.5q12 0 21 -6t15.5 -14t9.5 -17.5t3 -16.5q0 -2 -1.5 -7.5t-3 -11.5t-2.5 -11.5t-1 -6.5q1 0 6 2.5t10 6t10 6t8 2.5q9 0 14 -6.5t5 -14.5zM581 656q-6 -19 -20 -41t-30 -43
q-8 -11 -16 -21t-15 -19q-7 -8 -12.5 -15t-8.5 -12q-22 -34 -36 -55.5t-23 -35.5t-14.5 -23t-10.5 -18t-10.5 -19.5t-15 -28t-24.5 -44.5t-37 -67q-13 -23 -23 -44t-21 -38q-5 -8 -10.5 -19t-9.5 -23q-2 -4 -4 -7.5t-4 -7.5l-9 -18q-5 -10 -11 -23t-12.5 -26t-13 -25.5
t-10.5 -22.5q-3 -6 -8 -15t-10 -20q-6 -5 -13 -9t-15 -4q-2 0 -3.5 0.5t-3.5 0.5q-11 2 -15.5 12t-4.5 24q0 15 5 30q1 3 5.5 14t11.5 26t14 30.5t13 27.5q6 11 10 18.5l8 15t9 16t11 21.5q32 64 56.5 106.5t42.5 71.5q22 36 36 59t25.5 43t22.5 41t28 53q28 39 47 74
q10 18 19 34.5t17 30.5q15 26 31 43t38 17q2 0 4 -0.5t4 -0.5q7 -2 12.5 -17.5t5.5 -31.5q0 -7 -2 -15zM240 678q0 -24 -7.5 -57t-16.5 -65q-3 -10 -6.5 -24.5t-7.5 -29.5t-6.5 -29t-2.5 -24q0 -6 4 -13t9 -14.5t9 -15.5t4 -16q0 -9 -4 -25.5t-11 -33t-18 -28.5t-24 -12
q-12 0 -21 9.5t-15.5 22t-10 23.5t-3.5 14q0 14 4 42.5t9 60.5q5 29 9.5 59.5t9.5 56.5q0 -1 -0.5 -1t-0.5 -1l-4 -6q-10 -14 -23.5 -20t-31.5 -6t-30 8.5t-12 31.5q0 10 9 22.5t19 13.5q23 10 45.5 29.5t33.5 44.5q5 3 9.5 5.5t8.5 7.5l3 4q3 5 8 5.5t16 0.5q18 0 32 -11.5
t14 -28.5z" />
    <glyph glyph-name="onehalf" unicode="&#xbd;" horiz-adv-x="713" 
d="M689 9q0 -9 -3.5 -19.5t-10 -20t-16.5 -16t-22 -6.5h-21q-2 0 -10 2.5t-17 5.5l-18 6t-13 5q-8 3 -11 3q-17 0 -26.5 -5.5t-21.5 -15.5q-14 -11 -28 -11q-9 0 -17.5 5t-15.5 12.5t-11 16.5t-4 18q0 21 10 31.5t22.5 19.5t24.5 20t15 32q21 39 35 90t25 96q-20 -1 -34 -15
t-26 -30.5t-23 -30.5t-25 -14q-10 0 -19.5 5.5t-12.5 10.5q-7 11 -7 25q0 8 2 16l4 16q19 22 43 44t49 39t47.5 27.5t38.5 10.5q13 0 22.5 -9.5t15.5 -22.5t9 -25.5t3 -19.5q0 -8 -2 -12.5t-5 -11.5q-2 -5 -4.5 -13t-2.5 -22l-70 -175q2 -2 8.5 -3.5t13.5 -3t13 -2.5t9 -1
q2 0 7.5 0.5t12 1t12.5 1t8 0.5q9 0 17 -7t15 -16t11 -18t4 -14zM581 656q-6 -19 -20 -41t-30 -43q-8 -11 -16 -21t-15 -19q-7 -8 -12.5 -15t-8.5 -12q-22 -34 -36 -55.5t-23 -35.5t-14.5 -23t-10.5 -18t-10.5 -19.5t-15 -28t-24.5 -44.5t-37 -67q-13 -23 -23 -44t-21 -38
q-5 -8 -10.5 -19t-9.5 -23q-2 -4 -4 -7.5t-4 -7.5l-9 -18q-5 -10 -11 -23t-12.5 -26t-13 -25.5t-10.5 -22.5q-3 -6 -8 -15t-10 -20q-6 -5 -13 -9t-15 -4q-2 0 -3.5 0.5t-3.5 0.5q-11 2 -15.5 12t-4.5 24q0 15 5 30q1 3 5.5 14t11.5 26t14 30.5t13 27.5q6 11 10 18.5l8 15
t9 16t11 21.5q32 64 56.5 106.5t42.5 71.5q22 36 36 59t25.5 43t22.5 41t28 53q28 39 47 74q10 18 19 34.5t17 30.5q15 26 31 43t38 17q2 0 4 -0.5t4 -0.5q7 -2 12.5 -17.5t5.5 -31.5q0 -7 -2 -15zM240 678q0 -24 -7.5 -57t-16.5 -65q-3 -10 -6.5 -24.5t-7.5 -29.5t-6.5 -29
t-2.5 -24q0 -6 4 -13t9 -14.5t9 -15.5t4 -16q0 -9 -4 -25.5t-11 -33t-18 -28.5t-24 -12q-12 0 -21 9.5t-15.5 22t-10 23.5t-3.5 14q0 14 4 42.5t9 60.5q5 29 9.5 59.5t9.5 56.5q0 -1 -0.5 -1t-0.5 -1l-4 -6q-10 -14 -23.5 -20t-31.5 -6t-30 8.5t-12 31.5q0 10 9 22.5
t19 13.5q23 10 45.5 29.5t33.5 44.5q5 3 9.5 5.5t8.5 7.5l3 4q4 4 8.5 5t15.5 1q18 0 32 -11.5t14 -28.5z" />
    <glyph glyph-name="threequarters" unicode="&#xbe;" horiz-adv-x="806" 
d="M788 128q0 -15 -12 -30q-6 -9 -16 -17.5t-19 -18t-15.5 -19.5t-6.5 -21q0 -8 3.5 -16.5t8 -17t8.5 -16t4 -12.5q0 -8 -5.5 -17t-14 -17t-18.5 -13.5t-18 -5.5q-18 0 -28.5 7t-15.5 17.5t-6 24t-1 27.5v11q0 17 -1 22q-8 -2 -12 -2q-24 0 -44 9.5t-34.5 24t-23.5 32.5
t-12 35v58q4 8 4 23v26q10 16 14 41t4 42q0 11 -1 14q8 17 10 33.5t7 33.5q4 16 14 26.5t34 10.5q15 0 25.5 -7t17.5 -16.5t10 -20.5t3 -20q0 -3 -1 -7t-2 -7q-2 -5 -2.5 -9.5t-1.5 -9.5q-6 -5 -15.5 -26.5t-18.5 -47.5t-15.5 -52t-6.5 -40q0 -8 1.5 -19t6.5 -21t14 -17
t25 -7q5 0 5.5 4.5t2.5 11.5q2 12 3.5 31t5.5 37t13.5 30.5t28.5 12.5q12 0 21 -6t15.5 -14t9.5 -17.5t3 -16.5q0 -2 -1.5 -7.5t-3 -11.5t-2.5 -11.5t-1 -6.5q1 0 6 2.5t10 6t10 6t8 2.5q9 0 14 -6.5t5 -14.5zM646 656q-6 -19 -20.5 -41t-30.5 -43q-8 -11 -15.5 -21
t-14.5 -19q-7 -8 -12.5 -15t-8.5 -12q-22 -34 -36 -55.5t-23 -35.5t-14.5 -23t-10.5 -18t-10.5 -19.5t-15 -28t-24.5 -44.5t-37 -67q-13 -23 -23 -44t-21 -38q-5 -8 -10.5 -19t-9.5 -23q-2 -4 -4 -7.5t-4 -7.5l-9 -18q-5 -10 -11 -23t-12.5 -26t-13 -25.5t-10.5 -22.5
q-3 -6 -8 -15t-10 -20q-6 -5 -13 -9t-15 -4q-2 0 -3.5 0.5t-3.5 0.5q-11 2 -15.5 12t-4.5 24q0 15 5 30q1 3 5.5 14t11.5 26t14 30.5t13 27.5q6 11 10 18.5l8 15t9 16t11 21.5q32 64 56.5 106.5t42.5 71.5q22 36 36 59t25.5 43t22.5 41t28 53q28 39 47 74q10 18 19 34.5
t17 30.5q15 26 31 43t38 17q2 0 4 -0.5t4 -0.5q7 -2 12.5 -17.5t5.5 -31.5q0 -7 -2 -15zM302 363q0 -2 -2 -7.5t-5 -13t-6.5 -15t-6.5 -11.5q-4 -5 -15 -14.5t-22 -14.5q-3 -2 -21 -9.5t-40.5 -15.5t-44.5 -15t-32 -7q-23 0 -43 14.5t-20 39.5q0 5 2.5 13.5t8 16.5t13 14
t18.5 6q3 0 14.5 -3.5t15.5 -4.5q11 -3 18 -5t9 -2q10 0 22 4t22.5 11t17 16.5t6.5 20.5q0 9 -4 19.5t-11.5 19.5t-17.5 15t-23 6q-2 0 -8.5 -1t-15.5 -3l-12.5 -2.5t-12.5 -1.5q-12 0 -20.5 5.5t-14 13.5t-7.5 17t-2 16q0 3 3 15.5t11 17.5q10 7 23.5 17.5t26 22.5t21.5 25
t10 26h-4q-6 0 -13 -4t-16 -9t-19.5 -9t-21.5 -4q-19 0 -29.5 17t-10.5 29q0 15 15 29t35 24.5t39.5 16.5t29.5 6q42 0 66 -25t24 -60q0 -22 -7.5 -38.5t-15.5 -28.5q-5 -6 -9 -10.5t-7 -8.5q-5 -7 -5 -10q0 1 4 -3q13 -11 26.5 -22.5t22.5 -25.5q14 -23 27.5 -49t13.5 -61z
" />
    <glyph glyph-name="questiondown" unicode="&#xbf;" horiz-adv-x="409" 
d="M315 417q-2 -13 -9 -28.5t-19 -29t-28 -22.5t-36 -9q-18 0 -30 6.5t-18.5 15.5t-9 19.5t-2.5 18.5v5q0 3 6.5 18t16 31.5t21.5 30t24 13.5h14q9 0 21 -4t23 -12.5t18.5 -20t7.5 -26.5v-6zM359 -71q-3 -32 -25.5 -69t-54.5 -68.5t-70 -52.5t-74 -21q-32 0 -54 19t-36 47
t-20.5 58.5t-6.5 53.5q0 4 0.5 7.5t0.5 6.5q3 27 16 53t31.5 50.5t39.5 47t39 42.5t30.5 37t13.5 31v1q0 3 -4 3q-3 0 -6 -1t-5 -1q-11 0 -16.5 -3t-10 -6.5t-10.5 -6.5t-18 -3q-23 0 -32 11.5t-9 27.5v7q2 20 20.5 37t41.5 29.5t45 19.5t31 7q26 0 44.5 -8.5t30 -21.5
t16.5 -29.5t5 -32.5q0 -3 -0.5 -6t-0.5 -6q-4 -36 -31 -68.5t-59 -66t-59.5 -71.5t-32.5 -84q0 -2 -0.5 -5t-0.5 -6q0 -14 6 -30t23 -16q20 0 34.5 11t25 27.5t19 35.5t17 35.5t19.5 27.5t26 11q23 0 42 -14t19 -40v-7z" />
    <glyph glyph-name="Agrave" unicode="&#xc0;" horiz-adv-x="633" 
d="M579 11q-1 -8 -8 -27.5t-18.5 -40t-25 -36.5t-28.5 -16q-20 0 -32.5 13.5t-20 34t-10 45t-3.5 46t-1 36.5t-1 17q-2 15 -3 26.5t-2 24.5t-3 28.5t-7 38.5q-27 -8 -57.5 -12t-61.5 -8.5t-59.5 -12t-51.5 -21.5q-13 -8 -21 -25t-15.5 -38t-15 -44t-18.5 -42t-26 -31
t-38 -12q-14 0 -26.5 8t-22.5 20t-15.5 25t-5.5 23v2q2 30 17.5 52.5t35.5 45t40 48.5t31 64q5 11 18 23t23 26q5 7 9.5 18.5t9 24t9.5 25.5t11 23q12 20 31.5 53t42 70.5t47 75.5t47 68.5t41 49.5t29.5 19q25 0 39.5 -9.5t22 -26t9 -40.5t1.5 -52q0 -25 -0.5 -44t-0.5 -38
q0 -25 2 -56t7 -82q0 -7 4 -10t10 -4t12.5 -2t11.5 -4q13 -10 17 -28t4 -28v-3q-1 -18 -8.5 -26t-16.5 -14t-17 -13.5t-9 -23.5q0 -3 2 -12t4.5 -21t6 -25t6.5 -24q2 -10 14 -21t18 -22q4 -9 7 -21t5 -23.5t3 -21t1 -13.5zM419 423q-5 40 -8.5 69t-10.5 59
q-12 -14 -23 -30.5t-22 -32.5q-4 -6 -13 -20.5t-21 -34t-24.5 -41t-23 -41t-17 -34t-6.5 -19.5q0 -8 6.5 -10t14.5 -2h10q3 0 5 1q9 1 29 7.5t41 14t37.5 13.5t18.5 8zM474 762q4 -5 4 -11q0 -16 -25 -16q-15 0 -34.5 7.5t-54.5 36.5q0 10 -9 14t-15 11q-20 23 -34.5 37.5
t-23.5 28t-13.5 30.5t-4.5 45v10q20 6 35.5 15t31.5 9q15 0 26.5 -10.5t21 -25.5t17.5 -32t15 -30q23 -41 36 -69.5t27 -49.5z" />
    <glyph glyph-name="Aacute" unicode="&#xc1;" horiz-adv-x="633" 
d="M579 11q-1 -8 -8 -27.5t-18.5 -40t-25 -36.5t-28.5 -16q-20 0 -32.5 13.5t-20 34t-10 45t-3.5 46t-1 36.5t-1 17q-2 15 -3 26.5t-2 24.5t-3 28.5t-7 38.5q-27 -8 -57.5 -12t-61.5 -8.5t-59.5 -12t-51.5 -21.5q-13 -8 -21 -25t-15.5 -38t-15 -44t-18.5 -42t-26 -31
t-38 -12q-14 0 -26.5 8t-22.5 20t-15.5 25t-5.5 23v2q2 30 17.5 52.5t35.5 45t40 48.5t31 64q5 11 18 23t23 26q5 7 9.5 18.5t9 24t9.5 25.5t11 23q12 20 31.5 53t42 70.5t47 75.5t47 68.5t41 49.5t29.5 19q25 0 39.5 -9.5t22 -26t9 -40.5t1.5 -52q0 -25 -0.5 -44t-0.5 -38
q0 -25 2 -56t7 -82q0 -7 4 -10t10 -4t12.5 -2t11.5 -4q13 -10 17 -28t4 -28v-3q-1 -18 -8.5 -26t-16.5 -14t-17 -13.5t-9 -23.5q0 -3 2 -12t4.5 -21t6 -25t6.5 -24q2 -10 14 -21t18 -22q4 -9 7 -21t5 -23.5t3 -21t1 -13.5zM419 423q-5 40 -8.5 69t-10.5 59
q-12 -14 -23 -30.5t-22 -32.5q-4 -6 -13 -20.5t-21 -34t-24.5 -41t-23 -41t-17 -34t-6.5 -19.5q0 -8 6.5 -10t14.5 -2h10q3 0 5 1q9 1 29 7.5t41 14t37.5 13.5t18.5 8zM570 952q0 -9 -6 -22t-15.5 -27t-21 -29t-22.5 -30q-9 -12 -26.5 -30.5t-38 -36.5t-43 -30.5
t-41.5 -12.5q-8 0 -14.5 7.5t-6.5 12.5q0 6 1.5 9t5 6.5t8 8.5t10.5 13q13 19 20.5 30.5t11.5 19.5t7 13.5t8 13.5q10 16 16 26.5t9 20.5t4 22.5t1 34.5q0 10 10 20t24.5 18.5t30 14t26.5 5.5q15 0 23.5 -10.5t12.5 -24t5 -26t1 -17.5z" />
    <glyph glyph-name="Acircumflex" unicode="&#xc2;" horiz-adv-x="633" 
d="M579 11q-1 -8 -8 -27.5t-18.5 -40t-25 -36.5t-28.5 -16q-20 0 -32.5 13.5t-20 34t-10 45t-3.5 46t-1 36.5t-1 17q-2 15 -3 26.5t-2 24.5t-3 28.5t-7 38.5q-27 -8 -57.5 -12t-61.5 -8.5t-59.5 -12t-51.5 -21.5q-13 -8 -21 -25t-15.5 -38t-15 -44t-18.5 -42t-26 -31
t-38 -12q-14 0 -26.5 8t-22.5 20t-15.5 25t-5.5 23v2q2 30 17.5 52.5t35.5 45t40 48.5t31 64q5 11 18 23t23 26q5 7 9.5 18.5t9 24t9.5 25.5t11 23q12 20 31.5 53t42 70.5t47 75.5t47 68.5t41 49.5t29.5 19q25 0 39.5 -9.5t22 -26t9 -40.5t1.5 -52q0 -25 -0.5 -44t-0.5 -38
q0 -25 2 -56t7 -82q0 -7 4 -10t10 -4t12.5 -2t11.5 -4q13 -10 17 -28t4 -28v-3q-1 -18 -8.5 -26t-16.5 -14t-17 -13.5t-9 -23.5q0 -3 2 -12t4.5 -21t6 -25t6.5 -24q2 -10 14 -21t18 -22q4 -9 7 -21t5 -23.5t3 -21t1 -13.5zM419 423q-5 40 -8.5 69t-10.5 59
q-12 -14 -23 -30.5t-22 -32.5q-4 -6 -13 -20.5t-21 -34t-24.5 -41t-23 -41t-17 -34t-6.5 -19.5q0 -8 6.5 -10t14.5 -2h10q3 0 5 1q9 1 29 7.5t41 14t37.5 13.5t18.5 8zM609 791q0 -26 -6.5 -32t-23.5 -6h-22q-23 0 -43 9.5t-37 21.5t-32 21.5t-27 9.5q-15 0 -32 -9.5
t-35.5 -22.5t-38 -25.5t-39.5 -19.5q-9 -3 -19 -3q-17 0 -27.5 10t-10.5 28q0 7 6 20.5t17 21.5q10 7 32 23t41 32q15 12 25.5 25.5t19.5 25t19 18.5t23 7q5 0 16 -6t23 -14l22.5 -15l13.5 -9q10 -6 29.5 -18.5t33.5 -23.5q6 -3 17.5 -9t18.5 -10q15 -8 25.5 -22t10.5 -28z
" />
    <glyph glyph-name="Atilde" unicode="&#xc3;" horiz-adv-x="633" 
d="M579 11q-1 -8 -8 -27.5t-18.5 -40t-25 -36.5t-28.5 -16q-20 0 -32.5 13.5t-20 34t-10 45t-3.5 46t-1 36.5t-1 17q-2 15 -3 26.5t-2 24.5t-3 28.5t-7 38.5q-27 -8 -57.5 -12t-61.5 -8.5t-59.5 -12t-51.5 -21.5q-13 -8 -21 -25t-15.5 -38t-15 -44t-18.5 -42t-26 -31
t-38 -12q-14 0 -26.5 8t-22.5 20t-15.5 25t-5.5 23v2q2 30 17.5 52.5t35.5 45t40 48.5t31 64q5 11 18 23t23 26q5 7 9.5 18.5t9 24t9.5 25.5t11 23q12 20 31.5 53t42 70.5t47 75.5t47 68.5t41 49.5t29.5 19q25 0 39.5 -9.5t22 -26t9 -40.5t1.5 -52q0 -25 -0.5 -44t-0.5 -38
q0 -25 2 -56t7 -82q0 -7 4 -10t10 -4t12.5 -2t11.5 -4q13 -10 17 -28t4 -28v-3q-1 -18 -8.5 -26t-16.5 -14t-17 -13.5t-9 -23.5q0 -3 2 -12t4.5 -21t6 -25t6.5 -24q2 -10 14 -21t18 -22q4 -9 7 -21t5 -23.5t3 -21t1 -13.5zM419 423q-5 40 -8.5 69t-10.5 59
q-12 -14 -23 -30.5t-22 -32.5q-4 -6 -13 -20.5t-21 -34t-24.5 -41t-23 -41t-17 -34t-6.5 -19.5q0 -8 6.5 -10t14.5 -2h10q3 0 5 1q9 1 29 7.5t41 14t37.5 13.5t18.5 8zM551 843q0 -15 -2.5 -33.5t-10.5 -34t-22 -26.5t-37 -11q-20 0 -34.5 9.5t-25.5 24t-19 31.5t-15 32
q-13 -5 -23.5 -19t-19 -29.5t-14 -27.5t-9.5 -12h-19q-9 0 -16 5t-12.5 12t-8.5 15t-3 13q0 11 7 23.5t16 25t18 24.5t14 23q20 9 28 14l12 7.5t8 3t17 0.5q29 0 52 -24.5t38 -58.5h5q3 5 5 11.5t2 9.5q0 15 -6 23t-12.5 14t-12.5 13.5t-6 22.5q0 5 5.5 11.5t12.5 12.5
t14.5 10t12.5 4q22 0 34.5 -11.5t18.5 -29t7 -38.5t1 -40z" />
    <glyph glyph-name="Adieresis" unicode="&#xc4;" horiz-adv-x="633" 
d="M579 11q-1 -8 -8 -27.5t-18.5 -40t-25 -36.5t-28.5 -16q-20 0 -32.5 13.5t-20 34t-10 45t-3.5 46t-1 36.5t-1 17q-2 15 -3 26.5t-2 24.5t-3 28.5t-7 38.5q-27 -8 -57.5 -12t-61.5 -8.5t-59.5 -12t-51.5 -21.5q-13 -8 -21 -25t-15.5 -38t-15 -44t-18.5 -42t-26 -31
t-38 -12q-14 0 -26.5 8t-22.5 20t-15.5 25t-5.5 23v2q2 30 17.5 52.5t35.5 45t40 48.5t31 64q5 11 18 23t23 26q5 7 9.5 18.5t9 24t9.5 25.5t11 23q12 20 31.5 53t42 70.5t47 75.5t47 68.5t41 49.5t29.5 19q25 0 39.5 -9.5t22 -26t9 -40.5t1.5 -52q0 -25 -0.5 -44t-0.5 -38
q0 -25 2 -56t7 -82q0 -7 4 -10t10 -4t12.5 -2t11.5 -4q13 -10 17 -28t4 -28v-3q-1 -18 -8.5 -26t-16.5 -14t-17 -13.5t-9 -23.5q0 -3 2 -12t4.5 -21t6 -25t6.5 -24q2 -10 14 -21t18 -22q4 -9 7 -21t5 -23.5t3 -21t1 -13.5zM419 423q-5 40 -8.5 69t-10.5 59
q-12 -14 -23 -30.5t-22 -32.5q-4 -6 -13 -20.5t-21 -34t-24.5 -41t-23 -41t-17 -34t-6.5 -19.5q0 -8 6.5 -10t14.5 -2h10q3 0 5 1q9 1 29 7.5t41 14t37.5 13.5t18.5 8zM559 843q0 -9 -1.5 -22.5t-8 -25.5t-18.5 -21t-33 -9q-15 0 -28.5 12.5t-24 29.5t-16.5 33.5t-6 25.5
q0 10 7.5 19t17.5 16t20 11.5t15 4.5q13 0 26.5 -8.5t24.5 -20t18 -24t7 -21.5zM388 817q0 -8 -6 -19.5t-15 -22t-19.5 -18t-20.5 -7.5q-8 0 -19.5 6t-22.5 13t-19 13.5t-9 6.5q-1 9 -2.5 20.5t-1.5 16.5q0 11 0.5 15.5t3.5 9t9 12.5t17 25q2 0 6 -1.5t9 -1.5t13 5t13 5
q15 0 27 -9t20 -21t12.5 -25.5t4.5 -22.5z" />
    <glyph glyph-name="Aring" unicode="&#xc5;" horiz-adv-x="633" 
d="M579 11q-1 -8 -8 -27.5t-18.5 -40t-25 -36.5t-28.5 -16q-20 0 -32.5 13.5t-20 34t-10 45t-3.5 46t-1 36.5t-1 17q-2 15 -3 26.5t-2 24.5t-3 28.5t-7 38.5q-27 -8 -57.5 -12t-61.5 -8.5t-59.5 -12t-51.5 -21.5q-13 -8 -21 -25t-15.5 -38t-15 -44t-18.5 -42t-26 -31
t-38 -12q-14 0 -26.5 8t-22.5 20t-15.5 25t-5.5 23v2q2 30 17.5 52.5t35.5 45t40 48.5t31 64q5 11 18 23t23 26q5 7 9.5 18.5t9 24t9.5 25.5t11 23q12 20 31.5 53t42 70.5t47 75.5t47 68.5t41 49.5t29.5 19q25 0 39.5 -9.5t22 -26t9 -40.5t1.5 -52q0 -25 -0.5 -44t-0.5 -38
q0 -25 2 -56t7 -82q0 -7 4 -10t10 -4t12.5 -2t11.5 -4q13 -10 17 -28t4 -28v-3q-1 -18 -8.5 -26t-16.5 -14t-17 -13.5t-9 -23.5q0 -3 2 -12t4.5 -21t6 -25t6.5 -24q2 -10 14 -21t18 -22q4 -9 7 -21t5 -23.5t3 -21t1 -13.5zM419 423q-5 40 -8.5 69t-10.5 59
q-12 -14 -23 -30.5t-22 -32.5q-4 -6 -13 -20.5t-21 -34t-24.5 -41t-23 -41t-17 -34t-6.5 -19.5q0 -8 6.5 -10t14.5 -2h10q3 0 5 1q9 1 29 7.5t41 14t37.5 13.5t18.5 8zM563 885q0 -22 -3.5 -35t-8.5 -22q-1 -2 -8.5 -12.5t-18.5 -22t-22.5 -20.5t-20.5 -9q-3 0 -9 -1t-9 -1
q-11 0 -26 8t-29 19.5t-24 25t-10 25.5q0 13 2.5 41.5t11.5 57.5t28 51.5t52 22.5q20 0 37.5 -16t30 -37.5t20 -43t7.5 -31.5zM500 865q0 7 -2.5 18t-6.5 21.5t-9.5 19t-12.5 11.5q-5 -8 -12.5 -17.5t-14.5 -19.5t-12 -18.5t-5 -12.5q0 -3 1.5 -9.5t5.5 -13t9.5 -11.5
t14.5 -5q4 0 11 3.5t14.5 8.5t13 12t5.5 13z" />
    <glyph glyph-name="AE" unicode="&#xc6;" horiz-adv-x="905" 
d="M893 701q-1 -6 -3.5 -15t-6 -17.5t-8 -15.5t-9.5 -9q-44 -20 -70.5 -33t-45.5 -21t-34.5 -11t-35.5 -3q-6 0 -19.5 -0.5t-24.5 -0.5q-3 -14 -2 -28.5t-5 -31.5q-3 -9 -7 -16.5t-8 -17.5t-7.5 -23.5t-5.5 -33.5v-3q0 -11 8.5 -14t10.5 -3q7 0 13.5 -2t13.5 -2
q46 0 71.5 12t41.5 26t30 26t38 12q13 0 24 -10t18.5 -23t11.5 -25.5t4 -17.5q-2 -13 -9 -25.5t-16 -23t-18 -17.5t-15 -9q-14 -5 -36.5 -7.5t-39.5 -8.5q-5 -2 -17 -8.5t-26 -13.5t-29 -12.5t-26 -5.5q-8 0 -6.5 1.5t-5.5 1.5q-6 0 -11 -4.5t-11 -6.5h-18q-8 0 -16.5 -1
t-17.5 -6q-5 -3 -8 -13t-4.5 -21t-2 -22t-0.5 -17q0 -4 -0.5 -10.5t-0.5 -14.5q0 -10 1.5 -21t6 -20t12.5 -14.5t22 -5.5q26 0 48.5 10t41.5 25t35 33t29.5 33t26 25t24.5 10q29 0 42.5 -17.5t13.5 -40.5v-2q0 -3 1 -6.5t1 -8.5q0 -8 -6 -18t-29 -24q-52 -32 -102.5 -69
t-96.5 -66q-9 -2 -20.5 -3.5t-22 -3t-18.5 -2t-11 -0.5q-29 0 -52 13t-38.5 33.5t-24 46t-8.5 50.5v8q1 4 2.5 14t3.5 22t3.5 24l2.5 20q-27 -8 -58.5 -12t-63 -8.5t-61 -12t-54.5 -21.5q-14 -8 -24.5 -25t-21 -38t-21.5 -44t-24.5 -42t-30.5 -31t-40 -12q-13 0 -24 7.5
t-18.5 18t-12 23t-4.5 22.5q0 2 0.5 3.5t0.5 3.5q6 30 24.5 52.5t41.5 45t46.5 48.5t40.5 64q7 11 21.5 23t26.5 26q6 7 12 18.5t12.5 24t13 25.5t14.5 23q15 20 39 53t51.5 70.5t57.5 75.5t56.5 68.5t48 49.5t32.5 19q26 0 59 -1.5t62.5 -3.5t51 -3.5t24.5 -1.5q26 0 38 6
t21.5 13t21 13t37.5 6q23 0 40 -7.5t17 -36.5v-2zM488 565q-14 -14 -33 -39t-32 -41l-28 -36t-44.5 -58t-42 -58t-19.5 -35v-1q0 -7 6 -9t13 -2h10q3 0 4 1q9 1 31.5 7.5t46.5 14t43 13.5t21 8l22 93q0 31 1.5 59t1.5 54v15t-1 14z" />
    <glyph glyph-name="Ccedilla" unicode="&#xc7;" horiz-adv-x="515" 
d="M496 158q0 -3 -7 -10t-15.5 -15t-16 -15.5t-10.5 -11.5q-21 -30 -48 -54.5t-56 -42t-58 -27t-54 -9.5q-21 0 -45.5 4.5t-47.5 15t-43 27.5t-32 41q-4 8 -7.5 20t-6 24t-4 22t-1.5 13q2 30 8 67.5t15 77.5t20.5 79t23.5 72.5t24.5 58.5t22.5 36q19 20 40 42t45 40.5
t51 30.5t58 12q15 0 37.5 -8.5t44.5 -22.5t37.5 -33.5t15.5 -41.5v-4q-1 -18 -11.5 -34t-25 -28t-30.5 -18.5t-27 -6.5q-16 0 -27.5 6t-20 12.5t-14.5 12.5t-10 6q-28 0 -51 -19.5t-41 -49.5t-31 -66t-22 -69t-13.5 -58t-4.5 -34v-9q0 -45 21 -77t67 -32q45 0 74 19.5
t51.5 43.5t41.5 43.5t45 19.5q7 0 13.5 -7.5t12 -17t9 -17.5zM306 -113q0 -26 -14.5 -51.5t-36.5 -49t-48.5 -42.5t-50.5 -31q-6 -3 -15 -8.5t-17.5 -11.5t-15 -10t-8.5 -4q-8 0 -15.5 12.5t-7.5 18.5q0 4 4 15.5t8 20.5q20 3 38 19t31.5 38.5t21.5 48.5t8 48v6q0 8 11 18
t16 12q3 2 13 4.5t21 2.5q9 0 17 -3t15 -10t12.5 -15.5t9 -16t3.5 -11.5z" />
    <glyph glyph-name="Egrave" unicode="&#xc8;" horiz-adv-x="527" 
d="M514 669q-1 -6 -3.5 -15t-5.5 -18t-7.5 -15.5t-9.5 -7.5q-41 -10 -67.5 -15.5t-44.5 -8.5t-31 -3.5t-27 -0.5h-23q-6 0 -20 -0.5t-25 -0.5q-3 -14 -2 -33t-5 -36q-3 -9 -7 -16.5t-8 -17.5t-7.5 -23.5t-5.5 -33.5v-3q0 -11 8.5 -14t10.5 -3q7 0 14 -2t14 -2q31 0 52 5.5
t35.5 14t25 18.5t20 18.5t20.5 14t27 5.5q13 0 24 -10t18.5 -23t11.5 -25.5t4 -17.5q-2 -13 -9 -25.5t-16 -23t-18 -17.5t-15 -9q-14 -5 -36 -7.5t-39 -8.5q-5 -2 -17 -8.5t-26.5 -13.5t-29.5 -12.5t-26 -5.5q-4 0 -5 0.5t-1 1t-1 1t-4 0.5q-6 0 -11.5 -4.5t-11.5 -6.5h-18
q-8 0 -16.5 -1t-17.5 -6q-5 -3 -8 -13t-4.5 -21t-2 -22t-0.5 -17q0 -4 -0.5 -10t-0.5 -13q0 -10 1.5 -21t6 -20.5t13 -15.5t22.5 -6q40 0 73 7t60.5 15.5t49.5 15.5t40 7q30 0 43 -10.5t13 -33.5q0 -4 1 -7.5t1 -8.5q0 -8 -6 -17.5t-29 -23.5q-26 -16 -54.5 -22t-57 -9.5
t-55.5 -8.5t-50 -20q-9 -2 -20.5 -3.5t-22 -3t-18.5 -2t-11 -0.5q-29 0 -52 13t-39 33.5t-24.5 46t-8.5 50.5v8q1 4 4 23.5t6 43t6 44.5t5 28q9 47 13.5 75.5t7.5 49.5t4 39t2 45q2 48 11.5 75t21 40.5t20.5 18.5t9 11v1q0 8 -6.5 15.5t-6.5 20.5v3q2 20 12 33t24.5 21
t31 11.5t31.5 3.5q3 0 17 -2t30 -5t30 -5t17 -2q26 0 39 1t23.5 2t23.5 2t39 1q23 0 40 -7.5t17 -36.5v-2zM371 762q4 -5 4 -11q0 -16 -25 -16q-15 0 -34.5 7.5t-54.5 36.5q0 10 -9 14t-15 11q-20 23 -34.5 37.5t-23.5 28t-13.5 30.5t-4.5 45v10q20 6 35.5 15t31.5 9
q15 0 26.5 -10.5t21 -25.5t17.5 -32t15 -30q23 -41 36 -69.5t27 -49.5z" />
    <glyph glyph-name="Eacute" unicode="&#xc9;" horiz-adv-x="527" 
d="M514 669q-1 -6 -3.5 -15t-5.5 -18t-7.5 -15.5t-9.5 -7.5q-41 -10 -67.5 -15.5t-44.5 -8.5t-31 -3.5t-27 -0.5h-23q-6 0 -20 -0.5t-25 -0.5q-3 -14 -2 -33t-5 -36q-3 -9 -7 -16.5t-8 -17.5t-7.5 -23.5t-5.5 -33.5v-3q0 -11 8.5 -14t10.5 -3q7 0 14 -2t14 -2q31 0 52 5.5
t35.5 14t25 18.5t20 18.5t20.5 14t27 5.5q13 0 24 -10t18.5 -23t11.5 -25.5t4 -17.5q-2 -13 -9 -25.5t-16 -23t-18 -17.5t-15 -9q-14 -5 -36 -7.5t-39 -8.5q-5 -2 -17 -8.5t-26.5 -13.5t-29.5 -12.5t-26 -5.5q-4 0 -5 0.5t-1 1t-1 1t-4 0.5q-6 0 -11.5 -4.5t-11.5 -6.5h-18
q-8 0 -16.5 -1t-17.5 -6q-5 -3 -8 -13t-4.5 -21t-2 -22t-0.5 -17q0 -4 -0.5 -10t-0.5 -13q0 -10 1.5 -21t6 -20.5t13 -15.5t22.5 -6q40 0 73 7t60.5 15.5t49.5 15.5t40 7q30 0 43 -10.5t13 -33.5q0 -4 1 -7.5t1 -8.5q0 -8 -6 -17.5t-29 -23.5q-26 -16 -54.5 -22t-57 -9.5
t-55.5 -8.5t-50 -20q-9 -2 -20.5 -3.5t-22 -3t-18.5 -2t-11 -0.5q-29 0 -52 13t-39 33.5t-24.5 46t-8.5 50.5v8q1 4 4 23.5t6 43t6 44.5t5 28q9 47 13.5 75.5t7.5 49.5t4 39t2 45q2 48 11.5 75t21 40.5t20.5 18.5t9 11v1q0 8 -6.5 15.5t-6.5 20.5v3q2 20 12 33t24.5 21
t31 11.5t31.5 3.5q3 0 17 -2t30 -5t30 -5t17 -2q26 0 39 1t23.5 2t23.5 2t39 1q23 0 40 -7.5t17 -36.5v-2zM467 952q0 -9 -6 -22t-15.5 -27t-21 -29t-22.5 -30q-9 -12 -26.5 -30.5t-38 -36.5t-43 -30.5t-41.5 -12.5q-8 0 -14.5 7.5t-6.5 12.5q0 6 1.5 9t5 6.5t8 8.5t10.5 13
q13 19 20.5 30.5t11.5 19.5t7 13.5t8 13.5q10 16 16 26.5t9 20.5t4 22.5t1 34.5q0 10 10 20t24.5 18.5t30 14t26.5 5.5q15 0 23.5 -10.5t12.5 -24t5 -26t1 -17.5z" />
    <glyph glyph-name="Ecircumflex" unicode="&#xca;" horiz-adv-x="527" 
d="M514 669q-1 -6 -3.5 -15t-5.5 -18t-7.5 -15.5t-9.5 -7.5q-41 -10 -67.5 -15.5t-44.5 -8.5t-31 -3.5t-27 -0.5h-23q-6 0 -20 -0.5t-25 -0.5q-3 -14 -2 -33t-5 -36q-3 -9 -7 -16.5t-8 -17.5t-7.5 -23.5t-5.5 -33.5v-3q0 -11 8.5 -14t10.5 -3q7 0 14 -2t14 -2q31 0 52 5.5
t35.5 14t25 18.5t20 18.5t20.5 14t27 5.5q13 0 24 -10t18.5 -23t11.5 -25.5t4 -17.5q-2 -13 -9 -25.5t-16 -23t-18 -17.5t-15 -9q-14 -5 -36 -7.5t-39 -8.5q-5 -2 -17 -8.5t-26.5 -13.5t-29.5 -12.5t-26 -5.5q-4 0 -5 0.5t-1 1t-1 1t-4 0.5q-6 0 -11.5 -4.5t-11.5 -6.5h-18
q-8 0 -16.5 -1t-17.5 -6q-5 -3 -8 -13t-4.5 -21t-2 -22t-0.5 -17q0 -4 -0.5 -10t-0.5 -13q0 -10 1.5 -21t6 -20.5t13 -15.5t22.5 -6q40 0 73 7t60.5 15.5t49.5 15.5t40 7q30 0 43 -10.5t13 -33.5q0 -4 1 -7.5t1 -8.5q0 -8 -6 -17.5t-29 -23.5q-26 -16 -54.5 -22t-57 -9.5
t-55.5 -8.5t-50 -20q-9 -2 -20.5 -3.5t-22 -3t-18.5 -2t-11 -0.5q-29 0 -52 13t-39 33.5t-24.5 46t-8.5 50.5v8q1 4 4 23.5t6 43t6 44.5t5 28q9 47 13.5 75.5t7.5 49.5t4 39t2 45q2 48 11.5 75t21 40.5t20.5 18.5t9 11v1q0 8 -6.5 15.5t-6.5 20.5v3q2 20 12 33t24.5 21
t31 11.5t31.5 3.5q3 0 17 -2t30 -5t30 -5t17 -2q26 0 39 1t23.5 2t23.5 2t39 1q23 0 40 -7.5t17 -36.5v-2zM506 791q0 -26 -6.5 -32t-23.5 -6h-22q-23 0 -43 9.5t-37 21.5t-32 21.5t-27 9.5q-15 0 -32 -9.5t-35.5 -22.5t-38 -25.5t-39.5 -19.5q-9 -3 -19 -3q-17 0 -27.5 10
t-10.5 28q0 7 6 20.5t17 21.5q10 7 32 23t41 32q15 12 25.5 25.5t19.5 25t19 18.5t23 7q5 0 16 -6t23 -14l22.5 -15l13.5 -9q10 -6 29.5 -18.5t33.5 -23.5q6 -3 17.5 -9t18.5 -10q15 -8 25.5 -22t10.5 -28z" />
    <glyph glyph-name="Edieresis" unicode="&#xcb;" horiz-adv-x="527" 
d="M514 669q-1 -6 -3.5 -15t-5.5 -18t-7.5 -15.5t-9.5 -7.5q-41 -10 -67.5 -15.5t-44.5 -8.5t-31 -3.5t-27 -0.5h-23q-6 0 -20 -0.5t-25 -0.5q-3 -14 -2 -33t-5 -36q-3 -9 -7 -16.5t-8 -17.5t-7.5 -23.5t-5.5 -33.5v-3q0 -11 8.5 -14t10.5 -3q7 0 14 -2t14 -2q31 0 52 5.5
t35.5 14t25 18.5t20 18.5t20.5 14t27 5.5q13 0 24 -10t18.5 -23t11.5 -25.5t4 -17.5q-2 -13 -9 -25.5t-16 -23t-18 -17.5t-15 -9q-14 -5 -36 -7.5t-39 -8.5q-5 -2 -17 -8.5t-26.5 -13.5t-29.5 -12.5t-26 -5.5q-4 0 -5 0.5t-1 1t-1 1t-4 0.5q-6 0 -11.5 -4.5t-11.5 -6.5h-18
q-8 0 -16.5 -1t-17.5 -6q-5 -3 -8 -13t-4.5 -21t-2 -22t-0.5 -17q0 -4 -0.5 -10t-0.5 -13q0 -10 1.5 -21t6 -20.5t13 -15.5t22.5 -6q40 0 73 7t60.5 15.5t49.5 15.5t40 7q30 0 43 -10.5t13 -33.5q0 -4 1 -7.5t1 -8.5q0 -8 -6 -17.5t-29 -23.5q-26 -16 -54.5 -22t-57 -9.5
t-55.5 -8.5t-50 -20q-9 -2 -20.5 -3.5t-22 -3t-18.5 -2t-11 -0.5q-29 0 -52 13t-39 33.5t-24.5 46t-8.5 50.5v8q1 4 4 23.5t6 43t6 44.5t5 28q9 47 13.5 75.5t7.5 49.5t4 39t2 45q2 48 11.5 75t21 40.5t20.5 18.5t9 11v1q0 8 -6.5 15.5t-6.5 20.5v3q2 20 12 33t24.5 21
t31 11.5t31.5 3.5q3 0 17 -2t30 -5t30 -5t17 -2q26 0 39 1t23.5 2t23.5 2t39 1q23 0 40 -7.5t17 -36.5v-2zM456 843q0 -9 -1.5 -22.5t-8 -25.5t-18.5 -21t-33 -9q-15 0 -28.5 12.5t-24 29.5t-16.5 33.5t-6 25.5q0 10 7.5 19t17.5 16t20 11.5t15 4.5q13 0 26.5 -8.5t24.5 -20
t18 -24t7 -21.5zM285 817q0 -8 -6 -19.5t-15 -22t-19.5 -18t-20.5 -7.5q-8 0 -19.5 6t-22.5 13t-19 13.5t-9 6.5q-1 9 -2.5 20.5t-1.5 16.5q0 11 0.5 15.5t3.5 9t9 12.5t17 25q2 0 6 -1.5t9 -1.5t13 5t13 5q15 0 27 -9t20 -21t12.5 -25.5t4.5 -22.5z" />
    <glyph glyph-name="Igrave" unicode="&#xcc;" horiz-adv-x="299" 
d="M253 527q0 -3 -6 -32.5t-14 -69t-16 -81t-12 -67.5q-7 -49 -9.5 -74.5t-2.5 -31.5v-2q0 -20 9.5 -45.5t9.5 -54.5v-10q-1 -12 -11 -27t-24 -27.5t-28.5 -21t-24.5 -8.5q-3 0 -11 3.5t-17 8.5t-18 12t-14 15q-3 4 -6.5 16t-6 27t-4.5 29.5t-2 23.5q2 6 11.5 17.5
t11.5 19.5q14 97 21 169.5t10 118.5l7 106q1 12 9 25t20.5 24.5t26.5 18.5t27 7q19 0 31 -10t19.5 -24t10.5 -28.5t3 -23.5v-3zM245 762q4 -5 4 -11q0 -16 -25 -16q-15 0 -34.5 7.5t-54.5 36.5q0 10 -9 14t-15 11q-20 23 -34.5 37.5t-23.5 28t-13.5 30.5t-4.5 45v10
q20 6 35.5 15t31.5 9q15 0 26.5 -10.5t21 -25.5t17.5 -32t15 -30q23 -41 36 -69.5t27 -49.5z" />
    <glyph glyph-name="Iacute" unicode="&#xcd;" horiz-adv-x="299" 
d="M253 527q0 -3 -6 -32.5t-14 -69t-16 -81t-12 -67.5q-7 -49 -9.5 -74.5t-2.5 -31.5v-2q0 -20 9.5 -45.5t9.5 -54.5v-10q-1 -12 -11 -27t-24 -27.5t-28.5 -21t-24.5 -8.5q-3 0 -11 3.5t-17 8.5t-18 12t-14 15q-3 4 -6.5 16t-6 27t-4.5 29.5t-2 23.5q2 6 11.5 17.5
t11.5 19.5q14 97 21 169.5t10 118.5l7 106q1 12 9 25t20.5 24.5t26.5 18.5t27 7q19 0 31 -10t19.5 -24t10.5 -28.5t3 -23.5v-3zM341 952q0 -9 -6 -22t-15.5 -27t-21 -29t-22.5 -30q-9 -12 -26.5 -30.5t-38 -36.5t-43 -30.5t-41.5 -12.5q-8 0 -14.5 7.5t-6.5 12.5q0 6 1.5 9
t5 6.5t8 8.5t10.5 13q13 19 20.5 30.5t11.5 19.5t7 13.5t8 13.5q10 16 16 26.5t9 20.5t4 22.5t1 34.5q0 10 10 20t24.5 18.5t30 14t26.5 5.5q15 0 23.5 -10.5t12.5 -24t5 -26t1 -17.5z" />
    <glyph glyph-name="Icircumflex" unicode="&#xce;" horiz-adv-x="299" 
d="M253 527q0 -3 -6 -32.5t-14 -69t-16 -81t-12 -67.5q-7 -49 -9.5 -74.5t-2.5 -31.5v-2q0 -20 9.5 -45.5t9.5 -54.5v-10q-1 -12 -11 -27t-24 -27.5t-28.5 -21t-24.5 -8.5q-3 0 -11 3.5t-17 8.5t-18 12t-14 15q-3 4 -6.5 16t-6 27t-4.5 29.5t-2 23.5q2 6 11.5 17.5
t11.5 19.5q14 97 21 169.5t10 118.5l7 106q1 12 9 25t20.5 24.5t26.5 18.5t27 7q19 0 31 -10t19.5 -24t10.5 -28.5t3 -23.5v-3zM380 791q0 -26 -6.5 -32t-23.5 -6h-22q-23 0 -43 9.5t-37 21.5t-32 21.5t-27 9.5q-15 0 -32 -9.5t-35.5 -22.5t-38 -25.5t-39.5 -19.5
q-9 -3 -19 -3q-17 0 -27.5 10t-10.5 28q0 7 6 20.5t17 21.5q10 7 32 23t41 32q15 12 25.5 25.5t19.5 25t19 18.5t23 7q5 0 16 -6t23 -14l22.5 -15l13.5 -9q10 -6 29.5 -18.5t33.5 -23.5q6 -3 17.5 -9t18.5 -10q15 -8 25.5 -22t10.5 -28z" />
    <glyph glyph-name="Idieresis" unicode="&#xcf;" horiz-adv-x="299" 
d="M253 527q0 -3 -6 -32.5t-14 -69t-16 -81t-12 -67.5q-7 -49 -9.5 -74.5t-2.5 -31.5v-2q0 -20 9.5 -45.5t9.5 -54.5v-10q-1 -12 -11 -27t-24 -27.5t-28.5 -21t-24.5 -8.5q-3 0 -11 3.5t-17 8.5t-18 12t-14 15q-3 4 -6.5 16t-6 27t-4.5 29.5t-2 23.5q2 6 11.5 17.5
t11.5 19.5q14 97 21 169.5t10 118.5l7 106q1 12 9 25t20.5 24.5t26.5 18.5t27 7q19 0 31 -10t19.5 -24t10.5 -28.5t3 -23.5v-3zM330 843q0 -9 -1.5 -22.5t-8 -25.5t-18.5 -21t-33 -9q-15 0 -28.5 12.5t-24 29.5t-16.5 33.5t-6 25.5q0 10 7.5 19t17.5 16t20 11.5t15 4.5
q13 0 26.5 -8.5t24.5 -20t18 -24t7 -21.5zM159 817q0 -8 -6 -19.5t-15 -22t-19.5 -18t-20.5 -7.5q-8 0 -19.5 6t-22.5 13t-19 13.5t-9 6.5q-1 9 -2.5 20.5t-1.5 16.5q0 11 0.5 15.5t3.5 9t9 12.5t17 25q2 0 6 -1.5t9 -1.5t13 5t13 5q15 0 27 -9t20 -21t12.5 -25.5t4.5 -22.5
z" />
    <glyph glyph-name="Eth" unicode="&#xd0;" horiz-adv-x="541" 
d="M516 419q0 -3 -2 -17.5t-5 -33t-6 -39t-5 -35.5q-8 -70 -28.5 -115.5t-48.5 -73.5t-61.5 -43t-67.5 -24t-66.5 -15.5t-58.5 -18.5q-3 0 -6.5 -3.5t-7.5 -8t-8 -8.5t-8 -5q-12 -4 -29 -4q-13 0 -25.5 2t-24.5 5q-11 3 -23.5 7.5t-23 11t-17 15t-6.5 19.5v3q0 7 0.5 15
t4 15.5t11 12.5t20.5 5q6 0 13.5 3t14.5 3q9 0 16 11t12.5 28.5t9 37.5t5.5 38t3 31t1 16l-1 42q-17 -2 -26.5 -3.5t-23.5 -1.5h-12q-9 0 -19.5 1t-19.5 6t-15.5 14.5t-6.5 26.5q0 20 2.5 31.5t7.5 17.5t13.5 7.5t20.5 1.5h28q5 0 16 -0.5t32 -4.5l-3 80q3 37 24.5 77
t54.5 72.5t73 53.5t80 21q56 0 93 -29t59 -70t31 -86t9 -78v-14zM407 379q0 10 -2 28.5t-5.5 38t-8 36t-8.5 22.5t-10.5 15l-13 18t-12.5 15.5t-9 6.5q-14 -2 -25 -3q-10 -2 -19.5 -2.5t-12.5 -0.5q-21 0 -33 -17t-18.5 -41t-9 -51t-4.5 -46q21 0 46.5 2t42.5 2q4 0 11.5 -6
t14.5 -14t12 -16.5t5 -13.5q0 -2 -3 -8t-7 -13t-8.5 -12.5t-8.5 -5.5t-4 2t-5 2q-6 0 -10.5 -9t-11.5 -9q-6 0 -9 2t-10 2q-3 0 -23 -1t-46 -3q-3 -20 -6.5 -42t-6.5 -41t-5 -32.5t-2 -16.5t3 -10.5t7.5 -14.5t9 -12.5t7.5 -5.5q30 0 63.5 12t61.5 36.5t46.5 62.5t18.5 90
q0 11 3 28t5 23v3z" />
    <glyph glyph-name="Ntilde" unicode="&#xd1;" horiz-adv-x="771" 
d="M776 537q-1 -21 -11.5 -33.5t-23 -20.5t-23.5 -13.5t-13 -12.5q-8 -17 -14.5 -49.5t-12 -69.5t-10.5 -73t-9 -60q-4 -20 -4 -45t-4 -48q-6 -20 -15 -41.5t-23 -41.5q-6 -9 -19.5 -24t-27.5 -28.5t-26 -23.5t-15 -10h-51q-30 0 -52 8.5t-38.5 25t-29.5 40t-26 54.5
q-2 6 -6 19t-7.5 28t-7 29.5t-5.5 23.5q-3 14 -5.5 40.5t-7 54.5t-12 53t-19.5 37q-15 -31 -28 -71.5t-26.5 -80t-27 -73t-28.5 -51.5q0 -11 -6 -27t-17 -31t-28 -26t-40 -11h-17q-7 0 -15.5 10t-16.5 22.5t-13.5 23t-5.5 12.5q1 21 13.5 42.5t27.5 41.5t28.5 37.5
t17.5 30.5q13 16 27.5 46t29 67t28.5 77t26.5 75.5t22.5 62.5t17 39q3 4 11.5 9t19 9.5t21 7.5t15.5 3q20 0 33.5 -10.5t22 -27t13 -36.5t7 -38.5t4 -33t4.5 -20.5q2 -5 7 -32.5t12 -65.5t16 -81t19.5 -79t23 -60t25.5 -24q15 0 29.5 27.5t27.5 69t24 90t18.5 91t12 71.5
t4.5 32v1q0 4 -1.5 13.5t-3.5 21t-3.5 22.5t-1.5 18v2q1 12 7 28.5t18 31t29.5 25t40.5 10.5q13 0 29.5 -13t31 -30.5t24 -36t9.5 -29.5v-1zM600 843q0 -15 -2.5 -33.5t-10.5 -34t-22 -26.5t-37 -11q-20 0 -34.5 9.5t-25.5 24t-19 31.5t-15 32q-13 -5 -23.5 -19t-19 -29.5
t-14 -27.5t-9.5 -12h-19q-9 0 -16 5t-12.5 12t-8.5 15t-3 13q0 11 7 23.5t16 25t18 24.5t14 23q20 9 28 14l12 7.5t8 3t17 0.5q29 0 52 -24.5t38 -58.5h5q3 5 5 11.5t2 9.5q0 15 -6 23t-12.5 14t-12.5 13.5t-6 22.5q0 5 5.5 11.5t12.5 12.5t14.5 10t12.5 4q22 0 34.5 -11.5
t18.5 -29t7 -38.5t1 -40z" />
    <glyph glyph-name="Ograve" unicode="&#xd2;" horiz-adv-x="566" 
d="M536 533q-2 -29 -9 -69t-17 -84.5t-21.5 -90t-23 -84.5t-22 -68t-17.5 -40q-8 -14 -25 -36t-61 -51q-12 -8 -27.5 -14t-32 -10.5t-32.5 -6.5t-29 -2q-31 0 -53.5 13t-38 33.5t-25 45t-15.5 47t-10 40.5t-8 25q3 6 5.5 9.5t2.5 9.5v2q0 5 -3 12t-3 13q3 7 3 15
q0 2 -0.5 3.5t-0.5 3.5q-3 4 -3 17q0 14 3 36t8 46.5t10.5 49.5t11.5 46t10.5 35t6.5 16q10 10 29 26.5t28 38.5q11 26 28 42t31 16q3 0 11 1t17.5 2t17.5 2t11 1q12 0 24 3.5t29 8t40.5 8.5t58.5 4q21 0 37.5 -11.5t28.5 -28t18.5 -35.5t6.5 -35v-5zM421 498q-5 7 -13.5 14
t-17.5 11.5t-17 7.5t-12 3q-49 0 -82 -30.5t-53 -76.5t-28.5 -100.5t-8.5 -102.5q0 -4 2.5 -22.5t8.5 -39t16.5 -37t27.5 -16.5q25 0 48 22t42.5 57.5t35.5 79t27.5 87t17.5 81.5t6 62zM400 762q4 -5 4 -11q0 -16 -25 -16q-15 0 -34.5 7.5t-54.5 36.5q0 10 -9 14t-15 11
q-20 23 -34.5 37.5t-23.5 28t-13.5 30.5t-4.5 45v10q20 6 35.5 15t31.5 9q15 0 26.5 -10.5t21 -25.5t17.5 -32t15 -30q23 -41 36 -69.5t27 -49.5z" />
    <glyph glyph-name="Oacute" unicode="&#xd3;" horiz-adv-x="566" 
d="M536 533q-2 -29 -9 -69t-17 -84.5t-21.5 -90t-23 -84.5t-22 -68t-17.5 -40q-8 -14 -25 -36t-61 -51q-12 -8 -27.5 -14t-32 -10.5t-32.5 -6.5t-29 -2q-31 0 -53.5 13t-38 33.5t-25 45t-15.5 47t-10 40.5t-8 25q3 6 5.5 9.5t2.5 9.5v2q0 5 -3 12t-3 13q3 7 3 15
q0 2 -0.5 3.5t-0.5 3.5q-3 4 -3 17q0 14 3 36t8 46.5t10.5 49.5t11.5 46t10.5 35t6.5 16q10 10 29 26.5t28 38.5q11 26 28 42t31 16q3 0 11 1t17.5 2t17.5 2t11 1q12 0 24 3.5t29 8t40.5 8.5t58.5 4q21 0 37.5 -11.5t28.5 -28t18.5 -35.5t6.5 -35v-5zM421 498q-5 7 -13.5 14
t-17.5 11.5t-17 7.5t-12 3q-49 0 -82 -30.5t-53 -76.5t-28.5 -100.5t-8.5 -102.5q0 -4 2.5 -22.5t8.5 -39t16.5 -37t27.5 -16.5q25 0 48 22t42.5 57.5t35.5 79t27.5 87t17.5 81.5t6 62zM496 952q0 -9 -6 -22t-15.5 -27t-21 -29t-22.5 -30q-9 -12 -26.5 -30.5t-38 -36.5
t-43 -30.5t-41.5 -12.5q-8 0 -14.5 7.5t-6.5 12.5q0 6 1.5 9t5 6.5t8 8.5t10.5 13q13 19 20.5 30.5t11.5 19.5t7 13.5t8 13.5q10 16 16 26.5t9 20.5t4 22.5t1 34.5q0 10 10 20t24.5 18.5t30 14t26.5 5.5q15 0 23.5 -10.5t12.5 -24t5 -26t1 -17.5z" />
    <glyph glyph-name="Ocircumflex" unicode="&#xd4;" horiz-adv-x="566" 
d="M536 533q-2 -29 -9 -69t-17 -84.5t-21.5 -90t-23 -84.5t-22 -68t-17.5 -40q-8 -14 -25 -36t-61 -51q-12 -8 -27.5 -14t-32 -10.5t-32.5 -6.5t-29 -2q-31 0 -53.5 13t-38 33.5t-25 45t-15.5 47t-10 40.5t-8 25q3 6 5.5 9.5t2.5 9.5v2q0 5 -3 12t-3 13q3 7 3 15
q0 2 -0.5 3.5t-0.5 3.5q-3 4 -3 17q0 14 3 36t8 46.5t10.5 49.5t11.5 46t10.5 35t6.5 16q10 10 29 26.5t28 38.5q11 26 28 42t31 16q3 0 11 1t17.5 2t17.5 2t11 1q12 0 24 3.5t29 8t40.5 8.5t58.5 4q21 0 37.5 -11.5t28.5 -28t18.5 -35.5t6.5 -35v-5zM421 498q-5 7 -13.5 14
t-17.5 11.5t-17 7.5t-12 3q-49 0 -82 -30.5t-53 -76.5t-28.5 -100.5t-8.5 -102.5q0 -4 2.5 -22.5t8.5 -39t16.5 -37t27.5 -16.5q25 0 48 22t42.5 57.5t35.5 79t27.5 87t17.5 81.5t6 62zM535 791q0 -26 -6.5 -32t-23.5 -6h-22q-23 0 -43 9.5t-37 21.5t-32 21.5t-27 9.5
q-15 0 -32 -9.5t-35.5 -22.5t-38 -25.5t-39.5 -19.5q-9 -3 -19 -3q-17 0 -27.5 10t-10.5 28q0 7 6 20.5t17 21.5q10 7 32 23t41 32q15 12 25.5 25.5t19.5 25t19 18.5t23 7q5 0 16 -6t23 -14l22.5 -15l13.5 -9q10 -6 29.5 -18.5t33.5 -23.5q6 -3 17.5 -9t18.5 -10
q15 -8 25.5 -22t10.5 -28z" />
    <glyph glyph-name="Otilde" unicode="&#xd5;" horiz-adv-x="566" 
d="M536 533q-2 -29 -9 -69t-17 -84.5t-21.5 -90t-23 -84.5t-22 -68t-17.5 -40q-8 -14 -25 -36t-61 -51q-12 -8 -27.5 -14t-32 -10.5t-32.5 -6.5t-29 -2q-31 0 -53.5 13t-38 33.5t-25 45t-15.5 47t-10 40.5t-8 25q3 6 5.5 9.5t2.5 9.5v2q0 5 -3 12t-3 13q3 7 3 15
q0 2 -0.5 3.5t-0.5 3.5q-3 4 -3 17q0 14 3 36t8 46.5t10.5 49.5t11.5 46t10.5 35t6.5 16q10 10 29 26.5t28 38.5q11 26 28 42t31 16q3 0 11 1t17.5 2t17.5 2t11 1q12 0 24 3.5t29 8t40.5 8.5t58.5 4q21 0 37.5 -11.5t28.5 -28t18.5 -35.5t6.5 -35v-5zM421 498q-5 7 -13.5 14
t-17.5 11.5t-17 7.5t-12 3q-49 0 -82 -30.5t-53 -76.5t-28.5 -100.5t-8.5 -102.5q0 -4 2.5 -22.5t8.5 -39t16.5 -37t27.5 -16.5q25 0 48 22t42.5 57.5t35.5 79t27.5 87t17.5 81.5t6 62zM477 843q0 -15 -2.5 -33.5t-10.5 -34t-22 -26.5t-37 -11q-20 0 -34.5 9.5t-25.5 24
t-19 31.5t-15 32q-13 -5 -23.5 -19t-19 -29.5t-14 -27.5t-9.5 -12h-19q-9 0 -16 5t-12.5 12t-8.5 15t-3 13q0 11 7 23.5t16 25t18 24.5t14 23q20 9 28 14l12 7.5t8 3t17 0.5q29 0 52 -24.5t38 -58.5h5q3 5 5 11.5t2 9.5q0 15 -6 23t-12.5 14t-12.5 13.5t-6 22.5
q0 5 5.5 11.5t12.5 12.5t14.5 10t12.5 4q22 0 34.5 -11.5t18.5 -29t7 -38.5t1 -40z" />
    <glyph glyph-name="Odieresis" unicode="&#xd6;" horiz-adv-x="566" 
d="M536 533q-2 -29 -9 -69t-17 -84.5t-21.5 -90t-23 -84.5t-22 -68t-17.5 -40q-8 -14 -25 -36t-61 -51q-12 -8 -27.5 -14t-32 -10.5t-32.5 -6.5t-29 -2q-31 0 -53.5 13t-38 33.5t-25 45t-15.5 47t-10 40.5t-8 25q3 6 5.5 9.5t2.5 9.5v2q0 5 -3 12t-3 13q3 7 3 15
q0 2 -0.5 3.5t-0.5 3.5q-3 4 -3 17q0 14 3 36t8 46.5t10.5 49.5t11.5 46t10.5 35t6.5 16q10 10 29 26.5t28 38.5q11 26 28 42t31 16q3 0 11 1t17.5 2t17.5 2t11 1q12 0 24 3.5t29 8t40.5 8.5t58.5 4q21 0 37.5 -11.5t28.5 -28t18.5 -35.5t6.5 -35v-5zM421 498q-5 7 -13.5 14
t-17.5 11.5t-17 7.5t-12 3q-49 0 -82 -30.5t-53 -76.5t-28.5 -100.5t-8.5 -102.5q0 -4 2.5 -22.5t8.5 -39t16.5 -37t27.5 -16.5q25 0 48 22t42.5 57.5t35.5 79t27.5 87t17.5 81.5t6 62zM485 843q0 -9 -1.5 -22.5t-8 -25.5t-18.5 -21t-33 -9q-15 0 -28.5 12.5t-24 29.5
t-16.5 33.5t-6 25.5q0 10 7.5 19t17.5 16t20 11.5t15 4.5q13 0 26.5 -8.5t24.5 -20t18 -24t7 -21.5zM314 817q0 -8 -6 -19.5t-15 -22t-19.5 -18t-20.5 -7.5q-8 0 -19.5 6t-22.5 13t-19 13.5t-9 6.5q-1 9 -2.5 20.5t-1.5 16.5q0 11 0.5 15.5t3.5 9t9 12.5t17 25q2 0 6 -1.5
t9 -1.5t13 5t13 5q15 0 27 -9t20 -21t12.5 -25.5t4.5 -22.5z" />
    <glyph glyph-name="multiply" unicode="&#xd7;" horiz-adv-x="591" 
d="M443 63l-146 149l-150 -150l-93 92l149 147l-139 139l89 94l144 -139l141 140l90 -95l-140 -139l148 -147z" />
    <glyph glyph-name="Oslash" unicode="&#xd8;" horiz-adv-x="556" 
d="M538 729q0 -23 -17 -55t-35 -60q14 -18 22 -41t10 -40t3 -34.5t1 -34.5q0 -69 -14.5 -129.5t-33.5 -108t-38 -81t-28 -48.5q-8 -14 -25 -36t-61 -51q-17 -11 -43.5 -19t-51.5 -12q-2 -5 -4 -15t-4.5 -20.5t-4.5 -20t-3 -13.5q-3 -19 -19.5 -38.5t-38.5 -19.5
q-15 0 -26 6.5t-18.5 16t-11.5 20.5t-4 20q0 2 4 14.5t9.5 28.5t10.5 30.5t7 20.5q-20 19 -32 45.5t-19.5 52t-12 46t-8.5 28.5q0 17 2 34.5t2 33.5q0 8 3 28.5t8 47t10.5 55t10.5 53t9 42t5 20.5q8 19 22.5 38t31 35.5t33.5 29t30 20.5q2 1 10 3.5t17 5t17.5 4.5t11.5 3
q11 2 20.5 4.5t21 4t25 3t33.5 1.5q12 28 23.5 54t25 45.5t30 31t39.5 11.5q6 0 14 -6t14.5 -15t11.5 -19.5t5 -19.5zM407 476q-35 -69 -65 -134.5t-51 -119.5q-11 -26 -14.5 -49t-9.5 -44q-1 -3 -3 -6t-3 -6q30 13 57 45.5t47.5 75.5t32.5 93t12 99q0 23 -3 46zM325 537
q-42 -8 -71 -40.5t-47 -78.5t-26.5 -97.5t-8.5 -96.5v-9.5t1 -18t2.5 -21.5t3.5 -20q18 60 34 101t30 72q16 36 30.5 71.5t26 64.5t18.5 48.5t7 24.5z" />
    <glyph glyph-name="Ugrave" unicode="&#xd9;" horiz-adv-x="553" 
d="M542 561q0 -7 -3.5 -23t-9 -36t-11 -42t-11 -40.5t-9 -31t-3.5 -13.5q1 -3 1 -11q0 -21 -8 -57.5t-23 -79.5t-37.5 -87t-51 -80t-63.5 -58.5t-76 -22.5q-56 0 -89.5 27t-51.5 68t-24.5 89t-7.5 90q1 1 3.5 26.5t5.5 64t5.5 85t4.5 90.5q3 18 10 37.5t19 35.5t29 26.5
t40 10.5q7 0 17 -4.5t19 -12.5t15.5 -18.5t6.5 -22.5v-3q0 -1 -3.5 -21t-8.5 -51.5t-11.5 -69t-12 -73t-9.5 -65.5t-5 -45q0 -3 -0.5 -7t-0.5 -9q0 -16 2 -36.5t7.5 -38.5t15 -30.5t24.5 -12.5q34 0 61 32t45 74t28 82.5t12 58.5q0 4 0.5 9t0.5 11q0 17 -1 41.5t-2 49.5
t-2 47t-1 36v10q1 17 7.5 39.5t18 42.5t27 34t35.5 14q22 0 34.5 -13t18.5 -29.5t7 -32t1 -20.5v-3q0 -8 7.5 -16t7.5 -13v-2zM370 762q4 -5 4 -11q0 -16 -25 -16q-15 0 -34.5 7.5t-54.5 36.5q0 10 -9 14t-15 11q-20 23 -34.5 37.5t-23.5 28t-13.5 30.5t-4.5 45v10
q20 6 35.5 15t31.5 9q15 0 26.5 -10.5t21 -25.5t17.5 -32t15 -30q23 -41 36 -69.5t27 -49.5z" />
    <glyph glyph-name="Uacute" unicode="&#xda;" horiz-adv-x="553" 
d="M542 561q0 -7 -3.5 -23t-9 -36t-11 -42t-11 -40.5t-9 -31t-3.5 -13.5q1 -3 1 -11q0 -21 -8 -57.5t-23 -79.5t-37.5 -87t-51 -80t-63.5 -58.5t-76 -22.5q-56 0 -89.5 27t-51.5 68t-24.5 89t-7.5 90q1 1 3.5 26.5t5.5 64t5.5 85t4.5 90.5q3 18 10 37.5t19 35.5t29 26.5
t40 10.5q7 0 17 -4.5t19 -12.5t15.5 -18.5t6.5 -22.5v-3q0 -1 -3.5 -21t-8.5 -51.5t-11.5 -69t-12 -73t-9.5 -65.5t-5 -45q0 -3 -0.5 -7t-0.5 -9q0 -16 2 -36.5t7.5 -38.5t15 -30.5t24.5 -12.5q34 0 61 32t45 74t28 82.5t12 58.5q0 4 0.5 9t0.5 11q0 17 -1 41.5t-2 49.5
t-2 47t-1 36v10q1 17 7.5 39.5t18 42.5t27 34t35.5 14q22 0 34.5 -13t18.5 -29.5t7 -32t1 -20.5v-3q0 -8 7.5 -16t7.5 -13v-2zM466 952q0 -9 -6 -22t-15.5 -27t-21 -29t-22.5 -30q-9 -12 -26.5 -30.5t-38 -36.5t-43 -30.5t-41.5 -12.5q-8 0 -14.5 7.5t-6.5 12.5q0 6 1.5 9
t5 6.5t8 8.5t10.5 13q13 19 20.5 30.5t11.5 19.5t7 13.5t8 13.5q10 16 16 26.5t9 20.5t4 22.5t1 34.5q0 10 10 20t24.5 18.5t30 14t26.5 5.5q15 0 23.5 -10.5t12.5 -24t5 -26t1 -17.5z" />
    <glyph glyph-name="Ucircumflex" unicode="&#xdb;" horiz-adv-x="553" 
d="M542 561q0 -7 -3.5 -23t-9 -36t-11 -42t-11 -40.5t-9 -31t-3.5 -13.5q1 -3 1 -11q0 -21 -8 -57.5t-23 -79.5t-37.5 -87t-51 -80t-63.5 -58.5t-76 -22.5q-56 0 -89.5 27t-51.5 68t-24.5 89t-7.5 90q1 1 3.5 26.5t5.5 64t5.5 85t4.5 90.5q3 18 10 37.5t19 35.5t29 26.5
t40 10.5q7 0 17 -4.5t19 -12.5t15.5 -18.5t6.5 -22.5v-3q0 -1 -3.5 -21t-8.5 -51.5t-11.5 -69t-12 -73t-9.5 -65.5t-5 -45q0 -3 -0.5 -7t-0.5 -9q0 -16 2 -36.5t7.5 -38.5t15 -30.5t24.5 -12.5q34 0 61 32t45 74t28 82.5t12 58.5q0 4 0.5 9t0.5 11q0 17 -1 41.5t-2 49.5
t-2 47t-1 36v10q1 17 7.5 39.5t18 42.5t27 34t35.5 14q22 0 34.5 -13t18.5 -29.5t7 -32t1 -20.5v-3q0 -8 7.5 -16t7.5 -13v-2zM505 791q0 -26 -6.5 -32t-23.5 -6h-22q-23 0 -43 9.5t-37 21.5t-32 21.5t-27 9.5q-15 0 -32 -9.5t-35.5 -22.5t-38 -25.5t-39.5 -19.5
q-9 -3 -19 -3q-17 0 -27.5 10t-10.5 28q0 7 6 20.5t17 21.5q10 7 32 23t41 32q15 12 25.5 25.5t19.5 25t19 18.5t23 7q5 0 16 -6t23 -14l22.5 -15l13.5 -9q10 -6 29.5 -18.5t33.5 -23.5q6 -3 17.5 -9t18.5 -10q15 -8 25.5 -22t10.5 -28z" />
    <glyph glyph-name="Udieresis" unicode="&#xdc;" horiz-adv-x="553" 
d="M542 561q0 -7 -3.5 -23t-9 -36t-11 -42t-11 -40.5t-9 -31t-3.5 -13.5q1 -3 1 -11q0 -21 -8 -57.5t-23 -79.5t-37.5 -87t-51 -80t-63.5 -58.5t-76 -22.5q-56 0 -89.5 27t-51.5 68t-24.5 89t-7.5 90q1 1 3.5 26.5t5.5 64t5.5 85t4.5 90.5q3 18 10 37.5t19 35.5t29 26.5
t40 10.5q7 0 17 -4.5t19 -12.5t15.5 -18.5t6.5 -22.5v-3q0 -1 -3.5 -21t-8.5 -51.5t-11.5 -69t-12 -73t-9.5 -65.5t-5 -45q0 -3 -0.5 -7t-0.5 -9q0 -16 2 -36.5t7.5 -38.5t15 -30.5t24.5 -12.5q34 0 61 32t45 74t28 82.5t12 58.5q0 4 0.5 9t0.5 11q0 17 -1 41.5t-2 49.5
t-2 47t-1 36v10q1 17 7.5 39.5t18 42.5t27 34t35.5 14q22 0 34.5 -13t18.5 -29.5t7 -32t1 -20.5v-3q0 -8 7.5 -16t7.5 -13v-2zM455 843q0 -9 -1.5 -22.5t-8 -25.5t-18.5 -21t-33 -9q-15 0 -28.5 12.5t-24 29.5t-16.5 33.5t-6 25.5q0 10 7.5 19t17.5 16t20 11.5t15 4.5
q13 0 26.5 -8.5t24.5 -20t18 -24t7 -21.5zM284 817q0 -8 -6 -19.5t-15 -22t-19.5 -18t-20.5 -7.5q-8 0 -19.5 6t-22.5 13t-19 13.5t-9 6.5q-1 9 -2.5 20.5t-1.5 16.5q0 11 0.5 15.5t3.5 9t9 12.5t17 25q2 0 6 -1.5t9 -1.5t13 5t13 5q15 0 27 -9t20 -21t12.5 -25.5t4.5 -22.5
z" />
    <glyph glyph-name="Yacute" unicode="&#xdd;" horiz-adv-x="529" 
d="M548 613q-3 -24 -10.5 -37t-18 -23.5t-24 -23.5t-29.5 -38q-2 -3 -7.5 -8.5l-12.5 -12.5t-14.5 -15t-12.5 -15q-21 -26 -29.5 -44t-10.5 -33t-1.5 -28t-3.5 -28q-5 -10 -11.5 -20.5t-17.5 -18.5q-32 -33 -47.5 -62.5t-23.5 -59.5t-12 -62.5t-13 -69.5q-5 -8 -17.5 -16.5
t-16.5 -11.5q-20 -13 -27 -16t-15 -3h-15q-26 0 -45 14t-19 38q0 2 0.5 4t0.5 4q4 31 22.5 66.5t40 73.5t39 76.5t19.5 74.5q-14 12 -30.5 31.5t-34 39t-36.5 36.5t-39 25q-6 2 -13.5 9t-15.5 16.5t-16.5 20t-15.5 19.5q0 14 -3.5 30.5t-3.5 22.5q1 7 6 17.5t12.5 20
t18 16.5t23.5 7q3 0 10.5 -0.5t15.5 -2.5t16 -5t11 -8q13 -20 31.5 -38.5t40.5 -38t46.5 -40.5t48.5 -45q1 1 13 19t30 43.5t40 55t44 54.5t42 41.5t34 16.5q30 0 44.5 -11.5t14.5 -37.5q0 -5 -0.5 -9.5t-1.5 -9.5zM429 952q0 -9 -6 -22t-15.5 -27t-21 -29t-22.5 -30
q-9 -12 -26.5 -30.5t-38 -36.5t-43 -30.5t-41.5 -12.5q-8 0 -14.5 7.5t-6.5 12.5q0 6 1.5 9t5 6.5t8 8.5t10.5 13q13 19 20.5 30.5t11.5 19.5t7 13.5t8 13.5q10 16 16 26.5t9 20.5t4 22.5t1 34.5q0 10 10 20t24.5 18.5t30 14t26.5 5.5q15 0 23.5 -10.5t12.5 -24t5 -26
t1 -17.5z" />
    <glyph glyph-name="Thorn" unicode="&#xde;" horiz-adv-x="580" 
d="M553 513q-3 -59 -24 -96t-53 -59t-70.5 -34t-76.5 -22t-71.5 -22t-55.5 -34q-26 -26 -30 -57q0 -2 -0.5 -4.5t-0.5 -4.5q0 -12 4 -21t8.5 -18.5t8.5 -21t4 -27.5v-6.5t-1 -8.5q-1 -8 -9.5 -24t-22 -32.5t-29 -29t-30.5 -12.5q-14 0 -27.5 7t-24 19t-16.5 27.5t-6 31.5v8
q0 3 3 10t6.5 15t6.5 16t3 14q0 7 -5 9l30 245q7 12 10 37.5t5.5 54t6.5 56t12 43.5q1 1 1 7v15v25t-0.5 29t-0.5 29v25v17q1 6 5.5 16t11 20t14.5 17t15 7t18 -1t22.5 -4.5t21 -10.5t14.5 -18q-2 -11 -2 -17.5t-2 -18.5q-1 -6 -2 -18.5t-2.5 -29t-3.5 -35t-3 -36.5
q37 21 64 36t51 24.5t48.5 13.5t57.5 4q31 0 53 -16t36.5 -39.5t21 -49t6.5 -44.5v-6zM424 493q0 6 -2.5 15.5t-6.5 18t-9.5 15t-12.5 6.5q-8 0 -28 -7t-45 -18t-52 -24.5t-48 -26.5l3 -30q6 -6 6 -15q0 -8 -3.5 -17t-7.5 -17l22 -10q2 1 16.5 2.5t34.5 5.5t43 10.5t42.5 18
t33 29t14.5 42.5v2z" />
    <glyph glyph-name="germandbls" unicode="&#xdf;" horiz-adv-x="757" 
d="M730 627q0 -38 -14.5 -66t-34.5 -48t-41.5 -33.5t-36.5 -22.5q-14 -9 -30 -17.5t-29.5 -18.5t-22.5 -22.5t-9 -29.5q0 -23 13 -39t32.5 -29.5t42 -26.5t42 -28.5t32.5 -36.5t13 -50q0 -47 -21 -80.5t-55.5 -56t-79.5 -34.5t-93 -17q-5 0 -12 -6.5t-13 -6.5t-11 5.5
t-9 7.5q-18 6 -29 15t-17 20t-8 23t-2 23q0 9 6 19t14.5 18.5t18 14t17.5 5.5q22 0 29 -3.5t10.5 -7.5t8 -7.5t21.5 -3.5q18 0 36 5t32.5 14t23.5 22.5t9 30.5q0 20 -17.5 33.5t-40.5 23.5t-45 18.5t-31 18.5q-5 6 -10 8.5t-10 6.5t-10 11.5t-11 22.5q-2 6 -3 15t-1.5 18
t-0.5 16v9q0 25 12 48t32 43.5t44.5 38t50.5 32.5q11 7 25.5 15.5t27 20t21 24.5t8.5 29q0 18 -8.5 32t-22 23.5t-31 14.5t-35.5 5q-79 0 -138.5 -60.5t-85.5 -183.5q-46 -209 -81.5 -387t-60.5 -337q-3 -18 -10.5 -43.5t-21 -49t-33 -40.5t-46.5 -17q-6 0 -11.5 7.5
t-15.5 12.5q-4 2 -9.5 3.5t-11.5 3.5q-3 6 -7.5 14t-8 16t-6.5 15t-3 11q0 15 7 33t18 32q11 10 23 17.5t29 18.5q5 20 16 63.5t24.5 98.5t28.5 115t27 113t19.5 93t7.5 54v15q-19 7 -29 7q-7 0 -22 -3.5t-23 -3.5q-13 0 -26 2.5t-23.5 8.5t-17 17t-6.5 28q0 18 9.5 29
t22.5 16t26 6.5t20 1.5q6 0 20.5 -2t21.5 -2q5 0 15 2t20.5 4.5t18 6t8.5 6.5q4 20 8 38.5t9 38t11 42t15 49.5q16 52 46.5 89.5t69 61.5t82 35t87.5 11q11 0 31 -1.5t43.5 -7.5t47.5 -17t43.5 -29.5t32 -45.5t12.5 -65z" />
    <glyph glyph-name="agrave" unicode="&#xe0;" horiz-adv-x="676" 
d="M728 110q0 -13 -12 -26.5t-31 -26.5t-41 -24.5t-42 -20t-34.5 -13.5t-18.5 -5h-35q-7 0 -20.5 7t-27.5 16.5t-26 21t-17 20.5q-14 25 -22 41.5t-13.5 29t-9.5 22.5t-8 22q-27 -36 -60 -76t-67.5 -73.5t-69 -55.5t-63.5 -22q-13 0 -30 3.5t-32.5 12t-26 22.5t-10.5 36
q0 8 6.5 25.5t17 38.5t23 43.5t24 42t21 33.5t12.5 17q60 61 105 108t81.5 79t67.5 49t63 17q17 0 34 -8t30.5 -21t22 -30.5t8.5 -35.5q0 -8 -6 -32l-13 -52l-13 -52t-6 -31q0 -43 21 -74.5t69 -31.5q20 0 35.5 4.5t28 11.5t22.5 14t20 12q7 4 14 4q8 0 13.5 -5t9 -12t5 -14
t1.5 -11zM350 311q-12 0 -30 -12t-38 -31t-40 -43t-36.5 -48.5t-28 -47t-14.5 -38.5q10 6 20 11.5t22 15.5t27.5 25t37.5 40q41 47 60.5 76.5t19.5 46.5v5zM431 521q4 -5 4 -11q0 -16 -25 -16q-15 0 -34.5 7.5t-54.5 36.5q0 10 -9 14t-15 11q-20 23 -34.5 37.5t-23.5 28
t-13.5 30.5t-4.5 45v10q20 6 35.5 15t31.5 9q15 0 26.5 -10.5t21 -25.5t17.5 -32t15 -30q23 -41 36 -69.5t27 -49.5z" />
    <glyph glyph-name="aacute" unicode="&#xe1;" horiz-adv-x="676" 
d="M728 110q0 -13 -12 -26.5t-31 -26.5t-41 -24.5t-42 -20t-34.5 -13.5t-18.5 -5h-35q-7 0 -20.5 7t-27.5 16.5t-26 21t-17 20.5q-14 25 -22 41.5t-13.5 29t-9.5 22.5t-8 22q-27 -36 -60 -76t-67.5 -73.5t-69 -55.5t-63.5 -22q-13 0 -30 3.5t-32.5 12t-26 22.5t-10.5 36
q0 8 6.5 25.5t17 38.5t23 43.5t24 42t21 33.5t12.5 17q60 61 105 108t81.5 79t67.5 49t63 17q17 0 34 -8t30.5 -21t22 -30.5t8.5 -35.5q0 -8 -6 -32l-13 -52l-13 -52t-6 -31q0 -43 21 -74.5t69 -31.5q20 0 35.5 4.5t28 11.5t22.5 14t20 12q7 4 14 4q8 0 13.5 -5t9 -12t5 -14
t1.5 -11zM350 311q-12 0 -30 -12t-38 -31t-40 -43t-36.5 -48.5t-28 -47t-14.5 -38.5q10 6 20 11.5t22 15.5t27.5 25t37.5 40q41 47 60.5 76.5t19.5 46.5v5zM527 711q0 -9 -6 -22t-15.5 -27t-21 -29t-22.5 -30q-9 -12 -26.5 -30.5t-38 -36.5t-43 -30.5t-41.5 -12.5
q-8 0 -14.5 7.5t-6.5 12.5q0 6 1.5 9t5 6.5t8 8.5t10.5 13q13 19 20.5 30.5t11.5 19.5t7 13.5t8 13.5q10 16 16 26.5t9 20.5t4 22.5t1 34.5q0 10 10 20t24.5 18.5t30 14t26.5 5.5q15 0 23.5 -10.5t12.5 -24t5 -26t1 -17.5z" />
    <glyph glyph-name="acircumflex" unicode="&#xe2;" horiz-adv-x="676" 
d="M728 110q0 -13 -12 -26.5t-31 -26.5t-41 -24.5t-42 -20t-34.5 -13.5t-18.5 -5h-35q-7 0 -20.5 7t-27.5 16.5t-26 21t-17 20.5q-14 25 -22 41.5t-13.5 29t-9.5 22.5t-8 22q-27 -36 -60 -76t-67.5 -73.5t-69 -55.5t-63.5 -22q-13 0 -30 3.5t-32.5 12t-26 22.5t-10.5 36
q0 8 6.5 25.5t17 38.5t23 43.5t24 42t21 33.5t12.5 17q60 61 105 108t81.5 79t67.5 49t63 17q17 0 34 -8t30.5 -21t22 -30.5t8.5 -35.5q0 -8 -6 -32l-13 -52l-13 -52t-6 -31q0 -43 21 -74.5t69 -31.5q20 0 35.5 4.5t28 11.5t22.5 14t20 12q7 4 14 4q8 0 13.5 -5t9 -12t5 -14
t1.5 -11zM350 311q-12 0 -30 -12t-38 -31t-40 -43t-36.5 -48.5t-28 -47t-14.5 -38.5q10 6 20 11.5t22 15.5t27.5 25t37.5 40q41 47 60.5 76.5t19.5 46.5v5zM566 550q0 -26 -6.5 -32t-23.5 -6h-22q-23 0 -43 9.5t-37 21.5t-32 21.5t-27 9.5q-15 0 -32 -9.5t-35.5 -22.5
t-38 -25.5t-39.5 -19.5q-9 -3 -19 -3q-17 0 -27.5 10t-10.5 28q0 7 6 20.5t17 21.5q10 7 32 23t41 32q15 12 25.5 25.5t19.5 25t19 18.5t23 7q5 0 16 -6t23 -14l22.5 -15l13.5 -9q10 -6 29.5 -18.5t33.5 -23.5q6 -3 17.5 -9t18.5 -10q15 -8 25.5 -22t10.5 -28z" />
    <glyph glyph-name="atilde" unicode="&#xe3;" horiz-adv-x="676" 
d="M728 110q0 -13 -12 -26.5t-31 -26.5t-41 -24.5t-42 -20t-34.5 -13.5t-18.5 -5h-35q-7 0 -20.5 7t-27.5 16.5t-26 21t-17 20.5q-14 25 -22 41.5t-13.5 29t-9.5 22.5t-8 22q-27 -36 -60 -76t-67.5 -73.5t-69 -55.5t-63.5 -22q-13 0 -30 3.5t-32.5 12t-26 22.5t-10.5 36
q0 8 6.5 25.5t17 38.5t23 43.5t24 42t21 33.5t12.5 17q60 61 105 108t81.5 79t67.5 49t63 17q17 0 34 -8t30.5 -21t22 -30.5t8.5 -35.5q0 -8 -6 -32l-13 -52l-13 -52t-6 -31q0 -43 21 -74.5t69 -31.5q20 0 35.5 4.5t28 11.5t22.5 14t20 12q7 4 14 4q8 0 13.5 -5t9 -12t5 -14
t1.5 -11zM350 311q-12 0 -30 -12t-38 -31t-40 -43t-36.5 -48.5t-28 -47t-14.5 -38.5q10 6 20 11.5t22 15.5t27.5 25t37.5 40q41 47 60.5 76.5t19.5 46.5v5zM508 602q0 -15 -2.5 -33.5t-10.5 -34t-22 -26.5t-37 -11q-20 0 -34.5 9.5t-25.5 24t-19 31.5t-15 32
q-13 -5 -23.5 -19t-19 -29.5t-14 -27.5t-9.5 -12h-19q-9 0 -16 5t-12.5 12t-8.5 15t-3 13q0 11 7 23.5t16 25t18 24.5t14 23q20 9 28 14l12 7.5t8 3t17 0.5q29 0 52 -24.5t38 -58.5h5q3 5 5 11.5t2 9.5q0 15 -6 23t-12.5 14t-12.5 13.5t-6 22.5q0 5 5.5 11.5t12.5 12.5
t14.5 10t12.5 4q22 0 34.5 -11.5t18.5 -29t7 -38.5t1 -40z" />
    <glyph glyph-name="adieresis" unicode="&#xe4;" horiz-adv-x="676" 
d="M728 110q0 -13 -12 -26.5t-31 -26.5t-41 -24.5t-42 -20t-34.5 -13.5t-18.5 -5h-35q-7 0 -20.5 7t-27.5 16.5t-26 21t-17 20.5q-14 25 -22 41.5t-13.5 29t-9.5 22.5t-8 22q-27 -36 -60 -76t-67.5 -73.5t-69 -55.5t-63.5 -22q-13 0 -30 3.5t-32.5 12t-26 22.5t-10.5 36
q0 8 6.5 25.5t17 38.5t23 43.5t24 42t21 33.5t12.5 17q60 61 105 108t81.5 79t67.5 49t63 17q17 0 34 -8t30.5 -21t22 -30.5t8.5 -35.5q0 -8 -6 -32l-13 -52l-13 -52t-6 -31q0 -43 21 -74.5t69 -31.5q20 0 35.5 4.5t28 11.5t22.5 14t20 12q7 4 14 4q8 0 13.5 -5t9 -12t5 -14
t1.5 -11zM350 311q-12 0 -30 -12t-38 -31t-40 -43t-36.5 -48.5t-28 -47t-14.5 -38.5q10 6 20 11.5t22 15.5t27.5 25t37.5 40q41 47 60.5 76.5t19.5 46.5v5zM516 602q0 -9 -1.5 -22.5t-8 -25.5t-18.5 -21t-33 -9q-15 0 -28.5 12.5t-24 29.5t-16.5 33.5t-6 25.5q0 10 7.5 19
t17.5 16t20 11.5t15 4.5q13 0 26.5 -8.5t24.5 -20t18 -24t7 -21.5zM345 576q0 -8 -6 -19.5t-15 -22t-19.5 -18t-20.5 -7.5q-8 0 -19.5 6t-22.5 13t-19 13.5t-9 6.5q-1 9 -2.5 20.5t-1.5 16.5q0 11 0.5 15.5t3.5 9t9 12.5t17 25q2 0 6 -1.5t9 -1.5t13 5t13 5q15 0 27 -9
t20 -21t12.5 -25.5t4.5 -22.5z" />
    <glyph glyph-name="aring" unicode="&#xe5;" horiz-adv-x="676" 
d="M728 110q0 -13 -12 -26.5t-31 -26.5t-41 -24.5t-42 -20t-34.5 -13.5t-18.5 -5h-35q-7 0 -20.5 7t-27.5 16.5t-26 21t-17 20.5q-14 25 -22 41.5t-13.5 29t-9.5 22.5t-8 22q-27 -36 -60 -76t-67.5 -73.5t-69 -55.5t-63.5 -22q-13 0 -30 3.5t-32.5 12t-26 22.5t-10.5 36
q0 8 6.5 25.5t17 38.5t23 43.5t24 42t21 33.5t12.5 17q60 61 105 108t81.5 79t67.5 49t63 17q17 0 34 -8t30.5 -21t22 -30.5t8.5 -35.5q0 -8 -6 -32l-13 -52l-13 -52t-6 -31q0 -43 21 -74.5t69 -31.5q20 0 35.5 4.5t28 11.5t22.5 14t20 12q7 4 14 4q8 0 13.5 -5t9 -12t5 -14
t1.5 -11zM350 311q-12 0 -30 -12t-38 -31t-40 -43t-36.5 -48.5t-28 -47t-14.5 -38.5q10 6 20 11.5t22 15.5t27.5 25t37.5 40q41 47 60.5 76.5t19.5 46.5v5zM532 642q0 -22 -3.5 -35t-8.5 -22q-1 -2 -8.5 -12.5t-18.5 -22t-22.5 -20.5t-20.5 -9q-3 0 -9 -1t-9 -1q-11 0 -26 8
t-29 19.5t-24 25t-10 25.5q0 13 2.5 41.5t11.5 57.5t28 51.5t52 22.5q20 0 37.5 -16t30 -37.5t20 -43t7.5 -31.5zM469 622q0 7 -2.5 18t-6.5 21.5t-9.5 19t-12.5 11.5q-5 -8 -12.5 -17.5t-14.5 -19.5t-12 -18.5t-5 -12.5q0 -3 1.5 -9.5t5.5 -13t9.5 -11.5t14.5 -5
q4 0 11 3.5t14.5 8.5t13 12t5.5 13z" />
    <glyph glyph-name="ae" unicode="&#xe6;" horiz-adv-x="789" 
d="M773 398q0 -20 -13 -44.5t-33.5 -49t-46 -48t-51 -42.5t-49 -31.5t-38.5 -15.5q-3 0 -8 -7.5t-10 -17t-8.5 -20t-3.5 -17.5q0 -14 7 -24t17 -10q18 0 37.5 11.5t38 25t35 25t29.5 11.5q6 0 12 -5.5t11.5 -13t9 -15t3.5 -11.5q0 -14 -13 -30.5t-33.5 -34t-44.5 -34
t-46.5 -29t-39.5 -20.5t-23 -8q-31 0 -52.5 16t-36 38.5t-22 47t-11.5 42.5q-3 14 -4 28.5t-1 28.5v24q0 13 -1 18q-27 -36 -62 -78t-72.5 -77.5t-74 -59.5t-65.5 -24q-13 0 -30 3.5t-32.5 12t-26 22.5t-10.5 36q0 8 5 27t12.5 42t17 48.5t18.5 47t16 36.5t11 19
q60 61 108.5 105t89.5 72.5t76 42t67 13.5q17 0 34 -9.5t30.5 -24.5t22 -33.5t8.5 -36.5q4 3 24.5 20.5t45 37.5t47.5 36t32 16q39 0 68 -21.5t29 -60.5zM350 311q-38 0 -70.5 -28.5t-57.5 -66t-40.5 -73.5t-18.5 -52q10 6 20 11.5t22 15.5t27.5 25t37.5 40q41 47 60.5 76.5
t19.5 46.5v5z" />
    <glyph glyph-name="ccedilla" unicode="&#xe7;" horiz-adv-x="392" 
d="M448 124q0 -19 -13.5 -37.5t-51.5 -44.5q-30 -20 -63.5 -35.5t-66.5 -26t-63.5 -16.5t-53.5 -6q-27 0 -46.5 9.5t-33 26t-20 37.5t-6.5 44q0 20 3 44t8 49.5t11.5 51t13.5 48.5q4 12 16.5 28.5t17.5 33.5q6 24 25 53t43.5 54t51.5 41.5t50 16.5q11 0 24 -4t24.5 -12.5
t19 -21t7.5 -30.5q0 -17 -15.5 -32.5t-39 -33t-51 -39.5t-51 -51t-39 -68t-15.5 -91q0 -20 9 -35.5t33 -15.5q57 0 122.5 24.5t134.5 62.5q2 1 4 1q4 0 6 -4t3 -8.5t1.5 -8.5zM296 -113q0 -26 -14.5 -51.5t-36.5 -49t-48.5 -42.5t-50.5 -31q-6 -3 -14.5 -8.5t-17 -11.5
t-15 -10t-8.5 -4q-8 0 -16 12.5t-8 18.5q0 4 4.5 15.5t8.5 20.5q20 3 38 19t31.5 38.5t21 48t7.5 47.5v7q0 8 11 18t16 12q3 2 13 4.5t21 2.5q9 0 17 -3t15 -10t12.5 -15.5t9 -16t3.5 -11.5z" />
    <glyph glyph-name="egrave" unicode="&#xe8;" horiz-adv-x="432" 
d="M416 398q0 -20 -13 -44.5t-33.5 -49t-46.5 -48t-51.5 -42.5t-49 -31.5t-38.5 -15.5q-3 0 -8 -7.5t-10 -17t-8.5 -20t-3.5 -17.5q0 -14 7 -24t17 -10q18 0 37.5 11.5t38 25t35 25t29.5 11.5q6 0 12.5 -5.5t12 -13t9 -15t3.5 -11.5q0 -14 -13 -30.5t-33.5 -34t-45 -34
t-47 -29t-39.5 -20.5t-23 -8q-31 0 -52 16.5t-34 40t-18.5 48.5t-5.5 42q0 14 2.5 25t6 20t6 18.5t2.5 20.5q0 8 -4.5 15t-9.5 14.5t-9.5 17.5t-4.5 24q0 28 8 41t21 18t29 6.5t31 6.5t27.5 16.5t19.5 36.5l9.5 8.5t24 20.5t32 26.5t34 26.5t30 20t19.5 8q39 0 68.5 -21.5
t29.5 -60.5zM361 521q4 -5 4 -11q0 -16 -25 -16q-15 0 -34.5 7.5t-54.5 36.5q0 10 -9 14t-15 11q-20 23 -34.5 37.5t-23.5 28t-13.5 30.5t-4.5 45v10q20 6 35.5 15t31.5 9q15 0 26.5 -10.5t21 -25.5t17.5 -32t15 -30q23 -41 36 -69.5t27 -49.5z" />
    <glyph glyph-name="eacute" unicode="&#xe9;" horiz-adv-x="432" 
d="M416 398q0 -20 -13 -44.5t-33.5 -49t-46.5 -48t-51.5 -42.5t-49 -31.5t-38.5 -15.5q-3 0 -8 -7.5t-10 -17t-8.5 -20t-3.5 -17.5q0 -14 7 -24t17 -10q18 0 37.5 11.5t38 25t35 25t29.5 11.5q6 0 12.5 -5.5t12 -13t9 -15t3.5 -11.5q0 -14 -13 -30.5t-33.5 -34t-45 -34
t-47 -29t-39.5 -20.5t-23 -8q-31 0 -52 16.5t-34 40t-18.5 48.5t-5.5 42q0 14 2.5 25t6 20t6 18.5t2.5 20.5q0 8 -4.5 15t-9.5 14.5t-9.5 17.5t-4.5 24q0 28 8 41t21 18t29 6.5t31 6.5t27.5 16.5t19.5 36.5l9.5 8.5t24 20.5t32 26.5t34 26.5t30 20t19.5 8q39 0 68.5 -21.5
t29.5 -60.5zM457 711q0 -9 -6 -22t-15.5 -27t-21 -29t-22.5 -30q-9 -12 -26.5 -30.5t-38 -36.5t-43 -30.5t-41.5 -12.5q-8 0 -14.5 7.5t-6.5 12.5q0 6 1.5 9t5 6.5t8 8.5t10.5 13q13 19 20.5 30.5t11.5 19.5t7 13.5t8 13.5q10 16 16 26.5t9 20.5t4 22.5t1 34.5q0 10 10 20
t24.5 18.5t30 14t26.5 5.5q15 0 23.5 -10.5t12.5 -24t5 -26t1 -17.5z" />
    <glyph glyph-name="ecircumflex" unicode="&#xea;" horiz-adv-x="432" 
d="M416 398q0 -20 -13 -44.5t-33.5 -49t-46.5 -48t-51.5 -42.5t-49 -31.5t-38.5 -15.5q-3 0 -8 -7.5t-10 -17t-8.5 -20t-3.5 -17.5q0 -14 7 -24t17 -10q18 0 37.5 11.5t38 25t35 25t29.5 11.5q6 0 12.5 -5.5t12 -13t9 -15t3.5 -11.5q0 -14 -13 -30.5t-33.5 -34t-45 -34
t-47 -29t-39.5 -20.5t-23 -8q-31 0 -52 16.5t-34 40t-18.5 48.5t-5.5 42q0 14 2.5 25t6 20t6 18.5t2.5 20.5q0 8 -4.5 15t-9.5 14.5t-9.5 17.5t-4.5 24q0 28 8 41t21 18t29 6.5t31 6.5t27.5 16.5t19.5 36.5l9.5 8.5t24 20.5t32 26.5t34 26.5t30 20t19.5 8q39 0 68.5 -21.5
t29.5 -60.5zM496 550q0 -26 -6.5 -32t-23.5 -6h-22q-23 0 -43 9.5t-37 21.5t-32 21.5t-27 9.5q-15 0 -32 -9.5t-35.5 -22.5t-38 -25.5t-39.5 -19.5q-9 -3 -19 -3q-17 0 -27.5 10t-10.5 28q0 7 6 20.5t17 21.5q10 7 32 23t41 32q15 12 25.5 25.5t19.5 25t19 18.5t23 7
q5 0 16 -6t23 -14l22.5 -15l13.5 -9q10 -6 29.5 -18.5t33.5 -23.5q6 -3 17.5 -9t18.5 -10q15 -8 25.5 -22t10.5 -28z" />
    <glyph glyph-name="edieresis" unicode="&#xeb;" horiz-adv-x="432" 
d="M416 398q0 -20 -13 -44.5t-33.5 -49t-46.5 -48t-51.5 -42.5t-49 -31.5t-38.5 -15.5q-3 0 -8 -7.5t-10 -17t-8.5 -20t-3.5 -17.5q0 -14 7 -24t17 -10q18 0 37.5 11.5t38 25t35 25t29.5 11.5q6 0 12.5 -5.5t12 -13t9 -15t3.5 -11.5q0 -14 -13 -30.5t-33.5 -34t-45 -34
t-47 -29t-39.5 -20.5t-23 -8q-31 0 -52 16.5t-34 40t-18.5 48.5t-5.5 42q0 14 2.5 25t6 20t6 18.5t2.5 20.5q0 8 -4.5 15t-9.5 14.5t-9.5 17.5t-4.5 24q0 28 8 41t21 18t29 6.5t31 6.5t27.5 16.5t19.5 36.5l9.5 8.5t24 20.5t32 26.5t34 26.5t30 20t19.5 8q39 0 68.5 -21.5
t29.5 -60.5zM446 602q0 -9 -1.5 -22.5t-8 -25.5t-18.5 -21t-33 -9q-15 0 -28.5 12.5t-24 29.5t-16.5 33.5t-6 25.5q0 10 7.5 19t17.5 16t20 11.5t15 4.5q13 0 26.5 -8.5t24.5 -20t18 -24t7 -21.5zM275 576q0 -8 -6 -19.5t-15 -22t-19.5 -18t-20.5 -7.5q-8 0 -19.5 6
t-22.5 13t-19 13.5t-9 6.5q-1 9 -2.5 20.5t-1.5 16.5q0 11 0.5 15.5t3.5 9t9 12.5t17 25q2 0 6 -1.5t9 -1.5t13 5t13 5q15 0 27 -9t20 -21t12.5 -25.5t4.5 -22.5z" />
    <glyph glyph-name="igrave" unicode="&#xec;" horiz-adv-x="374" 
d="M440 178q0 -18 -20 -43.5t-45.5 -50.5t-49.5 -44.5t-31 -25.5q-2 -2 -15 -10t-29.5 -17t-32.5 -16.5t-24 -7.5q-3 0 -10.5 0.5t-16.5 1t-16.5 1t-10.5 0.5q-4 0 -14 10.5t-20.5 24t-18.5 24.5t-8 13q-11 26 -13.5 54.5t-3.5 50.5v7q0 19 2.5 48.5t8 63t15 67t22.5 60.5
t30 44t39 17q8 0 17 -9t17 -20.5t13.5 -22.5t5.5 -15q0 -3 -7.5 -28.5t-17 -60t-17 -70.5t-7.5 -59q0 -7 2 -18.5t4 -23.5t4.5 -21.5t4.5 -10.5h7q19 0 40.5 7t41.5 18t38 24t31 25q4 4 13 10.5t19 12.5t18 10.5t11 4.5q8 0 16 -8.5t8 -16.5zM257 521q4 -5 4 -11
q0 -16 -25 -16q-15 0 -34.5 7.5t-54.5 36.5q0 10 -9 14t-15 11q-20 23 -34.5 37.5t-23.5 28t-13.5 30.5t-4.5 45v10q20 6 35.5 15t31.5 9q15 0 26.5 -10.5t21 -25.5t17.5 -32t15 -30q23 -41 36 -69.5t27 -49.5z" />
    <glyph glyph-name="iacute" unicode="&#xed;" horiz-adv-x="374" 
d="M440 178q0 -18 -20 -43.5t-45.5 -50.5t-49.5 -44.5t-31 -25.5q-2 -2 -15 -10t-29.5 -17t-32.5 -16.5t-24 -7.5q-3 0 -10.5 0.5t-16.5 1t-16.5 1t-10.5 0.5q-4 0 -14 10.5t-20.5 24t-18.5 24.5t-8 13q-11 26 -13.5 54.5t-3.5 50.5v7q0 19 2.5 48.5t8 63t15 67t22.5 60.5
t30 44t39 17q8 0 17 -9t17 -20.5t13.5 -22.5t5.5 -15q0 -3 -7.5 -28.5t-17 -60t-17 -70.5t-7.5 -59q0 -7 2 -18.5t4 -23.5t4.5 -21.5t4.5 -10.5h7q19 0 40.5 7t41.5 18t38 24t31 25q4 4 13 10.5t19 12.5t18 10.5t11 4.5q8 0 16 -8.5t8 -16.5zM353 711q0 -9 -6 -22t-15.5 -27
t-21 -29t-22.5 -30q-9 -12 -26.5 -30.5t-38 -36.5t-43 -30.5t-41.5 -12.5q-8 0 -14.5 7.5t-6.5 12.5q0 6 1.5 9t5 6.5t8 8.5t10.5 13q13 19 20.5 30.5t11.5 19.5t7 13.5t8 13.5q10 16 16 26.5t9 20.5t4 22.5t1 34.5q0 10 10 20t24.5 18.5t30 14t26.5 5.5q15 0 23.5 -10.5
t12.5 -24t5 -26t1 -17.5z" />
    <glyph glyph-name="icircumflex" unicode="&#xee;" horiz-adv-x="374" 
d="M440 178q0 -18 -20 -43.5t-45.5 -50.5t-49.5 -44.5t-31 -25.5q-2 -2 -15 -10t-29.5 -17t-32.5 -16.5t-24 -7.5q-3 0 -10.5 0.5t-16.5 1t-16.5 1t-10.5 0.5q-4 0 -14 10.5t-20.5 24t-18.5 24.5t-8 13q-11 26 -13.5 54.5t-3.5 50.5v7q0 19 2.5 48.5t8 63t15 67t22.5 60.5
t30 44t39 17q8 0 17 -9t17 -20.5t13.5 -22.5t5.5 -15q0 -3 -7.5 -28.5t-17 -60t-17 -70.5t-7.5 -59q0 -7 2 -18.5t4 -23.5t4.5 -21.5t4.5 -10.5h7q19 0 40.5 7t41.5 18t38 24t31 25q4 4 13 10.5t19 12.5t18 10.5t11 4.5q8 0 16 -8.5t8 -16.5zM392 550q0 -26 -6.5 -32
t-23.5 -6h-22q-23 0 -43 9.5t-37 21.5t-32 21.5t-27 9.5q-15 0 -32 -9.5t-35.5 -22.5t-38 -25.5t-39.5 -19.5q-9 -3 -19 -3q-17 0 -27.5 10t-10.5 28q0 7 6 20.5t17 21.5q10 7 32 23t41 32q15 12 25.5 25.5t19.5 25t19 18.5t23 7q5 0 16 -6t23 -14l22.5 -15l13.5 -9
q10 -6 29.5 -18.5t33.5 -23.5q6 -3 17.5 -9t18.5 -10q15 -8 25.5 -22t10.5 -28z" />
    <glyph glyph-name="idieresis" unicode="&#xef;" horiz-adv-x="374" 
d="M440 178q0 -18 -20 -43.5t-45.5 -50.5t-49.5 -44.5t-31 -25.5q-2 -2 -15 -10t-29.5 -17t-32.5 -16.5t-24 -7.5q-3 0 -10.5 0.5t-16.5 1t-16.5 1t-10.5 0.5q-4 0 -14 10.5t-20.5 24t-18.5 24.5t-8 13q-11 26 -13.5 54.5t-3.5 50.5v7q0 19 2.5 48.5t8 63t15 67t22.5 60.5
t30 44t39 17q8 0 17 -9t17 -20.5t13.5 -22.5t5.5 -15q0 -3 -7.5 -28.5t-17 -60t-17 -70.5t-7.5 -59q0 -7 2 -18.5t4 -23.5t4.5 -21.5t4.5 -10.5h7q19 0 40.5 7t41.5 18t38 24t31 25q4 4 13 10.5t19 12.5t18 10.5t11 4.5q8 0 16 -8.5t8 -16.5zM342 602q0 -9 -1.5 -22.5
t-8 -25.5t-18.5 -21t-33 -9q-15 0 -28.5 12.5t-24 29.5t-16.5 33.5t-6 25.5q0 10 7.5 19t17.5 16t20 11.5t15 4.5q13 0 26.5 -8.5t24.5 -20t18 -24t7 -21.5zM171 576q0 -8 -6 -19.5t-15 -22t-19.5 -18t-20.5 -7.5q-8 0 -19.5 6t-22.5 13t-19 13.5t-9 6.5q-1 9 -2.5 20.5
t-1.5 16.5q0 11 0.5 15.5t3.5 9t9 12.5t17 25q2 0 6 -1.5t9 -1.5t13 5t13 5q15 0 27 -9t20 -21t12.5 -25.5t4.5 -22.5z" />
    <glyph glyph-name="eth" unicode="&#xf0;" horiz-adv-x="462" 
d="M416 133q0 -38 -9 -62t-37 -29q-3 -8 -16 -20t-31 -23t-37.5 -19t-35.5 -8h-24q-24 0 -55 12t-58.5 36.5t-46.5 60.5t-19 84q0 27 7 57.5t21.5 55.5t37.5 41.5t55 16.5q14 0 28.5 -7t20.5 -7q7 0 10.5 2.5t6.5 5.5q0 1 -3.5 11.5t-10.5 26.5t-16.5 35t-21.5 39
q-3 -1 -11.5 -6t-18 -11t-18 -11.5t-11.5 -6.5q-12 -5 -24.5 -10t-24.5 -5q-11 0 -20.5 6t-16.5 21q-5 12 -5 20q0 12 6.5 21.5t15.5 16t18 11t14 7.5q3 2 16 5.5t21 7.5q-8 7 -18.5 12t-21.5 8q-7 2 -12 5.5t-12 7.5q-9 5 -15.5 16t-10 22.5t-5 21.5t-1.5 14q0 3 3 14t9 22
t15 20t22 9q19 0 39.5 -10t40 -26.5t38 -38t35.5 -43.5q3 1 11.5 8.5t18 15.5t18 15.5t11.5 8.5q8 4 14.5 5t13.5 1q22 0 37 -13t21 -24q2 -3 2 -10q0 -14 -12.5 -28.5t-23.5 -20.5l-10.5 -3.5t-11.5 -4.5q-4 -2 -15 -6t-26 -11q4 -6 7.5 -11t6.5 -10q18 -34 36 -69
q15 -30 30.5 -65t25.5 -65q6 -20 12 -35.5t10.5 -30.5t7.5 -33t3 -43zM298 129q0 14 -9 33t-22.5 36.5t-30 29.5t-32.5 12h-3q-8 -3 -14 -5q-5 -2 -9.5 -3t-6.5 -1l-8 -26q-3 -11 -5.5 -23.5t-2.5 -23.5q0 -25 11.5 -42t26.5 -27.5t31 -15t25 -4.5q3 0 11 6.5t16.5 16t15 20
t6.5 17.5z" />
    <glyph glyph-name="ntilde" unicode="&#xf1;" horiz-adv-x="692" 
d="M755 101q-9 -12 -27 -30t-38.5 -36t-40.5 -33t-33 -21q-2 -1 -9 -4t-16.5 -6.5t-19.5 -6t-19 -2.5q-44 0 -76.5 23t-64.5 68q-5 19 -12.5 52.5t-14.5 65.5t-13.5 55.5t-9.5 23.5q-2 0 -17 -19.5t-39 -48t-53.5 -62.5t-60.5 -62.5t-59.5 -48t-50.5 -19.5q-16 0 -29.5 10.5
t-23 25.5t-15 30.5t-5.5 25.5q0 6 11.5 38.5t25 73t25 77.5t11.5 52v3q9 23 13 44.5t11.5 38.5t22.5 27.5t45 10.5q17 0 28.5 -7.5t19 -19.5t10.5 -26.5t3 -27.5q0 -14 -9.5 -37.5t-21.5 -48t-21.5 -46t-9.5 -31.5q0 -8 1 -9t4 -2q13 17 34 42t44.5 52.5t45 55.5t34.5 51
q10 17 25 21.5t32 4.5q33 0 51.5 -24.5t28.5 -60.5t16 -79t14.5 -79t22.5 -60.5t42 -24.5q32 0 56 8.5t43 20t34 23.5t30 19q3 1 5.5 1.5t5.5 0.5q12 0 20.5 -8t8.5 -21q0 -8 -3.5 -16.5t-11.5 -17.5zM444 602q0 -15 -2.5 -33.5t-10.5 -34t-22 -26.5t-37 -11
q-20 0 -34.5 9.5t-25.5 24t-19 31.5t-15 32q-13 -5 -23.5 -19t-19 -29.5t-14 -27.5t-9.5 -12h-19q-9 0 -16 5t-12.5 12t-8.5 15t-3 13q0 11 7 23.5t16 25t18 24.5t14 23q20 9 28 14l12 7.5t8 3t17 0.5q29 0 52 -24.5t38 -58.5h5q3 5 5 11.5t2 9.5q0 15 -6 23t-12.5 14
t-12.5 13.5t-6 22.5q0 5 5.5 11.5t12.5 12.5t14.5 10t12.5 4q22 0 34.5 -11.5t18.5 -29t7 -38.5t1 -40z" />
    <glyph glyph-name="ograve" unicode="&#xf2;" horiz-adv-x="479" 
d="M455 345q0 -32 -7.5 -69.5t-21.5 -73t-34.5 -66.5t-46.5 -49q-14 -10 -27 -26t-29 -28q-9 -7 -24 -15t-32.5 -15t-35.5 -12t-34 -5q-20 0 -44.5 7.5t-47 22t-37.5 34.5t-15 45q0 34 7.5 55.5t17.5 40.5t18.5 41.5t10.5 58.5q45 42 77.5 72.5t62.5 50.5t63 29.5t80 9.5
q20 0 38 -11t31.5 -27.5t21.5 -35t8 -34.5zM371 325q-1 6 -4 11q-2 4 -5.5 7.5t-7.5 3.5q-12 0 -21.5 -3t-20 -9l-24.5 -14t-34 -17q-9 -4 -20.5 -13t-22 -20t-18.5 -22t-9 -18q-2 -6 -4 -12.5t-3 -8.5q-9 -13 -16 -20.5t-11.5 -14.5t-7 -16.5t-2.5 -27.5q0 -8 2.5 -14
t5.5 -12h30q10 0 26.5 7.5t33 16.5t29.5 17.5t17 11.5q10 7 24.5 28t28.5 46.5t24 50.5t10 42zM359 521q4 -5 4 -11q0 -16 -25 -16q-15 0 -34.5 7.5t-54.5 36.5q0 10 -9 14t-15 11q-20 23 -34.5 37.5t-23.5 28t-13.5 30.5t-4.5 45v10q20 6 35.5 15t31.5 9q15 0 26.5 -10.5
t21 -25.5t17.5 -32t15 -30q23 -41 36 -69.5t27 -49.5z" />
    <glyph glyph-name="oacute" unicode="&#xf3;" horiz-adv-x="479" 
d="M455 345q0 -32 -7.5 -69.5t-21.5 -73t-34.5 -66.5t-46.5 -49q-14 -10 -27 -26t-29 -28q-9 -7 -24 -15t-32.5 -15t-35.5 -12t-34 -5q-20 0 -44.5 7.5t-47 22t-37.5 34.5t-15 45q0 34 7.5 55.5t17.5 40.5t18.5 41.5t10.5 58.5q45 42 77.5 72.5t62.5 50.5t63 29.5t80 9.5
q20 0 38 -11t31.5 -27.5t21.5 -35t8 -34.5zM371 325q-1 6 -4 11q-2 4 -5.5 7.5t-7.5 3.5q-12 0 -21.5 -3t-20 -9l-24.5 -14t-34 -17q-9 -4 -20.5 -13t-22 -20t-18.5 -22t-9 -18q-2 -6 -4 -12.5t-3 -8.5q-9 -13 -16 -20.5t-11.5 -14.5t-7 -16.5t-2.5 -27.5q0 -8 2.5 -14
t5.5 -12h30q10 0 26.5 7.5t33 16.5t29.5 17.5t17 11.5q10 7 24.5 28t28.5 46.5t24 50.5t10 42zM455 711q0 -9 -6 -22t-15.5 -27t-21 -29t-22.5 -30q-9 -12 -26.5 -30.5t-38 -36.5t-43 -30.5t-41.5 -12.5q-8 0 -14.5 7.5t-6.5 12.5q0 6 1.5 9t5 6.5t8 8.5t10.5 13
q13 19 20.5 30.5t11.5 19.5t7 13.5t8 13.5q10 16 16 26.5t9 20.5t4 22.5t1 34.5q0 10 10 20t24.5 18.5t30 14t26.5 5.5q15 0 23.5 -10.5t12.5 -24t5 -26t1 -17.5z" />
    <glyph glyph-name="ocircumflex" unicode="&#xf4;" horiz-adv-x="479" 
d="M455 345q0 -32 -7.5 -69.5t-21.5 -73t-34.5 -66.5t-46.5 -49q-14 -10 -27 -26t-29 -28q-9 -7 -24 -15t-32.5 -15t-35.5 -12t-34 -5q-20 0 -44.5 7.5t-47 22t-37.5 34.5t-15 45q0 34 7.5 55.5t17.5 40.5t18.5 41.5t10.5 58.5q45 42 77.5 72.5t62.5 50.5t63 29.5t80 9.5
q20 0 38 -11t31.5 -27.5t21.5 -35t8 -34.5zM371 325q-1 6 -4 11q-2 4 -5.5 7.5t-7.5 3.5q-12 0 -21.5 -3t-20 -9l-24.5 -14t-34 -17q-9 -4 -20.5 -13t-22 -20t-18.5 -22t-9 -18q-2 -6 -4 -12.5t-3 -8.5q-9 -13 -16 -20.5t-11.5 -14.5t-7 -16.5t-2.5 -27.5q0 -8 2.5 -14
t5.5 -12h30q10 0 26.5 7.5t33 16.5t29.5 17.5t17 11.5q10 7 24.5 28t28.5 46.5t24 50.5t10 42zM494 550q0 -26 -6.5 -32t-23.5 -6h-22q-23 0 -43 9.5t-37 21.5t-32 21.5t-27 9.5q-15 0 -32 -9.5t-35.5 -22.5t-38 -25.5t-39.5 -19.5q-9 -3 -19 -3q-17 0 -27.5 10t-10.5 28
q0 7 6 20.5t17 21.5q10 7 32 23t41 32q15 12 25.5 25.5t19.5 25t19 18.5t23 7q5 0 16 -6t23 -14l22.5 -15l13.5 -9q10 -6 29.5 -18.5t33.5 -23.5q6 -3 17.5 -9t18.5 -10q15 -8 25.5 -22t10.5 -28z" />
    <glyph glyph-name="otilde" unicode="&#xf5;" horiz-adv-x="479" 
d="M455 345q0 -32 -7.5 -69.5t-21.5 -73t-34.5 -66.5t-46.5 -49q-14 -10 -27 -26t-29 -28q-9 -7 -24 -15t-32.5 -15t-35.5 -12t-34 -5q-20 0 -44.5 7.5t-47 22t-37.5 34.5t-15 45q0 34 7.5 55.5t17.5 40.5t18.5 41.5t10.5 58.5q45 42 77.5 72.5t62.5 50.5t63 29.5t80 9.5
q20 0 38 -11t31.5 -27.5t21.5 -35t8 -34.5zM371 325q-1 6 -4 11q-2 4 -5.5 7.5t-7.5 3.5q-12 0 -21.5 -3t-20 -9l-24.5 -14t-34 -17q-9 -4 -20.5 -13t-22 -20t-18.5 -22t-9 -18q-2 -6 -4 -12.5t-3 -8.5q-9 -13 -16 -20.5t-11.5 -14.5t-7 -16.5t-2.5 -27.5q0 -8 2.5 -14
t5.5 -12h30q10 0 26.5 7.5t33 16.5t29.5 17.5t17 11.5q10 7 24.5 28t28.5 46.5t24 50.5t10 42zM436 602q0 -15 -2.5 -33.5t-10.5 -34t-22 -26.5t-37 -11q-20 0 -34.5 9.5t-25.5 24t-19 31.5t-15 32q-13 -5 -23.5 -19t-19 -29.5t-14 -27.5t-9.5 -12h-19q-9 0 -16 5t-12.5 12
t-8.5 15t-3 13q0 11 7 23.5t16 25t18 24.5t14 23q20 9 28 14l12 7.5t8 3t17 0.5q29 0 52 -24.5t38 -58.5h5q3 5 5 11.5t2 9.5q0 15 -6 23t-12.5 14t-12.5 13.5t-6 22.5q0 5 5.5 11.5t12.5 12.5t14.5 10t12.5 4q22 0 34.5 -11.5t18.5 -29t7 -38.5t1 -40z" />
    <glyph glyph-name="odieresis" unicode="&#xf6;" horiz-adv-x="479" 
d="M455 345q0 -32 -7.5 -69.5t-21.5 -73t-34.5 -66.5t-46.5 -49q-14 -10 -27 -26t-29 -28q-9 -7 -24 -15t-32.5 -15t-35.5 -12t-34 -5q-20 0 -44.5 7.5t-47 22t-37.5 34.5t-15 45q0 34 7.5 55.5t17.5 40.5t18.5 41.5t10.5 58.5q45 42 77.5 72.5t62.5 50.5t63 29.5t80 9.5
q20 0 38 -11t31.5 -27.5t21.5 -35t8 -34.5zM371 325q-1 6 -4 11q-2 4 -5.5 7.5t-7.5 3.5q-12 0 -21.5 -3t-20 -9l-24.5 -14t-34 -17q-9 -4 -20.5 -13t-22 -20t-18.5 -22t-9 -18q-2 -6 -4 -12.5t-3 -8.5q-9 -13 -16 -20.5t-11.5 -14.5t-7 -16.5t-2.5 -27.5q0 -8 2.5 -14
t5.5 -12h30q10 0 26.5 7.5t33 16.5t29.5 17.5t17 11.5q10 7 24.5 28t28.5 46.5t24 50.5t10 42zM444 602q0 -9 -1.5 -22.5t-8 -25.5t-18.5 -21t-33 -9q-15 0 -28.5 12.5t-24 29.5t-16.5 33.5t-6 25.5q0 10 7.5 19t17.5 16t20 11.5t15 4.5q13 0 26.5 -8.5t24.5 -20t18 -24
t7 -21.5zM273 576q0 -8 -6 -19.5t-15 -22t-19.5 -18t-20.5 -7.5q-8 0 -19.5 6t-22.5 13t-19 13.5t-9 6.5q-1 9 -2.5 20.5t-1.5 16.5q0 11 0.5 15.5t3.5 9t9 12.5t17 25q2 0 6 -1.5t9 -1.5t13 5t13 5q15 0 27 -9t20 -21t12.5 -25.5t4.5 -22.5z" />
    <glyph glyph-name="divide" unicode="&#xf7;" horiz-adv-x="591" 
d="M377 514q0 -40 -25 -61t-56 -21q-17 0 -32.5 6.5t-27 17.5t-18.5 25.5t-7 31.5q0 35 23.5 60.5t61.5 25.5t59.5 -24.5t21.5 -60.5zM71 238v130h448v-130h-448zM377 89q0 -41 -25 -62t-56 -21q-35 0 -60 24t-25 58t23.5 59t61.5 25t59.5 -24t21.5 -59z" />
    <glyph glyph-name="oslash" unicode="&#xf8;" horiz-adv-x="491" 
d="M465 558q0 -20 -7 -38t-16 -34t-18.5 -30t-14.5 -24q21 -17 33.5 -42t12.5 -45q0 -32 -7.5 -71t-21.5 -77t-34.5 -70.5t-46.5 -50.5q-14 -10 -27 -26.5t-29 -28.5q-5 -4 -16 -8.5t-23 -9t-22.5 -8t-15.5 -4.5q-4 -12 -7 -23.5t-7 -30.5q-6 -29 -10 -52.5t-9 -52.5
q-9 -7 -16 -10.5t-13 -5t-11.5 -2t-12.5 -0.5q-15 0 -25 6.5t-16 16t-9 20.5t-3 20q0 3 3.5 11t8 18t10 21.5t9.5 20.5q5 11 8.5 20t8.5 23q-17 6 -35 16.5t-33 24.5t-24.5 30t-9.5 33q0 34 3 59t9.5 46.5t17.5 42t27 45.5q41 65 91.5 105t116.5 54q4 0 8.5 1t8.5 2
q16 38 25.5 63t19 43t22.5 32.5t36 30.5q1 1 5 1q6 0 15.5 -6.5t18.5 -16.5t15.5 -20.5t6.5 -18.5zM371 325q-3 6 -6 11q-5 11 -11 15q-13 -20 -23 -40t-21 -46.5t-25 -63t-35 -89.5q10 5 20.5 13.5t13.5 10.5q10 7 24.5 29.5t28.5 51t24 58t10 50.5zM256 344
q-11 -5 -24 -14.5t-25.5 -21.5t-24 -25.5t-18.5 -26.5q-17 -29 -22 -45.5t-5 -30.5q0 -11 1.5 -22t1.5 -27q0 -8 5.5 -16t11.5 -10q11 35 21.5 59.5t21.5 47.5q20 42 32.5 75.5t23.5 56.5z" />
    <glyph glyph-name="ugrave" unicode="&#xf9;" horiz-adv-x="565" 
d="M536 -34q0 -20 -10 -32.5t-23.5 -19.5t-27.5 -10t-23 -3q-19 0 -33 15.5t-23.5 39t-15.5 51t-9.5 52t-4.5 42t-1 20.5q0 8 -4.5 21.5t-6.5 28.5q-3 0 -4.5 2t-4.5 5q-9 -11 -26 -28.5t-38 -37.5t-44.5 -40.5t-46.5 -37t-44 -27t-36 -10.5q-39 0 -64.5 26t-25.5 63
q0 23 5.5 54.5t14 66t18.5 68t19 61t15.5 45t7.5 19.5q4 6 12 10.5t16 7.5t15.5 4.5t11.5 1.5q10 0 20.5 -4.5t18.5 -12.5t13.5 -18.5t5.5 -22.5q0 -11 -10.5 -40t-23.5 -61t-23.5 -59t-10.5 -33v-10l4 -5q72 47 125.5 92t82.5 91q3 6 11 10.5t17.5 7.5t19 5t16.5 2
q22 0 34.5 -9t18.5 -23.5t7 -32.5t1 -36v-14v-13t1 -12q2 -25 2 -55.5v-60.5q1 -1 3.5 -5.5t4.5 -7.5q0 -10 -2 -19t-2 -19q0 -12 7 -25q6 -11 13 -18t13 -14t10 -15t4 -21zM374 521q4 -5 4 -11q0 -16 -25 -16q-15 0 -34.5 7.5t-54.5 36.5q0 10 -9 14t-15 11
q-20 23 -34.5 37.5t-23.5 28t-13.5 30.5t-4.5 45v10q20 6 35.5 15t31.5 9q15 0 26.5 -10.5t21 -25.5t17.5 -32t15 -30q23 -41 36 -69.5t27 -49.5z" />
    <glyph glyph-name="uacute" unicode="&#xfa;" horiz-adv-x="565" 
d="M536 -34q0 -20 -10 -32.5t-23.5 -19.5t-27.5 -10t-23 -3q-19 0 -33 15.5t-23.5 39t-15.5 51t-9.5 52t-4.5 42t-1 20.5q0 8 -4.5 21.5t-6.5 28.5q-3 0 -4.5 2t-4.5 5q-9 -11 -26 -28.5t-38 -37.5t-44.5 -40.5t-46.5 -37t-44 -27t-36 -10.5q-39 0 -64.5 26t-25.5 63
q0 23 5.5 54.5t14 66t18.5 68t19 61t15.5 45t7.5 19.5q4 6 12 10.5t16 7.5t15.5 4.5t11.5 1.5q10 0 20.5 -4.5t18.5 -12.5t13.5 -18.5t5.5 -22.5q0 -11 -10.5 -40t-23.5 -61t-23.5 -59t-10.5 -33v-10l4 -5q72 47 125.5 92t82.5 91q3 6 11 10.5t17.5 7.5t19 5t16.5 2
q22 0 34.5 -9t18.5 -23.5t7 -32.5t1 -36v-14v-13t1 -12q2 -25 2 -55.5v-60.5q1 -1 3.5 -5.5t4.5 -7.5q0 -10 -2 -19t-2 -19q0 -12 7 -25q6 -11 13 -18t13 -14t10 -15t4 -21zM470 711q0 -9 -6 -22t-15.5 -27t-21 -29t-22.5 -30q-9 -12 -26.5 -30.5t-38 -36.5t-43 -30.5
t-41.5 -12.5q-8 0 -14.5 7.5t-6.5 12.5q0 6 1.5 9t5 6.5t8 8.5t10.5 13q13 19 20.5 30.5t11.5 19.5t7 13.5t8 13.5q10 16 16 26.5t9 20.5t4 22.5t1 34.5q0 10 10 20t24.5 18.5t30 14t26.5 5.5q15 0 23.5 -10.5t12.5 -24t5 -26t1 -17.5z" />
    <glyph glyph-name="ucircumflex" unicode="&#xfb;" horiz-adv-x="565" 
d="M536 -34q0 -20 -10 -32.5t-23.5 -19.5t-27.5 -10t-23 -3q-19 0 -33 15.5t-23.5 39t-15.5 51t-9.5 52t-4.5 42t-1 20.5q0 8 -4.5 21.5t-6.5 28.5q-3 0 -4.5 2t-4.5 5q-9 -11 -26 -28.5t-38 -37.5t-44.5 -40.5t-46.5 -37t-44 -27t-36 -10.5q-39 0 -64.5 26t-25.5 63
q0 23 5.5 54.5t14 66t18.5 68t19 61t15.5 45t7.5 19.5q4 6 12 10.5t16 7.5t15.5 4.5t11.5 1.5q10 0 20.5 -4.5t18.5 -12.5t13.5 -18.5t5.5 -22.5q0 -11 -10.5 -40t-23.5 -61t-23.5 -59t-10.5 -33v-10l4 -5q72 47 125.5 92t82.5 91q3 6 11 10.5t17.5 7.5t19 5t16.5 2
q22 0 34.5 -9t18.5 -23.5t7 -32.5t1 -36v-14v-13t1 -12q2 -25 2 -55.5v-60.5q1 -1 3.5 -5.5t4.5 -7.5q0 -10 -2 -19t-2 -19q0 -12 7 -25q6 -11 13 -18t13 -14t10 -15t4 -21zM509 550q0 -26 -6.5 -32t-23.5 -6h-22q-23 0 -43 9.5t-37 21.5t-32 21.5t-27 9.5q-15 0 -32 -9.5
t-35.5 -22.5t-38 -25.5t-39.5 -19.5q-9 -3 -19 -3q-17 0 -27.5 10t-10.5 28q0 7 6 20.5t17 21.5q10 7 32 23t41 32q15 12 25.5 25.5t19.5 25t19 18.5t23 7q5 0 16 -6t23 -14l22.5 -15l13.5 -9q10 -6 29.5 -18.5t33.5 -23.5q6 -3 17.5 -9t18.5 -10q15 -8 25.5 -22t10.5 -28z
" />
    <glyph glyph-name="udieresis" unicode="&#xfc;" horiz-adv-x="565" 
d="M536 -34q0 -20 -10 -32.5t-23.5 -19.5t-27.5 -10t-23 -3q-19 0 -33 15.5t-23.5 39t-15.5 51t-9.5 52t-4.5 42t-1 20.5q0 8 -4.5 21.5t-6.5 28.5q-3 0 -4.5 2t-4.5 5q-9 -11 -26 -28.5t-38 -37.5t-44.5 -40.5t-46.5 -37t-44 -27t-36 -10.5q-39 0 -64.5 26t-25.5 63
q0 23 5.5 54.5t14 66t18.5 68t19 61t15.5 45t7.5 19.5q4 6 12 10.5t16 7.5t15.5 4.5t11.5 1.5q10 0 20.5 -4.5t18.5 -12.5t13.5 -18.5t5.5 -22.5q0 -11 -10.5 -40t-23.5 -61t-23.5 -59t-10.5 -33v-10l4 -5q72 47 125.5 92t82.5 91q3 6 11 10.5t17.5 7.5t19 5t16.5 2
q22 0 34.5 -9t18.5 -23.5t7 -32.5t1 -36v-14v-13t1 -12q2 -25 2 -55.5v-60.5q1 -1 3.5 -5.5t4.5 -7.5q0 -10 -2 -19t-2 -19q0 -12 7 -25q6 -11 13 -18t13 -14t10 -15t4 -21zM459 602q0 -9 -1.5 -22.5t-8 -25.5t-18.5 -21t-33 -9q-15 0 -28.5 12.5t-24 29.5t-16.5 33.5
t-6 25.5q0 10 7.5 19t17.5 16t20 11.5t15 4.5q13 0 26.5 -8.5t24.5 -20t18 -24t7 -21.5zM288 576q0 -8 -6 -19.5t-15 -22t-19.5 -18t-20.5 -7.5q-8 0 -19.5 6t-22.5 13t-19 13.5t-9 6.5q-1 9 -2.5 20.5t-1.5 16.5q0 11 0.5 15.5t3.5 9t9 12.5t17 25q2 0 6 -1.5t9 -1.5t13 5
t13 5q15 0 27 -9t20 -21t12.5 -25.5t4.5 -22.5z" />
    <glyph glyph-name="yacute" unicode="&#xfd;" horiz-adv-x="556" 
d="M536 379q0 -3 -4.5 -29t-11 -61t-13.5 -73.5t-13 -65.5q-6 -32 -12 -68.5t-12.5 -73.5t-15.5 -73.5t-21 -69.5q-24 -65 -62 -127t-91 -111.5t-122 -79.5t-155 -30q-11 0 -35.5 3t-49 13t-43 27.5t-18.5 46.5q0 41 20 65t41 34l13 -7q9 -12 21.5 -26.5t26.5 -27
t29.5 -20.5t29.5 -8q38 0 69 9t59 29t55 51t58 75q10 15 21.5 35t21.5 43.5t16 49t6 50.5q0 5 -0.5 11t-1.5 11q8 14 14 38.5t10.5 54t7 60.5t2.5 58q0 4 0.5 8t0.5 9q0 7 -2 11q-22 -22 -51 -45.5t-62 -43t-68.5 -32.5t-70.5 -13q-17 0 -36 7t-34.5 19.5t-26 29.5t-10.5 36
q0 13 5.5 34.5t14 46.5t18.5 51t20 47.5t18.5 36.5t13.5 18q9 5 27 8.5t26 3.5q15 0 26.5 -7t19.5 -17.5t12 -22.5t4 -22q0 -11 -6 -25t-15 -29.5t-19 -31.5t-17 -30v-8q2 -3 5.5 -6t9.5 -3q10 0 27.5 11t39 28t44 38.5t42 42t34 38.5t18.5 29q5 14 22 25.5t31 20.5
q3 2 10 4t15 2q17 0 30.5 -7.5t23.5 -19.5t15 -26.5t5 -28.5zM469 711q0 -9 -6 -22t-15.5 -27t-21 -29t-22.5 -30q-9 -12 -26.5 -30.5t-38 -36.5t-43 -30.5t-41.5 -12.5q-8 0 -14.5 7.5t-6.5 12.5q0 6 1.5 9t5 6.5t8 8.5t10.5 13q13 19 20.5 30.5t11.5 19.5t7 13.5t8 13.5
q10 16 16 26.5t9 20.5t4 22.5t1 34.5q0 10 10 20t24.5 18.5t30 14t26.5 5.5q15 0 23.5 -10.5t12.5 -24t5 -26t1 -17.5z" />
    <glyph glyph-name="thorn" unicode="&#xfe;" horiz-adv-x="477" 
d="M450 352q0 -11 -2.5 -27.5t-5.5 -31.5t-6.5 -26.5t-4.5 -13.5q-2 -23 -16.5 -55t-38.5 -66.5t-54 -68.5t-61.5 -60.5t-62 -43t-55.5 -16.5q-6 0 -20.5 6.5t-21.5 6.5q-5 0 -9.5 -9.5t-9.5 -25t-10 -35t-9 -39.5q-11 -48 -21 -108q0 -8 9 -18.5t20.5 -22.5t20.5 -26t9 -28
q0 -8 -7 -30.5t-19.5 -46t-29.5 -42t-37 -18.5q-11 0 -21.5 9t-18.5 19.5t-12.5 20l-4.5 9.5q0 71 3.5 121.5t10.5 92.5t16.5 81t21.5 86.5t27 109t31 149.5q5 9 10.5 30t12 49.5t14.5 61.5t19 68q6 34 15 75t19.5 78.5t20 66t15.5 37.5q3 5 8.5 12.5t11.5 14t12.5 11.5
t12.5 5q13 0 27 -2t25.5 -8t19 -16.5t7.5 -26.5q0 -6 -5.5 -18.5t-13 -27t-15.5 -29.5t-12 -26q-5 -11 -12.5 -32t-15.5 -45.5t-16 -51t-14 -48.5q8 10 15 20l12 16t9 13q14 19 34.5 37.5t54.5 18.5q30 0 52.5 -13t37 -33.5t21.5 -44.5t7 -45zM349 326q-1 12 -5 22
q-3 8 -7.5 15t-11.5 7q-17 0 -38 -19.5t-43 -49t-43 -65t-37 -68t-26 -57t-10 -31.5q0 -6 2 -9.5t5 -6.5q8 0 18 -1.5t16 -1.5q18 0 45.5 22.5t53.5 53t44.5 62.5t18.5 50q0 2 -0.5 2.5t-0.5 2.5q0 1 3 10.5t6.5 21t6.5 23t3 17.5z" />
    <glyph glyph-name="ydieresis" unicode="&#xff;" horiz-adv-x="556" 
d="M536 379q0 -3 -4.5 -29t-11 -61t-13.5 -73.5t-13 -65.5q-6 -32 -12 -68.5t-12.5 -73.5t-15.5 -73.5t-21 -69.5q-24 -65 -62 -127t-91 -111.5t-122 -79.5t-155 -30q-11 0 -35.5 3t-49 13t-43 27.5t-18.5 46.5q0 41 20 65t41 34l13 -7q9 -12 21.5 -26.5t26.5 -27
t29.5 -20.5t29.5 -8q38 0 69 9t59 29t55 51t58 75q10 15 21.5 35t21.5 43.5t16 49t6 50.5q0 5 -0.5 11t-1.5 11q8 14 14 38.5t10.5 54t7 60.5t2.5 58q0 4 0.5 8t0.5 9q0 7 -2 11q-22 -22 -51 -45.5t-62 -43t-68.5 -32.5t-70.5 -13q-17 0 -36 7t-34.5 19.5t-26 29.5t-10.5 36
q0 13 5.5 34.5t14 46.5t18.5 51t20 47.5t18.5 36.5t13.5 18q9 5 27 8.5t26 3.5q15 0 26.5 -7t19.5 -17.5t12 -22.5t4 -22q0 -11 -6 -25t-15 -29.5t-19 -31.5t-17 -30v-8q2 -3 5.5 -6t9.5 -3q10 0 27.5 11t39 28t44 38.5t42 42t34 38.5t18.5 29q5 14 22 25.5t31 20.5
q3 2 10 4t15 2q17 0 30.5 -7.5t23.5 -19.5t15 -26.5t5 -28.5zM458 602q0 -9 -1.5 -22.5t-8 -25.5t-18.5 -21t-33 -9q-15 0 -28.5 12.5t-24 29.5t-16.5 33.5t-6 25.5q0 10 7.5 19t17.5 16t20 11.5t15 4.5q13 0 26.5 -8.5t24.5 -20t18 -24t7 -21.5zM287 576q0 -8 -6 -19.5
t-15 -22t-19.5 -18t-20.5 -7.5q-8 0 -19.5 6t-22.5 13t-19 13.5t-9 6.5q-1 9 -2.5 20.5t-1.5 16.5q0 11 0.5 15.5t3.5 9t9 12.5t17 25q2 0 6 -1.5t9 -1.5t13 5t13 5q15 0 27 -9t20 -21t12.5 -25.5t4.5 -22.5z" />
    <glyph glyph-name="dotlessi" unicode="&#x131;" horiz-adv-x="374" 
d="M440 178q0 -18 -20 -43.5t-45.5 -50.5t-49.5 -44.5t-31 -25.5q-2 -2 -15 -10t-29.5 -17t-32.5 -16.5t-24 -7.5q-3 0 -10.5 0.5t-16.5 1t-16.5 1t-10.5 0.5q-4 0 -14 10.5t-20.5 24t-18.5 24.5t-8 13q-11 26 -13.5 54.5t-3.5 50.5v7q0 19 2.5 48.5t8 63t15 67t22.5 60.5
t30 44t39 17q8 0 17 -9t17 -20.5t13.5 -22.5t5.5 -15q0 -3 -7.5 -28.5t-17 -60t-17 -70.5t-7.5 -59q0 -7 2 -18.5t4 -23.5t4.5 -21.5t4.5 -10.5h7q19 0 40.5 7t41.5 18t38 24t31 25q4 4 13 10.5t19 12.5t18 10.5t11 4.5q8 0 16 -8.5t8 -16.5z" />
    <glyph glyph-name="OE" unicode="&#x152;" horiz-adv-x="850" 
d="M837 701q-1 -6 -3.5 -15t-6 -17.5t-7.5 -15.5t-9 -9q-44 -20 -70.5 -33t-45.5 -21t-34.5 -11t-35.5 -3q-6 0 -19.5 -0.5t-24.5 -0.5q-3 -14 -2.5 -28.5t-5.5 -31.5q-3 -9 -7 -16.5t-7.5 -17.5t-7 -23.5t-5.5 -33.5v-3q0 -11 8.5 -14t10.5 -3q7 0 13.5 -2t13.5 -2
q46 0 71.5 12t41.5 26t30 26t38 12q13 0 24 -10t18.5 -23t11.5 -25.5t4 -17.5q-2 -13 -9 -25.5t-16 -23t-18 -17.5t-15 -9q-14 -5 -36.5 -7.5t-39.5 -8.5q-5 -2 -17 -8.5t-26 -13.5t-29 -12.5t-26 -5.5q-8 0 -6.5 1.5t-5.5 1.5q-6 0 -11 -4.5t-11 -6.5h-18q-8 0 -16.5 -1
t-17.5 -6q-5 -3 -8 -13t-4.5 -21t-2 -22t-0.5 -17q0 -4 -0.5 -10.5t-0.5 -14.5q0 -10 1.5 -21t6 -20t12.5 -14.5t22 -5.5q26 0 48.5 10t41.5 25t35 33t29.5 33t26 25t24.5 10q29 0 42.5 -17.5t13.5 -40.5v-2q0 -3 1 -6.5t1 -8.5q0 -8 -6 -18t-29 -24q-52 -32 -102.5 -69
t-96.5 -66q-9 -2 -20.5 -3.5t-22 -3t-18.5 -2t-11 -0.5q-43 0 -68.5 20t-39.5 57q-10 -8 -21.5 -17.5t-26.5 -19.5q-12 -8 -27.5 -14t-32 -10.5t-32.5 -6.5t-29 -2q-31 0 -53.5 13t-38 33.5t-25 45t-15.5 47t-10 40.5t-8 25q3 6 5.5 9.5t2.5 9.5v2q0 5 -3 12t-3 13q3 7 3 15
q0 2 -0.5 3.5t-0.5 3.5q-1 1 -1 13q0 13 1 33t2 39.5t2 34.5t1 18q1 7 5 18.5t9.5 22.5t10.5 20.5t8 12.5q5 5 12.5 14.5t15.5 20.5t15 23.5t11 23.5q12 47 38 76t60 45t74.5 21.5t81.5 5.5q4 0 11.5 -13t15.5 -29t15.5 -30t10.5 -15q8 6 10 10t2 8v2q0 7 -7 11t-7 16v3
q2 20 12 33t24 21t30.5 11.5t31.5 3.5q3 0 17 -2t30.5 -5t30.5 -5t17 -2q26 0 38 6t21.5 13t21 13t37.5 6q23 0 39.5 -7.5t16.5 -36.5v-2zM427 481q0 9 -5.5 17.5t-12.5 15t-14 11t-11 4.5q-38 0 -71.5 -33.5t-58.5 -81.5t-40 -100.5t-18 -89.5v-4q0 -9 1.5 -27t7 -37
t15 -33t24.5 -14q23 0 45.5 23t42.5 58.5t37.5 78.5t30.5 84t20 75t7 50v3z" />
    <glyph glyph-name="oe" unicode="&#x153;" horiz-adv-x="702" 
d="M686 398q0 -20 -13 -44.5t-33.5 -49t-46 -48t-51 -42.5t-48.5 -31.5t-39 -15.5q-3 0 -8 -7.5t-10.5 -17t-9 -20t-3.5 -17.5q0 -14 7 -24t17 -10q18 0 37.5 11.5t38 25t35.5 25t30 11.5q6 0 12 -5.5t11.5 -13t9 -15t3.5 -11.5q0 -14 -13 -30.5t-33.5 -34t-45 -34t-47 -29
t-39.5 -20.5t-23 -8q-23 0 -41 11.5t-31.5 28.5t-22 37.5t-12.5 38.5l-13.5 -13.5t-14.5 -12.5q-9 -7 -24 -15.5t-32.5 -15.5t-35.5 -11.5t-34 -4.5q-20 0 -44.5 7.5t-47 22t-37.5 34.5t-15 45q0 34 7.5 55.5t17.5 40.5t18.5 41.5t10.5 58.5q45 42 77.5 72.5t62.5 50.5
t63 29.5t80 9.5q32 0 56 -23.5t35 -51.5q1 0 20 16t43 35t47 35t32 16q39 0 68 -21.5t29 -60.5zM371 325q-1 6 -4 11q-2 4 -5.5 7.5t-7.5 3.5q-12 0 -21 -5t-19 -12.5t-23 -17t-33 -18.5q-9 -4 -18 -13t-17.5 -19.5t-14.5 -21.5t-7 -18q-2 -6 -4.5 -12.5t-3.5 -8.5
q-9 -13 -18.5 -19t-17 -11.5t-12.5 -13.5t-5 -26q0 -8 2.5 -14t5.5 -12h30q10 0 26.5 7.5t33 16.5t29.5 17.5t17 11.5q10 7 24.5 28t28.5 46.5t24 50.5t10 42z" />
    <glyph glyph-name="Scaron" unicode="&#x160;" horiz-adv-x="440" 
d="M423 639q0 -10 -6.5 -21t-17.5 -13q-18 -3 -39 -7t-47 -21q-17 -11 -34 -25t-31 -30.5t-23 -35t-9 -38.5q0 -23 12.5 -45t31.5 -44t40.5 -45t40.5 -48t31.5 -51.5t12.5 -55.5q0 -47 -22 -80.5t-58 -56t-82.5 -34.5t-94.5 -17q-5 0 -12.5 -6.5t-13.5 -6.5t-11 5.5t-9 7.5
q-18 6 -29 15t-17 20t-7.5 23t-1.5 23q0 9 5.5 19t14 18.5t18 14t17.5 5.5q22 0 29 -3.5t10.5 -7.5t8.5 -7.5t22 -3.5q18 0 37 5t35 14t26.5 22.5t10.5 30.5q0 20 -17.5 44t-40 47.5t-44 42.5t-30.5 29q-5 6 -9.5 10.5t-8.5 11t-8.5 16.5t-10.5 25q-2 6 -3 15t-1.5 18
t-0.5 16v9q0 34 24 80t61.5 87.5t84.5 70.5t93 29q32 0 52.5 -20.5t20.5 -50.5zM507 908q0 -7 -6 -20.5t-17 -21.5q-10 -7 -32 -23t-41 -32q-15 -12 -25.5 -25.5t-19.5 -25t-19 -18.5t-23 -7q-5 0 -16 6t-23 14l-22.5 15l-13.5 9q-10 6 -30 18.5t-34 23.5q-6 3 -17 9t-18 10
q-15 8 -25.5 22t-10.5 28q0 23 11 30.5t41 7.5q23 0 44 -11.5t39.5 -25.5t34.5 -25.5t28 -11.5q12 6 27.5 18t33.5 25.5t37.5 26t39.5 19.5q9 3 19 3q17 0 27.5 -10t10.5 -28z" />
    <glyph glyph-name="scaron" unicode="&#x161;" horiz-adv-x="350" 
d="M385 537q0 -16 -3.5 -34.5t-10.5 -30.5q-19 -3 -40.5 -7t-41 -13t-34.5 -25.5t-21 -45.5q-6 -30 -10 -64.5t-4 -69.5v-23.5t2 -22.5q-3 -14 -6.5 -35t-3.5 -38q0 -31 -4.5 -64.5t-15 -67.5t-29.5 -67.5t-49 -64.5q-13 -7 -29.5 -19.5l-33 -25t-31.5 -21.5t-24 -9
q-36 0 -59.5 18t-23.5 50q0 18 8.5 34.5t15.5 22.5q8 -1 16.5 -2t18.5 -1q22 0 45.5 9.5t43.5 41.5q28 43 37 91.5t14 94.5q1 5 1 10.5v11.5q0 23 -2 54.5t-2 66.5q0 32 3.5 65.5t14 66.5t29 63.5t49.5 56.5q4 5 8.5 12t11.5 13q4 3 16 7t25.5 7.5t26 5.5t16.5 2
q12 0 25.5 -3t25 -9t18.5 -16t7 -25zM488 817q0 -7 -6 -20.5t-17 -21.5q-10 -7 -32 -23t-41 -32q-15 -12 -25.5 -25.5t-19.5 -25t-19 -18.5t-23 -7q-5 0 -16 6t-23 14l-22.5 15l-13.5 9q-10 6 -30 18.5t-34 23.5q-6 3 -17 9t-18 10q-15 8 -25.5 22t-10.5 28q0 23 11 30.5
t41 7.5q23 0 44 -11.5t39.5 -25.5t34.5 -25.5t28 -11.5q12 6 27.5 18t33.5 25.5t37.5 26t39.5 19.5q9 3 19 3q17 0 27.5 -10t10.5 -28z" />
    <glyph glyph-name="Ydieresis" unicode="&#x178;" horiz-adv-x="529" 
d="M548 613q-3 -24 -10.5 -37t-18 -23.5t-24 -23.5t-29.5 -38q-2 -3 -7.5 -8.5l-12.5 -12.5t-14.5 -15t-12.5 -15q-21 -26 -29.5 -44t-10.5 -33t-1.5 -28t-3.5 -28q-5 -10 -11.5 -20.5t-17.5 -18.5q-32 -33 -47.5 -62.5t-23.5 -59.5t-12 -62.5t-13 -69.5q-5 -8 -17.5 -16.5
t-16.5 -11.5q-20 -13 -27 -16t-15 -3h-15q-26 0 -45 14t-19 38q0 2 0.5 4t0.5 4q4 31 22.5 66.5t40 73.5t39 76.5t19.5 74.5q-14 12 -30.5 31.5t-34 39t-36.5 36.5t-39 25q-6 2 -13.5 9t-15.5 16.5t-16.5 20t-15.5 19.5q0 14 -3.5 30.5t-3.5 22.5q1 7 6 17.5t12.5 20
t18 16.5t23.5 7q3 0 10.5 -0.5t15.5 -2.5t16 -5t11 -8q13 -20 31.5 -38.5t40.5 -38t46.5 -40.5t48.5 -45q1 1 13 19t30 43.5t40 55t44 54.5t42 41.5t34 16.5q30 0 44.5 -11.5t14.5 -37.5q0 -5 -0.5 -9.5t-1.5 -9.5zM418 843q0 -9 -1.5 -22.5t-8 -25.5t-18.5 -21t-33 -9
q-15 0 -28.5 12.5t-24 29.5t-16.5 33.5t-6 25.5q0 10 7.5 19t17.5 16t20 11.5t15 4.5q13 0 26.5 -8.5t24.5 -20t18 -24t7 -21.5zM247 817q0 -8 -6 -19.5t-15 -22t-19.5 -18t-20.5 -7.5q-8 0 -19.5 6t-22.5 13t-19 13.5t-9 6.5q-1 9 -2.5 20.5t-1.5 16.5q0 11 0.5 15.5t3.5 9
t9 12.5t17 25q2 0 6 -1.5t9 -1.5t13 5t13 5q15 0 27 -9t20 -21t12.5 -25.5t4.5 -22.5z" />
    <glyph glyph-name="Zcaron" unicode="&#x17d;" horiz-adv-x="754" 
d="M739 117q0 -48 -31.5 -73t-74.5 -25q-15 0 -35 7t-44 15.5t-52.5 15.5t-59.5 7q-68 0 -124.5 -17t-100.5 -37t-75 -37t-47 -17q-17 0 -29 10.5t-20 25t-12 30t-4 26.5q0 15 7.5 25t17.5 18.5t20 16.5t15 17q5 10 21 39.5t36.5 69.5t43 84.5t41.5 85t31 71.5t12 43
q0 11 -6.5 20.5t-23.5 9.5q-9 0 -33.5 -10t-51.5 -21.5t-49 -21.5t-25 -10q-17 0 -27 10.5t-15 25t-7 28.5t-2 21q0 17 20 32.5t50.5 29t67.5 24.5t71.5 18.5t61.5 11.5t38 4q38 0 64.5 -24t26.5 -67q0 -25 -12.5 -60.5t-32.5 -76.5t-44.5 -85t-48.5 -84.5t-44.5 -75.5
t-32.5 -59q3 -3 5.5 -6.5t9.5 -3.5q6 0 26.5 6t36.5 9q38 8 77 11.5t75 3.5q22 0 43.5 -2t43.5 -2q18 0 38 3q7 0 18 2t21.5 4t19.5 4t13 2q17 0 33.5 -7t29.5 -17.5t21 -23.5t8 -24zM456 908q0 -7 -6 -20.5t-17 -21.5q-10 -7 -32 -23t-41 -32q-15 -12 -25.5 -25.5
t-19.5 -25t-19 -18.5t-23 -7q-5 0 -16 6t-23 14l-22.5 15l-13.5 9q-10 6 -30 18.5t-34 23.5q-6 3 -17 9t-18 10q-15 8 -25.5 22t-10.5 28q0 23 11 30.5t41 7.5q23 0 44 -11.5t39.5 -25.5t34.5 -25.5t28 -11.5q12 6 27.5 18t33.5 25.5t37.5 26t39.5 19.5q9 3 19 3
q17 0 27.5 -10t10.5 -28z" />
    <glyph glyph-name="zcaron" unicode="&#x17e;" horiz-adv-x="561" 
d="M662 75q0 -19 -16.5 -35.5t-45.5 -29.5q-17 -8 -38.5 -12.5t-41 -7t-35 -3.5t-21.5 -1t-17.5 1.5t-19.5 1.5q-36 0 -79.5 -12t-86.5 -33.5t-82 -51.5t-64 -66q-2 -2 -9 -4.5t-15.5 -4.5t-17 -3.5t-11.5 -1.5q-13 0 -24 11t-18.5 25t-12 27.5t-4.5 19.5q0 22 9.5 35.5
t24.5 27t34 31.5t38 49q5 9 23.5 39.5t39 71.5t36.5 86t16 83q0 14 -8 25t-24 17q-16 0 -36 -5t-39.5 -12.5t-37.5 -15l-30 -12.5q-29 16 -35 31.5t-6 32.5v9q0 11 17.5 23.5t44.5 24.5t59.5 22.5t61.5 18.5t51 13t28 5q21 0 35.5 -15t23 -34.5t12 -38.5t3.5 -28
q0 -48 -14.5 -92.5t-34 -86.5t-40 -81t-33.5 -77q32 11 54 17.5t41.5 12t40.5 10t51 11.5q21 4 55 10t63 14q26 8 50.5 21t41.5 27q8 -6 15.5 -16t13.5 -22t10 -25.5t4 -26.5zM411 667q0 -7 -6 -20.5t-17 -21.5q-10 -7 -32 -23t-41 -32q-15 -12 -25.5 -25.5t-19.5 -25
t-19 -18.5t-23 -7q-5 0 -16 6t-23 14l-22.5 15l-13.5 9q-10 6 -30 18.5t-34 23.5q-6 3 -17 9t-18 10q-15 8 -25.5 22t-10.5 28q0 23 11 30.5t41 7.5q23 0 44 -11.5t39.5 -25.5t34.5 -25.5t28 -11.5q12 6 27.5 18t33.5 25.5t37.5 26t39.5 19.5q9 3 19 3q17 0 27.5 -10
t10.5 -28z" />
    <glyph glyph-name="florin" unicode="&#x192;" horiz-adv-x="453" 
d="M615 865q-1 -11 -6.5 -24.5t-14.5 -25.5t-22 -21t-29 -11q-4 5 -7 12.5t-11 14.5q-45 -17 -79.5 -45t-58.5 -73q-15 -27 -32.5 -63.5t-33 -72.5t-26.5 -67t-12 -47v-1q0 -10 9 -12t10 -2q4 0 15.5 2t24 4.5t24 4.5t14.5 2q5 0 7.5 -1t10.5 -1q3 0 13.5 2.5t22 6t22 6
t13.5 2.5q17 0 28 -8t18 -20t9.5 -25t2.5 -23v-5q-1 -9 -7 -19t-15 -19t-19 -15t-17 -6h-23q-4 0 -10 3.5t-15.5 8t-24 8.5t-35.5 4q-38 0 -71 -3.5t-49 -26.5q-13 -18 -28.5 -67.5t-34.5 -117.5t-42 -148t-50 -159q-16 -47 -41.5 -91t-53.5 -81t-56.5 -65.5t-50.5 -43.5
q-30 -21 -61 -21q-25 0 -48 13q-17 9 -25 26t-8 37t8.5 40t23.5 33q11 3 18.5 4t15.5 1q11 0 22.5 -1t30.5 -1q16 0 34 12t35 31.5t31.5 44.5t24.5 50q16 41 33.5 89t34.5 97t33 96.5t28 87.5t20 70t9 44l1 15q-19 7 -29 7q-3 0 -12 -1t-19 -2.5t-19 -2.5t-13 -1
q-24 0 -46 10t-22 40v6q1 18 11.5 29t24 16t26.5 6.5t20 1.5q6 0 20.5 -2t21.5 -2q5 0 18 2t27 5t25 6t12 6q13 35 22.5 68t19 67t22 71t32.5 81q22 48 49.5 90t60 73t70.5 49t82 18q16 0 28 -7t20.5 -18t13 -24t4.5 -25v-6z" />
    <glyph glyph-name="circumflex" unicode="&#x2c6;" 
d="M454 550q0 -26 -6.5 -32t-23.5 -6h-22q-23 0 -43 9.5t-37 21.5t-32 21.5t-27 9.5q-15 0 -32 -9.5t-35.5 -22.5t-38 -25.5t-39.5 -19.5q-9 -3 -19 -3q-17 0 -27.5 10t-10.5 28q0 7 6 20.5t17 21.5q10 7 32 23t41 32q15 12 25.5 25.5t19.5 25t19 18.5t23 7q5 0 16 -6
t23 -14l22.5 -15l13.5 -9q10 -6 29.5 -18.5t33.5 -23.5q6 -3 17.5 -9t18.5 -10q15 -8 25.5 -22t10.5 -28z" />
    <glyph glyph-name="caron" unicode="&#x2c7;" 
d="M459 667q0 -7 -6 -20.5t-17 -21.5q-10 -7 -32 -23t-41 -32q-15 -12 -25.5 -25.5t-19.5 -25t-19 -18.5t-23 -7q-5 0 -16 6t-23 14l-22.5 15l-13.5 9q-10 6 -30 18.5t-34 23.5q-6 3 -17 9t-18 10q-15 8 -25.5 22t-10.5 28q0 23 11 30.5t41 7.5q23 0 44 -11.5t39.5 -25.5
t34.5 -25.5t28 -11.5q12 6 27.5 18t33.5 25.5t37.5 26t39.5 19.5q9 3 19 3q17 0 27.5 -10t10.5 -28z" />
    <glyph glyph-name="ring" unicode="&#x2da;" 
d="M360 617q0 -22 -3.5 -35t-8.5 -22q-1 -2 -8.5 -12.5t-18.5 -22t-22.5 -20.5t-20.5 -9q-3 0 -9 -1t-9 -1q-11 0 -26 8t-29 19.5t-24 25t-10 25.5q0 13 2.5 41.5t11.5 57.5t28 51.5t52 22.5q20 0 37.5 -16t30 -37.5t20 -43t7.5 -31.5zM297 597q0 7 -2.5 18t-6.5 21.5
t-9.5 19t-12.5 11.5q-5 -8 -12.5 -17.5t-14.5 -19.5t-12 -18.5t-5 -12.5q0 -3 1.5 -9.5t5.5 -13t9.5 -11.5t14.5 -5q4 0 11 3.5t14.5 8.5t13 12t5.5 13z" />
    <glyph glyph-name="tilde" unicode="&#x2dc;" 
d="M396 602q0 -15 -2.5 -33.5t-10.5 -34t-22 -26.5t-37 -11q-20 0 -34.5 9.5t-25.5 24t-19 31.5t-15 32q-13 -5 -23.5 -19t-19 -29.5t-14 -27.5t-9.5 -12h-19q-9 0 -16 5t-12.5 12t-8.5 15t-3 13q0 11 7 23.5t16 25t18 24.5t14 23q20 9 28 14l12 7.5t8 3t17 0.5
q29 0 52 -24.5t38 -58.5h5q3 5 5 11.5t2 9.5q0 15 -6 23t-12.5 14t-12.5 13.5t-6 22.5q0 5 5.5 11.5t12.5 12.5t14.5 10t12.5 4q22 0 34.5 -11.5t18.5 -29t7 -38.5t1 -40z" />
    <glyph glyph-name="endash" unicode="&#x2013;" horiz-adv-x="736" 
d="M671 283q0 -2 -2.5 -12.5t-6.5 -23t-8.5 -22.5t-8.5 -10t-4 2t-5 2q-6 0 -11 -9t-12 -9q-6 0 -9 2t-10 2q-2 0 -19 -2.5t-42 -6t-54.5 -7.5t-57 -7.5t-49 -6t-29.5 -2.5q-16 0 -42.5 -1t-54 -1.5t-50.5 -1.5t-32 -1q-8 0 -24 2t-33 8.5t-29.5 18.5t-12.5 32q0 49 29 66
t70 17q3 0 28.5 -1.5t56 -3.5t56 -3.5t28.5 -1.5q6 0 13.5 1t15.5 2t15 2t11 1q6 0 10.5 2t12.5 2q6 0 12.5 -2t14.5 -2q28 0 52.5 3.5t47 8t44.5 8.5t46 4q4 0 11.5 -6t14.5 -14t12 -16t5 -13z" />
    <glyph glyph-name="emdash" unicode="&#x2014;" horiz-adv-x="927" 
d="M862 283q0 -2 -2.5 -12.5t-6.5 -23t-8.5 -22.5t-8.5 -10t-4 2t-5 2q-6 0 -11 -9t-12 -9q-6 0 -9 2t-10 2q-2 0 -33 -1.5t-77.5 -4t-101 -5t-103 -5t-84 -4t-43.5 -1.5q-16 0 -42.5 -1t-54 -1.5t-50.5 -1.5t-32 -1q-8 0 -24 2t-33 8.5t-29.5 18.5t-12.5 32q0 49 29 66
t70 17q3 0 28.5 -1.5t56 -3.5t56 -3.5t28.5 -1.5h16t21 -0.5t20.5 -0.5h13.5h173q6 0 12 -2t14 -2q28 0 56.5 3.5t56 8t53.5 8.5t50 4q4 0 11.5 -6t14.5 -14t12 -16t5 -13z" />
    <glyph glyph-name="quoteleft" unicode="&#x2018;" horiz-adv-x="309" 
d="M246 487q0 -9 -6.5 -28.5t-14.5 -30.5q-11 0 -26 15.5t-31 36t-29 41t-19 31.5q-13 24 -26.5 47t-24.5 46t-18 45.5t-7 44.5q0 9 2 20.5t7 22t14.5 18t23.5 7.5q21 0 41 -4t36 -16.5t25.5 -35t9.5 -59.5q0 -9 -1 -19.5t-1 -23.5q0 -17 4 -37t16 -46q11 -24 16.5 -42.5
t8.5 -30.5v-2z" />
    <glyph glyph-name="quoteright" unicode="&#x2019;" horiz-adv-x="374" 
d="M330 724q0 -22 -7 -44.5t-18 -45.5t-24.5 -46t-26.5 -47q-6 -10 -19 -30.5t-28 -41.5t-30.5 -36.5t-25.5 -15.5h-2q-4 1 -9 8t-9.5 16t-7.5 18t-3 14v1q3 12 12 32.5t21 44.5q14 29 19 49.5t5 37.5q0 15 -2 26.5t-2 21.5q0 31 7.5 52t20.5 33.5t29 18t34 5.5q13 0 27 -3
t22 -10.5t11.5 -17t4.5 -20.5t1 -20z" />
    <glyph glyph-name="quotesinglbase" unicode="&#x201a;" horiz-adv-x="318" 
d="M264 116q0 -22 -7 -44.5t-18 -45.5t-24.5 -46t-26.5 -47q-6 -10 -19 -30.5t-28 -41.5t-30.5 -36.5t-25.5 -15.5h-2q-4 1 -9 8t-9.5 16t-7.5 18t-3 14v1q3 12 12 32.5t21 44.5q14 29 19 49.5t5 37.5q0 15 -2 26.5t-2 21.5q0 31 7.5 52t20.5 33.5t29 18t34 5.5q13 0 27 -3
t22 -10.5t11.5 -17t4.5 -20.5t1 -20z" />
    <glyph glyph-name="quotedblleft" unicode="&#x201c;" horiz-adv-x="600" 
d="M538 484q0 -5 -3 -14t-7.5 -18.5t-9.5 -16.5t-9 -7q-11 0 -26 15.5t-31 36t-29 41t-19 31.5q-13 24 -26.5 47t-24.5 46t-18 45.5t-7 44.5q0 9 2 20.5t7 22t14.5 18t23.5 7.5q21 0 41.5 -5.5t36.5 -19t26 -37.5t10 -61q0 -10 -1.5 -20.5t-1.5 -23.5q0 -14 4 -32t15 -42
t20.5 -44.5t12.5 -32.5v-1zM273 488q0 -10 -7 -29.5t-15 -30.5q-11 0 -26 15.5t-30.5 36t-28.5 41t-19 31.5q-13 24 -26.5 47t-24.5 46t-18 45.5t-7 44.5q0 9 2 20.5t7 22t14 18t23 7.5q21 0 41.5 -4t36 -16.5t25.5 -35t10 -59.5q0 -9 -1 -19.5t-1 -23.5q0 -17 4 -37t16 -46
q11 -24 16.5 -42.5t8.5 -30.5v-1z" />
    <glyph glyph-name="quotedblright" unicode="&#x201d;" horiz-adv-x="620" 
d="M574 733q0 -22 -7 -44.5t-18 -45.5t-24.5 -46.5t-26.5 -47.5q-6 -11 -19 -31.5t-29 -40.5t-31.5 -35.5t-25.5 -15.5q-8 11 -15 30t-7 29v1q3 12 9 31t17 43q12 25 15.5 44.5t3.5 36.5q0 14 -1 24.5t-1 20.5q0 37 10 59.5t25.5 35t36 16.5t41.5 4q14 0 23 -7.5t14.5 -18
t7.5 -22t2 -20.5zM316 733q0 -22 -7 -44.5t-18 -45.5t-24.5 -46.5t-26.5 -47.5q-6 -11 -19 -31.5t-29 -40.5t-31.5 -35.5t-25.5 -15.5q-4 0 -9 7t-9.5 16.5t-7.5 18.5t-3 14v1q3 12 12.5 32.5t20.5 44.5t15 41.5t4 31.5q0 13 -1.5 23.5t-1.5 20.5q0 37 10 61t26 38
t36.5 19.5t41.5 5.5q14 0 23 -7.5t14.5 -18t7.5 -22t2 -20.5z" />
    <glyph glyph-name="quotedblbase" unicode="&#x201e;" horiz-adv-x="584" 
d="M517 116q0 -22 -7 -44.5t-18 -45.5t-24.5 -46t-26.5 -47q-6 -10 -19 -30.5t-28 -41.5t-30.5 -36.5t-25.5 -15.5h-2q-4 1 -9 8t-9.5 16t-7.5 18t-3 14v1q3 12 12 32.5t21 44.5q14 29 19 49.5t5 37.5q0 15 -2 26.5t-2 21.5q0 37 9 59t23.5 33t34 14.5t40.5 3.5
q14 0 23.5 -8t15.5 -19t8.5 -23.5t2.5 -21.5zM264 116q0 -22 -7 -44.5t-18 -45.5t-24.5 -46t-26.5 -47q-6 -10 -19 -30.5t-28 -41.5t-30.5 -36.5t-25.5 -15.5h-2q-4 1 -9 8t-9.5 16t-7.5 18t-3 14v1q3 12 12 32.5t21 44.5q14 29 19 49.5t5 37.5q0 15 -2 26.5t-2 21.5
q0 37 9 59t24 33t34.5 14.5t40.5 3.5q14 0 23.5 -8t15 -19t8 -23.5t2.5 -21.5z" />
    <glyph glyph-name="dagger" unicode="&#x2020;" horiz-adv-x="517" 
d="M498 514q0 -2 -3 -12.5t-7 -23t-8.5 -22.5t-8.5 -10t-4 2t-5 2q-6 0 -10.5 -9t-11.5 -9q-6 0 -9 2t-10 2h-4q-6 0 -20.5 -0.5t-32 -2t-37 -4t-36.5 -7.5q-3 -20 -4.5 -41.5t-2 -41.5t-1 -36.5t-1.5 -25.5q-8 -49 -10 -74.5t-2 -31.5v-6q0 -11 1 -30t1.5 -41.5t1.5 -45
t1 -41.5v-17.5t-1 -13.5q-1 -12 -9.5 -27t-20 -28t-24.5 -21.5t-23 -8.5q-3 0 -10.5 3.5t-16.5 9t-18 12.5t-14 15q-3 4 -4.5 16t-2.5 27t-1 29.5v23.5q1 3 5 20t8.5 37t8.5 37.5t5 21.5q5 36 10.5 75t10.5 75.5t8.5 68.5t5.5 54q-11 -2 -26 -5t-29.5 -7t-26.5 -6.5
t-17 -2.5q-8 0 -21 2t-26.5 7t-23 13t-9.5 21q0 25 7.5 39.5t20.5 22.5t30.5 10.5t37.5 2.5q5 0 15.5 -1.5t23.5 -3t26 -2.5t24 -1l-10 113v3q0 12 8.5 24.5t21 23t27.5 17.5t27 7q19 0 31 -10t19 -23.5t10 -28.5t3 -24v-3q0 -1 -3 -10t-7.5 -23t-10 -30.5t-11.5 -32.5
q21 5 38.5 12.5t35 14t36 11.5t42.5 5q4 0 11.5 -4t14.5 -9.5t12 -12t5 -11.5z" />
    <glyph glyph-name="daggerdbl" unicode="&#x2021;" horiz-adv-x="558" 
d="M523 514q0 -2 -3 -12.5t-7 -23t-8.5 -22.5t-8.5 -10h-3q-1 0 -1 1v2h-1q-1 0 -1.5 0.5t-1.5 0.5q-6 0 -11 -9t-12 -9q-6 0 -9 2t-10 2h-4q-6 0 -20.5 -0.5t-32 -2t-37 -4t-36.5 -7.5q-3 -20 -4.5 -41.5t-2 -41.5t-1 -36.5t-1.5 -25.5t-2 -13t-1.5 -7t-1 -5.5t-0.5 -8.5
q21 5 40 11.5t37.5 12t38 9.5t43.5 4q20 0 31.5 -12t11.5 -24q0 -26 -7.5 -43t-19.5 -25q-14 -8 -29 -9.5t-45 -1.5q-2 0 -13 1.5t-28 1.5q-14 0 -30.5 -2t-33.5 -7q1 -25 1.5 -63.5t0.5 -71.5v-27.5t-1 -20.5q-1 -12 -9.5 -27t-20 -28t-24.5 -21.5t-23 -8.5q-3 0 -10.5 3.5
t-16.5 9t-18 12.5t-14 15q-3 4 -4.5 16t-2.5 27t-1 29.5v23.5q1 2 6.5 18.5t12 37l13 41t9.5 31.5q-11 -2 -26 -5.5t-29.5 -7t-26.5 -6.5t-17 -3h-9h-9t-6 2q-1 1 -3.5 2.5t-7.5 2.5q-3 1 -11 3q-11 4 -23 11.5t-12 18.5q0 41 20 55.5t50 17.5h3q6 0 12.5 -1.5t12.5 -1.5
q4 0 9 1.5t13 1.5q16 -2 36.5 -3.5t35.5 -2.5q7 58 10 100t6 76q-11 -2 -27 -5t-31.5 -7t-28.5 -6.5t-18 -2.5q-8 0 -21.5 2t-26.5 7t-23 13t-10 21q0 25 7.5 39.5t20.5 22.5t30.5 10.5t37.5 2.5q5 0 16 -1.5t23.5 -3t26 -2.5t24.5 -1l-11 113v3q0 12 8.5 24.5t21 23
t27.5 17.5t27 7q19 0 31 -10t19 -23.5t10 -28.5t3 -24v-3q0 -1 -3 -10t-7.5 -23t-10 -30.5t-11.5 -32.5q21 5 38.5 12.5t35 14t36 11.5t42.5 5q4 0 11.5 -4t14.5 -9.5t12 -12t5 -11.5z" />
    <glyph glyph-name="bullet" unicode="&#x2022;" horiz-adv-x="448" 
d="M363 317q14 -20 14 -40q0 -23 -13.5 -45t-28.5 -51q-7 -14 -18 -22.5t-24 -13.5t-27 -7t-27 -2q-11 0 -21 1t-16 3q-9 2 -21.5 8.5t-25.5 15.5t-24.5 21t-20.5 25q-12 19 -12 45q0 20 7 39t18 36q13 26 38 36t54 10q22 0 45.5 -5t44 -13.5t36 -19t22.5 -21.5z" />
    <glyph glyph-name="ellipsis" unicode="&#x2026;" horiz-adv-x="791" 
d="M736 37q0 -5 -3.5 -13t-7 -17l-7 -18t-3.5 -15v-1q-15 -6 -23.5 -9.5t-13 -5.5t-6.5 -2.5t-5 -0.5h-20q-16 0 -30.5 5.5t-25.5 14t-17.5 20t-6.5 23.5q0 51 28 81t74 30q17 0 29.5 -10.5t21 -25t12.5 -30.5t4 -26zM469 34q0 -8 -1 -14t-4 -15t-10 -21.5t-19 -31.5
q-8 -1 -20.5 -3t-20.5 -2q-22 0 -38 8t-27 21t-16.5 29t-5.5 33q0 9 5.5 22.5t14.5 26t21.5 21.5t26.5 9q17 0 33.5 -4t30 -14t22 -25.5t8.5 -39.5zM230 72q0 -20 -8 -39t-21 -33.5t-30 -23.5t-35 -9q-17 0 -31 8.5t-23.5 22t-15 29.5t-5.5 30q0 13 7.5 28t19.5 28
t26.5 21.5t28.5 8.5q6 0 7.5 -2t8.5 -2q6 0 11 4t11 7q2 -3 10 -14t16.5 -24t15.5 -24.5t7 -15.5z" />
    <glyph glyph-name="perthousand" unicode="&#x2030;" horiz-adv-x="965" 
d="M937 210q0 -23 -8.5 -53t-27.5 -58.5t-48 -52t-70 -33.5q-10 -2 -21 -2q-13 0 -26 3.5t-16 12.5q-4 2 -7 5q-6 4 -9 12q-2 5 -10 21t-8 42q0 6 2 17t5 25t6.5 28.5t6.5 27.5q3 11 9 30t16 34q12 16 24.5 32.5t27 30.5t32 23t39.5 9q25 0 41 -18t25.5 -43t13 -51t3.5 -42z
M672 227q0 -23 -10.5 -61t-32.5 -74t-54.5 -62.5t-75.5 -26.5q-6 0 -16.5 3t-21 8t-19.5 11.5t-11 13.5q0 -1 1 -1v1q0 1 0.5 2t0.5 3q0 5 -8.5 21t-8.5 42q0 6 2 16.5t6 23.5t8.5 27t9.5 27q5 10 7 31.5t12 36.5q12 16 24.5 32.5t27 30.5t32 23t39.5 9q25 0 41.5 -15.5
t27 -37t15 -45t4.5 -39.5zM272 605q0 -25 -8 -54t-21.5 -57.5t-32.5 -53.5t-41 -43q-5 -4 -15 -9.5t-20.5 -10t-20 -8t-14.5 -3.5h-27q-11 0 -20.5 12t-16.5 26.5t-11 27.5t-4 15q0 22 7 50t19 57.5t29.5 57.5t38 50.5t44 36t48.5 13.5q20 0 33 -11t20.5 -27t10 -34.5
t2.5 -34.5zM498 648q0 -11 -11.5 -40t-27 -62.5t-30.5 -66.5t-22 -52q-7 -34 -21.5 -77.5t-32.5 -89.5t-36.5 -92t-33.5 -85q7 -18 7 -36q0 -19 -7 -35t-17.5 -27.5t-23.5 -18t-25 -6.5q-13 0 -24.5 7t-20 17.5t-13.5 23.5t-5 25q0 20 11 40.5t25 42t27.5 43t19.5 42.5
q6 23 21.5 55t26.5 70q14 36 23.5 63t16.5 49t12 42t9.5 42t10 48.5t12.5 62.5q2 2 7.5 14.5t14.5 27t20 26t24 11.5q33 0 48 -20.5t15 -43.5zM855 254q0 4 -2.5 5.5t-4.5 5.5q-2 -3 -9.5 -12t-16.5 -21t-17.5 -24t-12.5 -21q-5 -10 -7.5 -23.5t-4 -26.5t-1.5 -23v-13
q7 -3 13 -3q17 0 29 18t19.5 43t11 51.5t3.5 43.5zM597 231q0 4 -2.5 6t-4.5 6q-2 -3 -16.5 -18t-30.5 -33t-29 -36t-13 -27q0 -6 1.5 -13.5t1.5 -13.5q16 3 32.5 16.5t30 32.5t22 40.5t8.5 39.5zM188 601q-30 -22 -41 -47.5t-11 -51.5q0 -6 1.5 -15t1.5 -15q5 5 12.5 18.5
t15.5 29t15 29.5t10 22z" />
    <glyph glyph-name="guilsinglleft" unicode="&#x2039;" horiz-adv-x="375" 
d="M321 157q0 -9 -6 -20t-15.5 -20.5t-21.5 -15.5t-25 -6q-25 0 -51.5 17.5t-65.5 35.5q-40 18 -66.5 41t-26.5 47q0 12 6 23.5t15.5 22t20.5 21.5t22 23q10 12 18.5 24.5t16.5 24t17.5 21t21.5 15.5q10 7 27 7q12 0 25 -3.5t24.5 -8t18.5 -10t7 -9.5q0 -6 -6.5 -17.5
t-16.5 -24t-20.5 -23.5t-17.5 -16q-21 -14 -37 -29.5t-16 -27.5q0 -11 14.5 -17.5t35.5 -6.5q3 0 19.5 -5t34.5 -14t33 -21.5t15 -27.5z" />
    <glyph glyph-name="guilsinglright" unicode="&#x203a;" horiz-adv-x="387" 
d="M321 250q0 -7 -2 -18t-8.5 -23.5t-18.5 -25t-32 -21.5t-46.5 -23.5t-53 -28t-49.5 -23.5t-35 -10q-11 0 -15.5 6.5t-4.5 16.5q0 14 5.5 29t10.5 25q6 10 19 18.5t28.5 14.5t30.5 10.5t26 8.5q8 3 19.5 9t22.5 13q13 7 27 16q-7 6 -16.5 15.5t-20 19.5t-19.5 17.5t-15 9.5
q-9 3 -23 17t-27.5 31.5t-23 33.5t-9.5 23v2q3 10 15 13t26 3q10 0 19 -0.5t17 -0.5q13 0 29.5 -11.5t33 -27.5t31.5 -33.5t26 -29.5q22 -25 27.5 -42.5t5.5 -33.5z" />
    <glyph glyph-name="Euro" unicode="&#x20ac;" horiz-adv-x="776" 
d="M745 651q0 -36 -21 -55.5t-55 -19.5q-6 0 -13 5.5t-13 5.5q-2 0 -2.5 -0.5t-1.5 -0.5h-1q0 -2 -5 -2q-7 0 -14.5 10.5t-13.5 10.5q-20 0 -52.5 -12t-65 -28.5t-58 -32.5t-29.5 -25q1 -3 2 -5t7 -2q3 0 12.5 1.5t20.5 3.5t22 3.5t17 1.5q3 0 10.5 -0.5t16.5 -1t17 -1
t12 -0.5q6 0 14 3.5t14 3.5q15 0 26 -7.5t18.5 -18t11 -23t3.5 -22.5q0 -26 -14 -34.5t-30 -8.5q-4 0 -11.5 1.5l-15 3t-14.5 3t-10 1.5q-34 0 -67 -6t-66 -14.5t-66.5 -18.5t-69.5 -19q-8 -3 -11.5 -11t-11.5 -22h9q18 0 40 1t42 2.5t35 2.5t18 1l70 -3l-36 2h1
q6 0 28 -1.5t47.5 -3.5t47.5 -5.5t29 -6.5q0 -8 -2.5 -23t-7.5 -21q-14 -10 -36.5 -19t-39.5 -13q-29 -6 -44.5 -10t-21.5 -4q-3 0 -8 0.5t-13 0.5q-14 0 -35 -3q-12 -2 -31.5 -8.5t-26.5 -6.5q-6 0 -6 1.5t-8 1.5q-3 0 -11.5 -1.5t-20.5 -4t-25.5 -5.5t-25.5 -6
q0 -3 -2 -2.5t-2 -6.5q0 -20 10 -39.5t27 -35.5t39 -25.5t45 -9.5q6 0 11 4t11 4q29 0 63.5 10t70.5 25.5t71.5 35t67 38.5t57 36.5t42.5 28.5q6 -6 10.5 -11t4.5 -11q0 -2 -6.5 -13t-16 -26t-21 -30.5t-20.5 -24.5q-14 -14 -43 -33t-62 -38t-66 -36t-56 -26
q-33 -14 -54.5 -21.5t-35.5 -12t-24.5 -5.5t-20.5 -1h-25q-39 0 -67.5 15t-50.5 42t-39 64t-33 81q-2 6 -14.5 5.5t-19.5 1.5q-9 2 -18 10.5t-16.5 19t-12.5 21.5t-5 19q0 18 19.5 27t43 16t43 16t19.5 27q0 10 -5 13.5t-13 3.5q-9 0 -20 -3t-19 -3q-12 0 -22.5 7.5t-18 18
t-12 22t-4.5 20.5t5 22t13 25t18 20.5t21 8.5q3 0 10 -1.5t14.5 -3t14.5 -2.5t10 -1q6 0 11.5 4t11.5 4q8 0 16.5 -4t16.5 -4h3q9 0 26 2.5t28 13.5q53 57 106 103.5t104.5 79t102 50.5t97.5 18q19 0 37.5 -5.5t32.5 -17t22.5 -28t8.5 -37.5z" />
    <glyph glyph-name="trademark" unicode="&#x2122;" horiz-adv-x="560" 
d="M512 617q-2 -26 -4.5 -47t-4.5 -41q-1 -6 -1 -12v-13q0 -29 6 -65q-19 -37 -38 -37q-11 0 -18 11t-7 28q0 12 5 30q-1 3 -1 14q0 7 0.5 15t1.5 16q2 14 3 27.5t2 24.5q-14 -15 -25 -29.5t-22 -27.5t-21 -23.5t-19 -16.5t-16 -6q-12 0 -23 19t-19 67q-5 -5 -9 -15
q-2 -5 -5 -11.5t-6 -14.5q-6 -14 -14 -30.5t-16 -30.5q-9 -16 -18 -26t-17 -10q-15 0 -23 35q4 11 17 35t28.5 50.5t30 50.5t22.5 35q12 16 25 16q11 0 18.5 -8t7.5 -22q0 -4 -2 -12l6 -30q3 -16 10 -31q8 8 15 16.5t14 17.5t14 18.5t15 18.5q14 17 30 29.5t36 12.5h2
q6 -3 11.5 -12t8.5 -16zM280 636q-4 -11 -19 -22t-44 -11q-3 0 -6 0.5t-6 0.5l-18 -9q-3 -26 -8.5 -57.5t-11.5 -56.5q6 -20 6 -34q0 -12 -6.5 -21.5t-22.5 -19.5q-17 0 -23 7t-6 18q0 6 1 12.5t3 12.5q2 5 3.5 10t1.5 10l9 116q-7 -2 -13.5 -2.5t-13.5 -2.5l-12 -4t-11 -6
q-9 3 -18.5 9.5t-9.5 17.5v1q1 14 27 21.5t61 12.5q17 2 33.5 4.5t30.5 4.5t23.5 4.5t13.5 5.5q9 3 16 3q11 0 16 -5t5 -13q0 -5 -1 -7z" />
    <glyph glyph-name="glyph223" horiz-adv-x="0" 
 />
    </font>
</defs>
</svg>
